<?xml version="1.0" encoding="utf-8"?>
<!-- Generator: Adobe Illustrator 23.0.1, SVG Export Plug-In . SVG Version: 6.00 Build 0)  -->
<svg version="1.1" id="Layer_1" xmlns="http://www.w3.org/2000/svg" xmlns:xlink="http://www.w3.org/1999/xlink" x="0px" y="0px"
	 viewBox="0 0 487.2 155.7" style="enable-background:new 0 0 487.2 155.7;" xml:space="preserve">
<style type="text/css">
	.st0{fill:#282425;}
</style>
<g>
	<g>
		<g>
			<g>
				<g>
					<g>
						<path class="st0" d="M14.9,105.4l0.6-0.6C15.4,104.7,15.2,104.9,14.9,105.4z"/>
						<path class="st0" d="M76.4,85.6c0,0.1,0,0.1,0,0.2C76.4,85.7,76.4,85.6,76.4,85.6z"/>
						<path class="st0" d="M35.4,81.4C35.4,81.4,35.4,81.4,35.4,81.4c0,0.1,0,0.2-0.1,0.2L35.4,81.4z"/>
						<path class="st0" d="M17.1,117.1c4.9-9.3,7.1-11.3,11.6-21.3c1.2-2.3,2.3-4.7,3.5-7.2c1.1-2.5,2.2-4.9,3.2-7.2
							c0.3-2.6,2.9-6.1,3.4-8.9l0.9-0.8c0.2-1,0.5-2.1,1.2-2.9l0.1,0.1c0.3-1.5,1.2-2.9,1.4-3.6l0.1,0.1l0.7-1.6l0,0.4
							c0.7-2.5,1.9-4.8,3.1-6.8l-0.6-0.1c2.8-4.1,2.5-6.3,5.3-9.8l0.1,0.1c0.6-2.9,2-4.6,3.3-6.4c1.3-1.8,2.7-3.5,3.6-6.4
							c-0.2,0.7,0.4-0.1,0.5,0c1.3-2.3,2.7-4.7,1.8-5.4c1.1-1.6,1.2-1.1,1.7-1c-0.4-0.3,0.4-1.8,1.2-3L63.1,26
							c0.8-1.2,1.6-2.4,2.4-3.5l-1.3,0.1c1.6-1.6,1.3,0.2,2.4-1.6L66,20.5c1-1.2,2.1-1.9,3.2-2.6c0.5-0.3,1.1-0.7,1.7-1
							c0.6-0.4,1.1-0.8,1.8-1.2c0.5-0.5,1.1-1.1,1.6-1.6l0.5-0.5c0.3-0.3,0.6-0.7,1-1.1l0.1-0.2l0.1,0.1c0.1,0.1,0.2,0.1,0.2,0.2
							c0.2,0.2,0.3,0.4,0.4,0.6c0.3,0.4,0.5,0.9,0.6,1.5c0.6,2.9,0.7,6.1,0.6,9.1c-0.1,3.1-0.5,6.1-1.2,9l-0.6,0.4
							c-0.9,0.1,0.9,3.4,0,3.7l0.2,1.4c-0.2,0.4-0.5,1.2-0.6,0.4c-0.2,1.3-0.1,1.3,0,2.3l-0.7,1.3c-1.2,4.9-0.9,9.4-2,14.8
							c-0.3,0.8-0.5,1.7-0.7,2.7c-0.2,0.9-0.3,2-0.5,3c-0.3,2.1-0.5,4.5-0.7,6.8c-0.4,4.7-0.6,9.5-0.8,13c0,4.9-1.4,10.1-2.7,15.3
							c-1.4,5.1-2.9,10.2-3.3,15.3c-0.2,0.3-0.1,1.2,0,1.2c-0.8,2.9-1.5,5.9-2.4,8.8c0,0-0.2,0.7-0.5,1.8c-0.3,1.1-0.7,2.6-1.2,4.3
							c-0.5,1.7-1.1,3.6-1.6,5.6c-0.6,1.9-1.1,3.8-1.5,5.5c-0.9,3.3-1.3,5.7-0.1,5.6c0.6-0.1,1.5-0.8,2.9-2.4
							c0.7-0.8,1.5-1.9,2.4-3.2c0.9-1.3,2-2.9,3-4.8l0.1,0.3c0.5-1.2,1-2.3,1.4-3.3c0.4-1,0.7-2,0.9-2.9c0.5-1.8,0.8-3.5,0.8-5.4
							c1.3-0.2,1.2-4,1.8-5.1l0.1,0.1c-0.1-3.2,2.2-6.1,2.1-9.2c0.1,0.1,0.4,0.3,0.2,0.9c0.3-2.2,0.6-5.2,1.3-5.2
							c0.8-5.2,2.3-12.3,1.7-15.8l0.1,0.3c-0.4-2,0.3-2.5,0.2-4.6c0.1-0.1,0.2-0.2,0.2-0.2c-0.4-2.1,0.7-6,0.6-7.7l0.5-0.1l0.4-4.1
							l-0.3,1.5c-1.2-0.7,1.1-3,0.7-6.1c0.5-2.8-1.9-5.9-1-8.7c-0.4-1.4,0.8,1.3,0.6-0.8c0.6,0,0.3,1,0.9,0.5c-0.1-2,1.1-3.1,1-5.6
							l0.5,0c-0.4-3.3,1.7-5.9,1.1-8.2c0.1-3.4,1.8-2,1.4-5.6l0.9-1.3c0.3-1.5-0.7-1.2-0.1-2.8c0.4,0.2,0.6-2.1,0.9-1
							c0.6-1.9,0.5-3.8,0.5-6c0-2.1,0-4.4,0.6-7c-0.4-0.6-0.5-1.5-0.6-2.4c-0.1-0.9-0.1-1.8-0.5-2.2c0.2-0.1,0.1-1.4,0.1-2.4
							c0-1,0-1.5,0.6-0.1c0.1,0.3,0.1,0.7,0,0.7l0.5,0.3c0.3-1.7,0.1-2.6-0.7-5.3c-0.4-1.1-0.8-2.2-1.3-3.1c-0.2-0.5-0.5-1-0.7-1.5
							c-0.3-0.4-0.5-0.9-0.8-1.4C82.5,6,82.8,6.7,83,7.1c0.1,0.5,0.1,0.7-0.2,0.2l-0.9-1.8c-0.3-0.6-0.7-1.1-1-1.6l0.7,0.2
							c-0.5-0.8-1.1-1.6-1.6-2.5L79,0.5l-0.2-0.3L78.6,0l-0.2,0.1l-0.6,0.4c0.2,0.1,0.4,0.1,0.5,0.2c-1.1,0.7-1.9,0.9-2.7,1.3
							c-0.9,0.4-1.8,1-3.1,2.4c-0.5,0.6,0.1,0.4,0.5,0.3c0.4-0.1,0.7-0.2-0.5,0.8c-0.4,0.2-0.8,0.4-1.2,0.8
							c-0.4,0.4-0.9,0.7-1.4,1.1c-0.5,0.4-1,0.8-1.5,1.3c-0.3,0.3-0.7,0.5-1,0.8c-0.7,0.6-1.4,1.1-2,1.7c-0.6,0.6-1.3,1.2-1.8,1.9
							c0.6,0.1,0,0.8-0.5,1.6l-0.5-0.2C61.8,15.9,61.4,16,61,16c-0.4,0.1-0.9,0.1-1.7,1.7l-0.1-0.5l0.3,1.4
							c-1.1,3.1-1.9,0.7-2.8,4.4c0.7-1.2,1.3,0.1,0.1,1.4l-0.1-0.6c-0.5,0.8-0.5,1.2-0.9,1.7c0.1-0.6-0.4-0.6-1.1,0.5
							c0-0.4,0-0.7,0-1.1c-0.3,0.9-0.5,1.8-0.7,2.7c-1.5,1.4-2.7,4.4-3.7,4.8c0,0-0.6,0.9-1.2,1.9c-0.6,1-1.2,2.2-1.1,2.8
							c0-1-1.3,1-1.4,0.1c-0.1,1.2-1.4,4.3-2.5,5.2l0.1-0.2c-2.8,4-3.2,7.7-5.8,11.3c0.6,0.1-0.7,2,0.2,1.8
							c-1.3,4.3-4.9,6.7-3.6,9.1c-0.8,1.9-1.5,1.9-2.1,2.8l0.1-0.5c-1.5,3.5-1.9,4.5-3.2,7c-0.4,1.4,0.5,2-0.8,4.2
							c0-0.9-0.4,0-0.8,0.9c0.2-0.6,0.1-0.8-0.6,0.2c0,0.2,0,0.5,0,0.7c0,0-0.1,0-0.1,0c-0.5,1.5-0.3,1.3,0.1,0.7
							c0,0.1,0.1,0,0.3-0.1c-1.2,1.2-1.9,4.1-2.7,4c-1.9,4.3-2.8,7.7-4.3,11.3c-0.5,0.2-0.4-0.7,0-1.8l-1.1,2.6
							c-0.5-0.3,0.4-1.6,0.7-2.4c-2.3,2.6-2.3,6.5-4.7,9.7l0,0.9l-0.2,0.2c0.2,0.1,0.1,1-0.1,1.6c-0.7,0.3-0.9-0.5-1.8,1.2
							c-1.1,1.2-1.7,4-2.4,5.9c0.5-0.9,0.6-0.5,0.6,0c-0.4,0.9-1.1,1.2-1.2,1.9l-0.6-0.2c0.7-0.1-0.5,2.5-0.5,3
							c-0.7,0.3,0.3-1.5,0.1-1.9c-1.7,3.5-0.8,1.7-2.5,5.2c-0.5,2.1,0.7-0.1,0.8,1.1c-0.7,1.7-1.1,3.5-2.4,5.2l0.8-0.3
							c-1.1,3.3-2.1,5.1-3.6,6.9c-1.8,6.2-2.5,9.8-2.6,11.7c-0.1,1.8,0.5,2.1,1.4,1.5c0.9-0.7,2-2,2.9-3.3c0.9-1.2,1.5-2.3,1.5-2.3
							C11.4,133.4,12.2,128,17.1,117.1z"/>
					</g>
				</g>
			</g>
		</g>
	</g>
	<g>
		<g>
			<g>
				<g>
					<g>
						<path class="st0" d="M39.4,98.4l0.2,0.2C39.6,98.5,39.5,98.4,39.4,98.4z"/>
						<path class="st0" d="M73.2,89.2C73.2,89.2,73.2,89.2,73.2,89.2C73.2,89.2,73.2,89.2,73.2,89.2z"/>
						<path class="st0" d="M47,104.1L47,104.1C47,104.1,47,104.1,47,104.1L47,104.1z"/>
						<path class="st0" d="M40.3,105.7c1.8-0.4,2.6,0.5,4.2-0.5c0.9-0.2,1.7-0.7,2.5-1.1c0.1-0.9,1.1-0.4,1.3-1.2l0.3,0.4
							c0.1-0.3,0.2-0.5,0.5-0.3l0,0.1c0.1-0.4,0.5-0.3,0.5-0.5l0,0.1l0.3-0.2l0,0.2c0.3-0.5,0.7-0.7,1.2-0.6l-0.2-0.5
							c1,0.4,0.9-0.9,1.9-0.4l0,0.1c0.5-1.8,1.8,0.6,2.3-1.1c-0.1,0.2,0.1,0.3,0.2,0.4c0.4-0.3,0.8-0.5,0.5-1.6
							c0.3-0.1,0.4,0.3,0.5,0.7c-0.1-0.5,0.1-0.8,0.3-0.9l-0.1,0.2l0.7-0.4l-0.4-0.9c0.5,0.2,0.4,1.1,0.7,0.8l-0.2-0.8
							c0.6,0,1.2,1.1,1.9,1.5c2.2-0.2,4-2.7,6.4-1.9l0.2,0.6c0.2,0.8,0.3-1.4,0.5-0.6l0.1-0.4c0.1,0.1,0.3,0.3,0.2,0.5
							c0.2,0,0.2-0.2,0.3-0.4l0.3,0.5c0.9,0.2,1.4-1,2.4-0.9c1.3,0.8,3.1-0.5,4.2-1.3c1.4-1.6,3.9,1.5,5.4-0.2
							c0.1,0.1,0.2-0.2,0.2-0.3l1.6-0.1c0,0,1.9-0.2,3-1.1c1.1-1,1.4-2.7-2-5.8l0-0.2c-0.9-0.3-1.5-0.4-2,0.7c-0.3-1.1-0.7,0-1-0.4
							l0-0.1c-0.4,1-1.2-0.6-1.6,0.3c0-0.1,0-0.4,0.1-0.4c-0.4,0.2-0.8,0.5-1-0.1c-0.9,0.3-2.2,0.2-2.6,1.4l0-0.2
							c-0.2,0.8-0.4,0.2-0.7,0.6c0-0.1-0.1-0.1-0.1-0.2c-0.2,0.8-1,0.3-1.3,0.7l-0.1-0.4l-0.7,0.2l0.3,0c0.1,1.2-0.7-0.7-1,0.2
							c-0.5-0.1-0.5,2.7-1.1,2.2c-0.1,0.6,0-1-0.2-0.5c-0.1-0.6,0.1-0.4-0.1-0.9c-0.3,0.4-0.7-0.5-1,0l-0.1-0.5
							c-0.4,1-1.2-0.4-1.4,0.5c-0.5,0.5-0.7-1.4-1.1-0.3l-0.4-0.6c-0.3,0,0,0.8-0.4,0.6c-0.1-0.4-0.4-0.3-0.4-0.7
							c-0.8-0.5-1.1,1.2-2.2,0.3c0,0.8-0.5,0.5-0.5,1.1c-0.1-0.3-0.9,0.1-0.6-0.7c0-0.1,0.1-0.1,0.1,0.1l-0.1-0.5
							c-0.7-0.8-0.8,0.7-1.3,0.7c0.2,0.1,0.4,0,0.3,0.4l-0.5,0l0-0.4l-0.7-0.1l0.2,0.5c-0.4-0.2-0.7-1-0.9-0.2
							c-0.1,0.4,0.5,0.6,0.2,0.8c-0.5-0.2-1.3-0.6-1.9-0.6c0.2,0.5,0,0.6-0.1,0.7l-0.1-0.5c-0.4,0.8-0.5-1-0.9-0.3l0-0.3l0.1,1
							C55,93,54.7,91,54.5,92.5c0.2-0.1,0.4,1,0.1,0.9l-0.1-0.5c-0.1,0.1-0.1,0.3-0.3,0.3c0-0.3-0.1-0.7-0.3-0.5l0-0.6l-0.2,1
							c-0.5-0.4-0.8,0.4-1.2-0.2c0,0-0.8-0.1-0.8,0.7c0-0.5-0.4-0.5-0.5-1.1c0,0.6-0.5,1.1-0.8,0.7l0-0.1c-1-0.3-1.2,1.2-2.1,0.7
							c0.2,0.5-0.3,0.4,0,1c-0.5,0.9-1.8-1-1.4,1.3c-0.3,0.2-0.6-0.4-0.8-0.4l0-0.1c-0.6,0.4-0.8,0.5-1.2,0.6
							c-0.2,0.3,0.1,1.3-0.4,1.2c0-0.4-0.1-0.3-0.3-0.3c0.1-0.1,0.1-0.3-0.2-0.5c0,0.1,0,0.2,0,0.3c0,0,0-0.1,0-0.1
							c-0.2,0.2-0.1,0.3,0,0.4c0,0.1,0.1,0.1,0.1,0.2c-0.4-0.4-0.7,0.3-1-0.4c-0.7,0.4-1.1,1.3-1.6,1.8c-0.2-0.3-0.2-0.7,0-0.9
							L41.2,98c-0.2-0.5,0.2-0.4,0.3-0.5c-0.8-0.6-0.8,1.2-1.8,0.7l0,0.4l-0.1-0.1c0.1,0.2,0,0.5,0,0.7c-0.2-0.4-0.4-1-0.7-0.9
							c-0.4-0.3-0.6,0.5-0.9,0.8c0.2,0,0.2,0.3,0.2,0.5c-0.2,0.1-0.4-0.3-0.5-0.1L37.6,99c0.3,0.5-0.2,0.8-0.2,1
							c-0.3-0.4,0.1-0.5,0-0.8c-0.6,0.3-0.3,0.1-0.9,0.4c-0.2,0.6,0.3,0.5,0.3,1.1c-0.3,0.2-0.4,0.7-0.9,0.5l0.3,0.5
							c-0.4,0.6-0.8,0.7-1.3,0.3c-1.3,2.9-0.9,4.5-0.2,5.3c0.7,0.8,1.6,0.9,1.6,0.9C38.3,108.7,38.5,106.9,40.3,105.7z"/>
					</g>
				</g>
			</g>
		</g>
	</g>
	<g>
		<g>
			<g>
				<g>
					<g>
						<path class="st0" d="M116.9,49l-0.4,0.7C116.7,49.7,116.8,49.5,116.9,49z"/>
						<path class="st0" d="M134.9,117.7c0,0.1-0.1,0.1-0.1,0.2C134.9,117.7,134.9,117.7,134.9,117.7z"/>
						<path class="st0" d="M102.8,74.3C102.8,74.3,102.8,74.2,102.8,74.3c0-0.1,0-0.2,0-0.2L102.8,74.3z"/>
						<path class="st0" d="M111.4,39.1c-1.1,4.8-1.9,7.7-2.7,10.7c-0.8,3-1.5,6-2.4,10.8c-1.1,4.5-2.2,9.3-3.5,13.7
							c0.2,2.3-1.9,5.7-2.1,8.4l-0.8,0.8c-0.1,0.9-0.3,2-0.8,2.7L99,86c-0.1,1.4-0.9,2.7-0.9,3.4l-0.1-0.1l-0.5,1.5l-0.1-0.3
							C96.8,92.8,96,95,95,97l0.6,0.1c-2.3,4-1.8,6-4.1,9.5l-0.1-0.1c-0.5,5.4-4,7.3-4.6,13c0.1-0.7-0.4,0.2-0.5,0.1l0,0l-3.6,11.9
							l9.7-6.8c1.8-1.3,2.6-2.4,3.2-3.3c0.6-0.9,0.8-1.7,0.4-2c1.2-1.4,1.2-1,1.7-0.9c-0.4-0.3,0.5-1.7,1.3-2.9l-0.2,0.6l2.3-3.4
							l-1.2,0.1c1.5-1.6,1.3,0.2,2.3-1.6l-0.6-0.4c1.9-2.3,3.8-3,6-5c3.6-4.7,6.9-9.8,10.6-14.4c1.8-2.3,3.8-4.4,5.8-6.2
							c2-1.7,4.4-3.1,6.3-3.3c0.2,0.1,0.3,0.3,0.5,0.5c0.1,0.2,0.2,0.2,0.4,0.1c0.1-0.1,0.3-0.3,0.5-0.5c0.4-0.4,0.8-0.6,0.9-0.2
							c0.2-0.1,0.4-0.2,0.7-0.2c0.1,0.2,0.4,0.5,0,0.6c0.5,0.3,0.6,0.2,1.1,0.2c0.1,0.3,0.2,0.6,0.2,0.9c0.4,0.6,0.9,1.3,1.4,2
							c0.2,0.4,0.5,0.8,0.7,1.1c0.2,0.4,0.4,0.7,0.6,1.1c0.7,1.5,1.2,3.2,1.1,5.3c-0.6,2.4-1.4,6-2.8,9.7c-1.4,3.7-3.2,7.5-4.8,10.1
							c-2,3.9-5.6,7.2-9.3,9.8l-0.3,0.2c-0.1,0.1-0.1,0-0.2,0.1l-0.7,0.4l-1.5,0.8c-1.1,0.6-2.1,1.1-3.2,1.6
							c-2.1,1.1-4.1,2.3-5.9,3.7c-0.3,0-0.9,0.6-0.8,0.7c-2.5,1.2-5,2.4-7.5,3.4c0,0-0.6,0.2-1.5,0.6c-0.9,0.4-2.2,0.9-3.7,1.4
							c-1.4,0.5-3.1,1-4.4,1.2c-0.6,0.1-1.2,0.1-1.3,0.1c0-0.1-0.1,0.3-0.3,0.5c0,0.1-0.1,0.1-0.1,0.2l-0.1,0.1c0,0,0,0,0,0l0,0
							l0.1-0.1c0.1,0,0.2-0.1,0.2-0.1c0,0,0.1-0.1,0.2-0.1l0,0c-0.1,0-0.3-0.5-0.3-0.9c-0.1-0.5-0.1-0.9-0.1-1.4
							c-0.1-0.8-0.3-1.4-0.8-1.3c-0.5,0.1-1.5,0.6-2.5,2.5c-0.2,0.5-0.4,1.1-0.5,1.9c0,0.8,0.2,1.9,1.1,2.8c0.8,0.9,2,1.4,3.1,1.7
							c1.1,0.3,2.2,0.4,3.4,0.4l-0.2,0.2c2.7-0.2,4.7-0.8,6.4-1.4c1.7-0.7,3.1-1.5,4.4-2.6c1,0.9,3.6-1.5,4.8-1.7l-0.1,0.1
							c2.2-2.1,5.7-2.1,7.7-4.2c0,0.1,0.1,0.4-0.5,0.8c1.7-1.1,4-2.8,4.5-2.3c1-0.7,2.2-1.4,3.4-2.2l0.9-0.7
							c0.2-0.1,0.3-0.2,0.6-0.4l0.3-0.2l0.2-0.2c0.6-0.5,1.1-1,1.6-1.5c2-2,3.6-4,4.2-5.6l0,0.3c0.6-1.9,1.4-1.9,2.4-3.7
							c0.1,0,0.3-0.1,0.3-0.1c0.6-2,3.2-4.8,3.8-6.3l0.4,0.1c0.6-1.2,1.2-2.3,1.8-3.5c-0.2,0.4-0.5,0.9-0.8,1.3
							c-0.4-0.5,0.1-1.1,0.8-1.9c0.7-0.8,1.5-2,1.7-3.5c0.6-1.3,0.4-2.8,0.2-4.3c-0.2-1.5-0.4-2.9,0-4.2c-0.4-1.4,0.8,1.3,0.6-0.8
							c0.6,0,0.3,1,0.9,0.5c0-0.5,0-1,0.1-1.4c0.1-0.4,0.2-0.9,0.2-1.3c0.1-0.9,0.2-1.9-0.2-3.2l0.5-0.2c-1.4-3.2-1.4-6.6-3.4-8.1
							c-1.2-1.4-1.4-2-1.6-2.8c-0.1-0.4-0.3-0.7-0.7-1.1c-0.2-0.2-0.5-0.4-0.8-0.6c-0.3-0.2-0.8-0.4-1.4-0.6
							c-0.4-0.5-0.9-0.9-1.4-1.4c-1-0.4-1.4-0.2-1.9-0.1c-0.4,0.1-0.8,0.2-1.9,0c0.1-0.2-0.6-0.3-1.2-0.3c-0.5,0-1,0-0.4-0.3
							c-2.6,0.1-4.6,1.3-6.5,2.6c-1.8,1.3-3.5,2.8-5.7,4c-0.3,1.3-2.3,2.7-2.4,3.7c-0.4-0.2-3.3,3.5-2.1,1c0.1-0.2,0.4-0.5,0.5-0.4
							l-0.1-0.6c-2.6,1.4-2.9,4-4.7,6c0.6-0.5,1.3-1.3,1.1-0.6l-1.6,1.9l0-0.7l-2.4,2.7l0.7-0.1c-1.3,1.2-2.4,1.2-3,3.2
							c-0.2,1,1.5-0.9,0.6,0.7c-1.7,1.7-4.2,4.2-6,6.5c0.6,0.1,0.1,0.7-0.2,1.5l-0.5-0.2c-1.3,2.9-1.6,0.3-2.9,3.1l-0.1-0.4l0.4,1.3
							c-0.9,2.8-1.7,0.6-2.5,3.8c0.7-1,1.2,0.2,0.1,1.3l-0.1-0.6c-0.4,0.7-0.4,1-0.8,1.4c0.1-0.5-0.4-0.6-1.1,0.3l0-1
							c-0.2,0.7-0.5,1.5-0.7,2.2c-0.7,0.4-1.5,1.1-1.7,1.3l5.7,4.7c0.3-0.9,0.6-1.7,1.1-1.9c0,0,0.4-0.9,0.8-1.9
							c0.4-1,0.7-2.1,0.5-2.7c0.2,0.9,1.1-1,1.4-0.3c-0.1-1.1,0.6-4,1.5-4.9l0,0.2c2.1-3.9,2.1-7.3,4.2-10.7c-0.6,0,0.5-1.9-0.4-1.7
							c0.8-4.1,4.1-6.5,2.5-8.7c0.5-1.8,1.3-1.9,1.7-2.8l0,0.5c1-3.4,1.4-4.3,2.3-6.8c0.2-1.3-0.7-1.8,0.2-4
							c0.2,0.9,0.4-0.1,0.7-0.9c-0.1,0.6,0,0.8,0.6-0.2c-0.1-0.2-0.1-0.5-0.1-0.7c0,0,0.1,0,0.1,0c0.3-1.4,0.1-1.2-0.2-0.6
							c-0.1-0.1-0.1,0-0.3,0.1c1-1.3,1.2-4.1,1.9-4.1c1-4.3,1-7.6,1.5-11.2c0.5-0.3,0.6,0.6,0.5,1.7c0.1-0.9,0.3-1.7,0.4-2.6
							c0.5,0.1,0,1.5-0.1,2.3c1.5-2.9,0.4-6.4,1.9-9.8l-0.3-0.8l0.1-0.2c-0.2,0-0.4-0.9-0.3-1.4c0.6-0.4,1.1,0.2,1.3-1.5
							c0.7-1.3,0.5-4,0.6-5.8c-0.3,1-0.5,0.6-0.5,0.1c0.2-0.9,0.7-1.3,0.6-2l0.6,0c-0.7,0.2-0.2-2.4-0.4-2.8
							c0.6-0.4,0.1,1.4,0.4,1.7c0.6-3.5,0.3-1.7,1-5.2c-0.1-1.9-0.7,0.2-1-0.8c0.2-1.6,0.2-3.3,1-5.1l-0.7,0.5
							c0.3-3.1,0.9-5,2.1-6.8c0.6-5.9,1.1-9.3,0.9-11.1c-0.1-1.8-0.7-1.9-1.5-1.4c-0.8,0.6-1.8,2-2.5,3.3c-0.7,1.3-1.2,2.4-1.2,2.4
							c-2.2,4.4-3.1,8-3.7,11.8C112.6,29.5,112.3,33.6,111.4,39.1z"/>
					</g>
				</g>
			</g>
		</g>
	</g>
	<g>
		<g>
			<g>
				<g>
					<g>
						<path class="st0" d="M154.9,107.9l-0.3,0.2C154.7,108.2,154.8,108.1,154.9,107.9z"/>
						<path class="st0" d="M171.3,103.1C171.3,103.1,171.2,103.1,171.3,103.1C171.2,103.1,171.3,103.1,171.3,103.1z"/>
						<path class="st0" d="M142.8,118.2L142.8,118.2c0-0.1,0-0.1,0-0.1L142.8,118.2z"/>
						<path class="st0" d="M150.1,101c-2.3,4.3-3.8,5.1-5.2,10c-0.9,2.2-1.5,4.8-2.1,7.1c0.5,1.3-0.9,3-0.5,4.6l-0.6,0.4
							c0.1,0.5,0.2,1.1-0.2,1.5l-0.1-0.1c0.2,0.8-0.1,1.5,0,1.9l-0.1-0.1c0,0.3-0.1,0.6-0.1,0.9l-0.2-0.2c0.2,1.3,0.1,2.6-0.2,3.8
							l0.6-0.1c-0.2,0.6-0.3,1.2-0.3,1.7c0,0.5,0.1,0.9,0.2,1.4c0.2,0.9,0.3,1.7,0.2,3.1l-0.1,0c1.1,1.5,1.3,2.8,2,4.3
							c0.5,1.5,1.9,3.2,4.1,3.4c-0.6-0.1,0.1,0.4,0,0.5c0.2,0.1,0.5,0.2,0.7,0.3c0.2,0,0.5,0.1,0.7,0.1c0.5,0.1,0.9,0.1,1.3,0.1
							c0.8-0.1,1.4-0.3,1.4-0.9c1.3,0,1.1,0.3,1.3,0.8c0-0.5,1-0.8,1.9-1.1c-0.1,0.1-0.2,0.2-0.4,0.3c0.9-0.3,1.7-0.7,2.4-1.1
							c-0.3-0.2-0.6-0.4-0.8-0.6c1.2-0.3,0.8,0.9,1.8,0.1l-0.4-0.7c1.5-0.7,2.9-0.4,4.6-1.1c2.6-2.2,4.3-5.1,5.8-7.8
							c1.5-2.8,2.9-5.4,4.8-7.6l0.6,0c0.8,0.3-0.4-2,0.4-1.8l-0.1-0.8c0.2-0.1,0.5-0.4,0.6,0c0.3-0.5,0.2-0.6,0.1-1.1l0.8-0.4
							c1.4-2,1.2-4.3,2.2-6.7c1-1.3,1.8-3.4,2-6.1c0.2-3.1-0.8-5.5-1.6-7.3c-1.4-2.3-2.2-4.8-3.6-7.4c-0.7-1.3-1.5-2.5-2.6-3.5
							c-1.1-1-2.4-1.9-4-2.2c-0.1-0.2-0.7-0.1-0.8-0.1c-1.7-0.7-3.8-1.3-6.1-0.9c0,0-0.1,0-0.4,0.1c-0.2,0.1-0.6,0.1-1,0.3
							c-0.4,0.2-0.9,0.3-1.4,0.6c-0.3,0.1-0.5,0.3-0.8,0.5c-0.2,0.2-0.5,0.4-0.7,0.6c-2.1,1.8-3,4.4-3.2,6.3c-0.1,0.9,0,1.7,0.2,2.3
							c0.2,0.5,0.6,0.8,1.1,0.8c0.5,0,1.2-0.4,2-1.1c0.5-0.3,0.9-0.7,1.5-1.1c0.6-0.4,1.2-0.8,2-1.1l0.1,0.2c0.6-0.5,1-0.6,1.2-0.8
							c0.2-0.2,0.4-0.4,0.7-1c0.1,0.6,0.3,0.6,0.6,0.5c0.2-0.1,0.6-0.1,0.7,0.1l0,0.1c0.2-0.2,0.5-0.1,0.7-0.1
							c0.2,0.1,0.4,0.3,0.6,0.5c0.4,0.4,0.7,0.8,1.3,0.8c-0.1,0.1-0.3,0.3-0.5,0.2c0.7,0.3,1.6,0.8,1.2,1.3c0.7,0.5,1.4,1.4,2.1,2.2
							c0.7,0.8,1.3,1.5,2.1,1.8l-0.2,0c1,0.3,0.5,0.8,1.1,1.4c-0.1,0.1-0.1,0.1-0.1,0.1c0.4,0.2,0.7,0.8,0.8,1.3
							c0.1,0.5,0.1,1.1,0.3,1.3l-0.4,0.1c0.1,0.5,0.2,1,0.2,1.4l0.1-0.5c0.6,0.1,0.4,0.4,0.2,0.7c-0.1,0.2-0.3,0.4-0.3,0.5
							c-0.1,0.2-0.1,0.5,0.1,0.8c-0.3,1,1.9,2.9,1,3.9c0.4,0.7-0.7-0.8-0.6,0.2c-0.6-0.2-0.3-0.5-0.8-0.5c0,0.9-1.1,1.1-1,2.3
							l-0.5-0.1c0.4,1.6-1.6,2.2-1.1,3.4c-0.2,1.5-1.7,0.3-1.5,2.1l-0.9,0.2c-0.4,0.5,0.5,0.8-0.1,1.3c-0.4-0.2-0.7,0.7-0.9,0.1
							c-1.3,1.1-0.7,3.3-2.7,4.6c0.5,0.8-0.5,1.5-0.2,2.1c-0.3-0.1-1.2,1.7-1.2,0.3c0-0.1,0.1-0.3,0.2-0.2l-0.3-0.4
							c-1.4,0.5-0.8,2-1.6,2.9c0.3-0.2,0.6-0.6,0.7-0.1l-0.7,0.8l-0.2-0.4c-0.4,0.4-0.8,0.7-1.1,1.1l0.5,0.2
							c-0.7,0.4-1.5,0.1-1.5,1.2c0,0.5,1-0.1,0.6,0.6c-0.9,0.5-2.3,1.2-3.3,1.7c0.4,0.4,0.2,0.5,0,0.8l-0.3-0.4
							c-0.3,0.6-0.5,0.4-0.7,0.2c-0.2-0.2-0.5-0.4-0.7,0l-0.1-0.3c0.1,0.3,0.2,0.7,0.3,1c-0.2,0.7-0.4,0.4-0.5,0.2
							c-0.1-0.1-0.2-0.2-0.2-0.1c-0.1,0-0.1,0.2-0.2,0.5c0.3-0.2,0.4,1.1-0.1,0.9l0-0.5c-0.2,0.1-0.2,0.3-0.3,0.2
							c0.1-0.3,0-0.7-0.2-0.6c0.1-0.2,0.1-0.4,0.1-0.6c-0.1,0.3-0.2,0.5-0.4,0.8c-0.1-0.2-0.2-0.3-0.3-0.3c-0.1,0-0.1,0-0.2-0.1
							l-0.1-0.1c-0.1,0-0.2-0.1-0.2-0.1c0-0.1,0-0.2,0.1-0.3c0,0-0.1-0.5-0.8-0.3c0.5-0.1,0.4-0.5,0.9-0.7c-0.2,0-0.6,0-0.7-0.2
							c-0.2-0.2-0.3-0.5,0-0.7l0.1,0c0.1-0.3,0-0.6-0.1-1c-0.1-0.3-0.2-0.6-0.3-1c-0.1-0.3-0.2-0.7-0.2-1c0-0.4,0-0.7,0.2-1.1
							c-0.6,0-0.2-0.8-1-0.7c-0.3-0.9,0.2-1.7,0.5-2.4c0.3-0.6,0.4-1.2-0.7-1.7c0-0.9,0.7-0.9,0.9-1.3l0.1,0.2
							c0.2-1.6,0.3-2.1,0.6-3.2c-0.1-0.6-1-1-0.5-2c0.3,0.5,0.4,0,0.5-0.4c0,0.3,0.1,0.4,0.5,0c-0.1-0.1-0.1-0.2-0.2-0.4
							c0,0,0.1,0,0.1,0c0.1-0.7-0.1-0.6-0.3-0.3c-0.1,0-0.1,0-0.3,0c0.7-0.5,0.6-1.9,1.3-1.8c0.5-2,0.3-3.6,0.7-5.4
							c0.4,0,0.6,0.4,0.5,1l0.3-1.2c0.5,0.2,0,0.8,0,1.2c1.3-1,0.3-3.1,1.7-4.4l-0.3-0.5l0.1-0.1c-0.2-0.1-0.3-0.6-0.3-0.8
							c0.5,0,1,0.4,1.3-0.3c0.7-0.4,0.6-1.8,0.7-2.7c-0.3,0.4-0.4,0.1-0.5-0.1c0.2-0.4,0.7-0.4,0.7-0.8l0.6,0.2
							c-0.6-0.1-0.1-1.3-0.3-1.5c0.5,0,0.1,0.8,0.3,1c0.7-1.5,0.3-0.8,1-2.3c0-1-0.6-0.1-0.9-0.8c0.3-0.8,0.3-1.7,1.1-2.2l-0.6,0
							c0.4-1.5,1-2.3,2-2.6c0.2-0.7,0.4-1.3,0.7-1.8c0.1-0.3,0.3-0.5,0.6-0.6c0.1-0.1,0.3-0.1,0.4-0.2c0.1,0,0.3-0.1,0.5,0
							c0.7,0.1,1.1,0.4,1.5,0.6c0.4,0.2,0.7,0.5,1,0.6c0.6,0.4,0.9,0.4,1.2,0.3c0.3-0.1,0.6-0.3,0.7-0.5c0.1-0.2,0.1-0.4,0.1-0.7
							c0-0.1,0-0.3,0-0.4c0-0.2,0-0.3-0.1-0.5c0-0.2-0.1-0.3-0.1-0.5c-0.1-0.2-0.2-0.4-0.3-0.7l-0.2-0.3c-0.1-0.1-0.2-0.3-0.3-0.4
							c-0.2-0.3-0.4-0.5-0.7-0.7c-0.6-0.5-1.3-1-2.2-1.2c-0.8-0.3-1.5-0.3-2.1-0.3c-1,0.1-1.6,0.3-1.6,0.3c-1,0.3-1.7,0.7-2.2,1
							c-0.5,0.3-0.9,0.6-1.2,0.9c-0.6,0.6-1.1,1.1-1.5,1.6c-0.8,1-1.2,1.9-1.6,2.9C151.6,96.4,151.1,98.4,150.1,101z"/>
					</g>
				</g>
			</g>
		</g>
	</g>
	<g>
		<g>
			<g>
				<g>
					<g>
						<path class="st0" d="M189.8,118.4l-0.3,0.3C189.6,118.7,189.7,118.7,189.8,118.4z"/>
						<path class="st0" d="M219.5,118.3C219.6,118.3,219.6,118.4,219.5,118.3C219.6,118.3,219.6,118.3,219.5,118.3z"/>
						<path class="st0" d="M180.3,136.6C180.3,136.6,180.3,136.5,180.3,136.6c0-0.1-0.1-0.1-0.1-0.2L180.3,136.6z"/>
						<path class="st0" d="M184.3,111.6c-0.5,1.3-0.9,2.4-1.3,3.4c-0.4,1-0.8,1.8-1.1,2.7c-0.3,0.9-0.7,1.8-1,2.8
							c-0.3,1.1-0.5,2.3-0.7,3.9c-0.3,1.5-0.4,3.1-0.5,4.7c0,0.1,0,0.3,0,0.4l0,0.5l0,1c0,0.7,0.1,1.3,0.1,2c0,1.3,0.3,2.5,0.5,3.6
							c0.3,0.4,0.5,1,0.6,1.6c0.1,0.3,0.2,0.6,0.3,1c0.1,0.3,0.2,0.7,0.3,1c0.2,0.7,0.4,1.4,0.6,2c0.2,0.6,0.5,1.2,0.8,1.6l0,1.5
							c0.1,0.2,0.3,0.3,0.4,0.5c0.5-0.2,1.2-0.5,1.6-0.5l-0.1,0.2c1.3-0.9,2.3-1.1,2.9-1.5l-0.1,0.2l1.2-0.6l-0.2,0.3
							c1.8-1.2,3.6-2.5,5.3-3.7l-0.3-0.5c1.7-1.1,2.9-2.5,3.7-3.5c0.5-0.8,1-1.5,2.1-2.2l0.1,0.1c0.4-1.7,1.3-2.5,2.3-3.4
							c1-0.8,1.9-1.7,2.2-3.4c-0.1,0.4,0.3,0,0.4,0.1c0.7-1.3,1.5-2.7,0.5-3.3c0.6-0.9,0.8-0.5,1.2-0.4c-0.4-0.3-0.1-1.2,0.3-1.9
							l0,0.4l1.1-2.1l-1-0.1c0.9-0.9,1.1,0.3,1.6-0.8l-0.7-0.4c1-1.4,2.6-1.7,3.9-2.8c3.8-5.8,5.5-13.5,9.8-18.2l0.6,0.1
							c0.8,0.3-0.2-2.1,0.4-1.5l0,0l-0.3-0.2l-0.6-0.5c-0.5-0.4-0.7-0.5-1-0.8c-0.1-0.1-0.3-0.3-0.4-0.4l-0.1-0.1l-0.1-0.1
							c0,0-0.1-0.1-0.1-0.1c-0.1-0.1-0.1-0.2-0.2-0.3c0,0-0.1-0.1,0-0.1l-3.5-0.7c0,0.1,0,0.2,0.1,0.3c-0.2,0.2-0.4,0.6-0.6,0.2
							c-0.2,0.7,0,0.7,0.1,1.3l-0.7,0.6c-0.9,2.7-0.2,5.2-0.8,8c-1.6,3.3-1.2,10.1-0.7,13.9c0.6,2.7,0,5.6-0.2,8.7
							c-0.1,1.6-0.1,3.2,0.1,4.8c0.3,1.6,0.9,3.3,2,4.8c0,0.3,0.6,0.7,0.7,0.6c0.3,0.5,0.7,1,1.1,1.6c0.2,0.2,0.5,0.5,0.7,0.7
							c0.3,0.2,0.5,0.4,0.8,0.6c1.1,0.8,2.4,1.3,3.8,1.5c0,0,0.2,0,0.4,0.1c0.3,0,0.7,0,1.2,0c1.1-0.1,2.4-0.3,3.6-0.8
							c2.4-1,4.6-2.7,5.9-4.3c1.3-1.6,1.8-2.9,1-3.4c-0.4-0.3-1.2-0.3-2.5-0.1c-1.2,0.1-3,0.6-5.1,0.7l0-0.2
							c-1.1,0.4-1.9,0.5-2.4,0.7c-0.1,0-0.2,0.1-0.4,0.1c-0.1,0-0.2,0.1-0.2,0.2c-0.2,0.2-0.4,0.3-0.6,0.5c0.1-0.6-0.1-0.7-0.3-0.7
							c-0.2,0-0.5-0.1-0.5-0.3l0.1-0.1c-0.3,0.1-0.4,0-0.5-0.2c-0.1-0.2-0.2-0.5-0.2-0.8c-0.1-0.6-0.1-1.2-0.7-1.7
							c0.1,0,0.4,0,0.5,0.2c-0.4-0.8-1-2.1-0.3-2.3c-0.6-2.3-0.5-5.9-1.6-7.5l0.2,0.1c-0.7-1-0.1-1.2-0.5-2.3
							c0.1-0.1,0.1-0.1,0.2-0.1c-0.7-1.1,0-3.1-0.2-4l0.4,0l0-2.1l-0.2,0.8c-1.2-0.4,0.9-1.5,0.2-3.1c0.3-1.4-2.2-3.2-1.4-4.7
							c-0.5-0.8,0.8,0.7,0.5-0.4c0.6,0,0.3,0.6,0.9,0.3c-0.2-1.1,0.9-1.6,0.6-3l0.5,0c-0.7-1.8,1.1-3.1,0.5-4.3
							c-0.1-1.8,1.6-0.9,1-2.9l0.8-0.6c0-0.1,0-0.1,0-0.1l0.3-2.9l-2.3-1.3c-0.8-0.5-2.2-0.6-3.1-0.3c-0.6,0.2-0.5,0.2-0.6,0.3
							c-0.1,0.1-0.2,0.1-0.3,0.2c-0.2,0.1-0.3,0.2-0.5,0.4l-0.2,0.2l-0.1,0.1c-0.1,0.2-0.3,0.3-0.3,0.5c-0.1,0.2-0.1,0.4-0.1,0.5
							c0,0.3-0.1,0.6-0.4,0.9c-0.3-0.3-0.9,0.9-1,0.2c-1.7,1.6-1.2,4.1-3.4,5.9c0.5,0.9-0.6,1.8-0.3,2.5c-0.3-0.1-1.3,2.3-1.3,0.6
							c0-0.1,0.1-0.3,0.2-0.3l-0.3-0.4c-1.5,0.9-0.8,2.6-1.7,3.8c0.4-0.3,0.6-0.8,0.7-0.3l-0.7,1.2l-0.2-0.4l-1.2,1.6l0.6,0
							c-0.7,0.7-1.6,0.6-1.6,1.9c0.1,0.6,1.1-0.5,0.7,0.5c-1,1-2.4,2.4-3.4,3.8c0.6,0.2,0.3,0.5,0.2,1l-0.5-0.2
							c-0.3,1.9-1.3,0-1.7,1.8l-0.2-0.3l0.6,0.9c0,1.9-1.3,0.2-1.1,2.4c0.3-0.6,1.1,0.3,0.5,0.9l-0.3-0.4c-0.2,0.5-0.1,0.7-0.3,0.9
							c-0.1-0.4-0.5-0.5-0.8,0.1l-0.2-0.7l0,1.6c-1,0.6-1.4,2.2-2.2,2.2c0,0-1.5,1.6-1.2,2.4c-0.1-0.6-1,0.2-1.2-0.4
							c0.1,0.8-0.6,2.3-1.4,2.5l0-0.1c-1,0.8-1.5,1.6-2,2.5c-0.2,0.3-0.1,0.3-0.1,0.3c0,0.1,0,0.1-0.1,0.2c-0.1,0.1-0.2,0.1-0.3,0
							c0.2,0.6-0.1,0.4,0.2,1.2c-0.2,0.7-0.6,0.5-0.8,0.4c-0.2-0.1-0.3-0.1-1,2c-0.3,0.2-0.3,0.1-0.3-0.2c0-0.1,0-0.3,0-0.4
							c0-0.1,0.1-0.3,0.1-0.4l0.1-0.1c0,0,0,0-0.1,0c-0.2-0.2-0.3-0.3-0.3-0.5c-0.1-0.2-0.1-0.4-0.1-0.7c-0.3,0-1.3,0.9-1.1-0.1
							c0.4-0.1,0.3-0.3,0.3-0.5c0.1,0.1,0.2,0,0.5-0.4c-0.1,0-0.2,0-0.3,0c0,0,0.1,0,0.1-0.1c-0.2-0.3-0.3-0.2-0.3,0
							c-0.1,0-0.2,0.1-0.3,0.2c0.3-0.4,0.3-0.6,0.3-0.9c0-0.3,0.1-0.5,0.4-0.5c0-0.1,0-0.5,0-0.7c0-0.3,0-0.5,0-0.8
							c0-0.5-0.1-1-0.2-1.5c-0.1-1-0.2-2-0.1-3c0.4-0.2,0.6,0.4,0.7,1c0-0.5,0.1-0.9,0.1-1.4c0.5,0.1,0.1,0.9,0.2,1.3
							c1.2-1.5-0.1-3.6,1.1-5.4l-0.3-0.5l0.1-0.1c-0.2-0.1-0.4-0.6-0.4-0.9c0.5-0.2,1,0.3,1.3-0.7c0.6-0.6,0.4-2.2,0.5-3.3
							c-0.2,0.5-0.4,0.3-0.5,0c0.1-0.5,0.7-0.6,0.6-1.1l0.6,0.1c-0.6,0-0.2-1.5-0.4-1.7c0.5-0.1,0.2,0.9,0.5,1.1c0.5-2,0.3-1,0.8-3
							c-0.1-1.2-0.6,0-1-0.6c0.2-1,0-2,0.7-3l-0.6,0.2c0.1-1.9,0.5-2.9,1.3-3.9c-0.1-1.8-0.3-3.2-0.6-4.3c-0.3-1.1-0.6-1.8-0.9-2.3
							c-0.6-1-1.3-1-1.8-0.6c-0.6,0.4-1.1,1.1-1.4,1.8c-0.4,0.6-0.6,1.2-0.6,1.2C185,102.3,185.7,105.3,184.3,111.6z"/>
					</g>
				</g>
			</g>
		</g>
	</g>
	<g>
		<g>
			<g>
				<g>
					<g>
						<path class="st0" d="M256.5,62.9l-0.3,0.3C256.3,63.2,256.4,63.1,256.5,62.9z"/>
						<path class="st0" d="M244.6,146.4C244.6,146.4,244.6,146.4,244.6,146.4C244.6,146.4,244.6,146.4,244.6,146.4z"/>
						<path class="st0" d="M245.9,74.4L245.9,74.4c0-0.1,0-0.1,0-0.1L245.9,74.4z"/>
						<path class="st0" d="M250.9,56.7c-0.9,2.3-1.7,3.7-2.3,5.2c-0.7,1.5-1.2,3-1.5,5.5c-0.6,2.3-0.9,4.9-1.1,7.1
							c0.6,1.2-0.5,3,0,4.4l-0.6,0.4c0.2,0.5,0.2,1-0.1,1.4l-0.1,0c0.3,0.7-0.1,1.4,0.1,1.8l-0.1,0l-0.1,0.8l-0.2-0.2
							c0.2,1.2,0.1,2.4-0.3,3.4l0.6,0c-1,2.1,0.1,3.1-0.9,5l-0.1,0c1.2,2.7-1.6,3.8-0.5,6.6c-0.1-0.3-0.3,0.1-0.5,0
							c0,1.2-0.1,2.5,1,2.6c-0.1,0.8-0.5,0.6-0.9,0.7c0.5,0.1,0.6,0.8,0.5,1.5l-0.1-0.3l-0.2,1.9l1-0.2c-0.5,0.9-1.2,0-1.1,1
							l0.8,0.2c-0.5,1.3-1.8,1.8-2.7,3c-1.7,5.5-1.3,12.1-3.6,17.2l-0.6,0.1c-0.9,0,1,1.7,0.2,1.8l0.3,0.7c-0.2,0.2-0.4,0.5-0.5,0.2
							c-0.1,0.6,0,0.6,0.2,1.1l-0.6,0.6c-0.7,2.3,0.1,4.4-0.3,7c-0.6,1.5-0.7,3.8-0.2,6.3c0.5,2.4,1.7,5.1,3.4,6.9
							c0.3,0.3,0.7,0.6,1,0.8l1.1,0.7c0.7,0.5,1.5,0.9,2.4,1.2c1.7,0.6,3.6,0.8,5.2,0.7c3.3-0.3,6-1.4,7.6-3.4
							c0.2,0,0.4-0.5,0.3-0.5c1.2-0.8,2.4-1.7,3.5-2.6c0,0,1-0.8,2.2-2c1.2-1.2,2.6-2.7,3.4-4c0.8-1.3,1.2-2.4,0.4-3
							c-0.8-0.6-2.9-0.5-6.9,0.7l-0.1-0.2c-1.9,1.2-3,2-3.6,3.6c-0.9-0.7-1.4,1-2.1,1l0-0.1c-0.5,1.5-2.5,0.9-3.1,2.2
							c0-0.1-0.1-0.4,0.1-0.5c-0.6,0.6-1.5,1.3-1.8,0.7c-0.8,0.5-1.7,0.8-2.4,0.9c-0.7,0.1-0.9,0.3-1.4,0.6l0.1-0.2
							c-0.3,0.3-0.4,0.2-0.5,0.1c-0.1-0.1-0.2-0.2-0.5-0.2c0-0.1,0.1-0.1,0.1-0.2c-0.2,0-0.3,0-0.5-0.1c-0.1-0.1-0.2-0.3-0.3-0.5
							c-0.2-0.4-0.3-0.8-0.5-1l0.4-0.2c-0.2-0.4-0.3-0.9-0.5-1.3l0,0.6c-0.6,0-0.5-0.3-0.3-0.7c0.2-0.5,0.4-1-0.1-1.5
							c0-0.5-0.6-1.1-1.2-1.7c-0.6-0.6-1.1-1.2-0.8-1.8c-0.6-0.6,0.9,0.5,0.5-0.4c0.6,0,0.4,0.4,0.9,0.2c-0.3-0.9,0.7-1.4,0.3-2.4
							l0.5,0c-0.8-1.5,0.9-2.5,0.2-3.5c-0.2-1.5,1.6-0.8,0.8-2.4l0.8-0.5c0.2-0.6-0.7-0.6-0.3-1.2c0.4,0.1,0.5-0.8,0.8-0.4
							c0.9-1.5-0.3-3.4,1.2-5.3c-0.7-0.6,0-1.6-0.5-2.1c0.4,0,0.5-2.1,1-0.8c0,0.1,0,0.3-0.1,0.3l0.4,0.3c1.2-1,0-2.3,0.4-3.5
							c-0.2,0.3-0.3,0.8-0.6,0.4l0.3-1.1l0.3,0.3l0.6-1.6l-0.6,0.1c0.5-0.7,1.4-0.8,0.9-1.9c-0.3-0.5-0.9,0.6-0.8-0.3
							c0.6-1,1.5-2.5,2-3.9c-0.6,0-0.5-0.4-0.5-0.8l0.5,0.1c-0.2-0.8,0.1-1,0.5-1c0.3-0.1,0.7-0.2,0.6-1.1c0.1,0.1,0.2,0.1,0.3,0.2
							c-0.3-0.2-0.6-0.4-0.9-0.6c-0.7-1.6,1.2-0.6,0.1-2.4c0,0.6-1.1,0.1-0.8-0.6l0.4,0.3c0-0.4-0.2-0.6-0.1-0.9
							c0.2,0.3,0.7,0.2,0.7-0.4l0.5,0.5l-0.7-1.3c0.6-0.8,0.2-2.3,0.9-2.5c0,0,0.6-1.8-0.1-2.4c0.4,0.4,0.7-0.6,1.2-0.2
							c-0.4-0.6-0.7-2,0-2.5l0,0.1c0.9-2-0.3-3.7,0.7-5.5c-0.6,0-0.1-0.9-0.9-0.8c-0.4-2.1,2-3.3-0.1-4.4c0-0.9,0.7-1,0.9-1.4
							l0.1,0.2c0.1-1.7,0.1-2.2,0.4-3.4c-0.1-0.6-1.1-0.9-0.7-2c0.4,0.4,0.4,0,0.4-0.4c0,0.3,0.2,0.4,0.5-0.1
							c-0.1-0.1-0.2-0.2-0.2-0.4c0,0,0.1,0,0.1,0c0-0.7-0.2-0.6-0.3-0.3c-0.1,0-0.1,0-0.3,0.1c0.7-0.6,0.3-2,1.1-1.9
							c0.2-2.1-0.2-3.7-0.1-5.4c0.4-0.1,0.6,0.4,0.7,0.9l0.1-1.2c0.5,0.1,0.1,0.8,0.2,1.1c1.2-1.2-0.2-3.1,1.1-4.5l-0.3-0.5l0.1-0.1
							c-0.2-0.1-0.4-0.5-0.4-0.8c0.5-0.1,1,0.3,1.2-0.5c0.6-0.5,0.3-1.8,0.3-2.7c-0.2,0.4-0.4,0.2-0.5,0c0.1-0.4,0.6-0.5,0.6-0.8
							l0.6,0.2c-0.6,0-0.3-1.2-0.4-1.5c0.5-0.1,0.2,0.7,0.5,1c0.5-1.6,0.3-0.8,0.8-2.3c-0.1-1-0.6-0.1-1-0.7
							c0.2-0.8,0.1-1.7,0.8-2.3l-0.6,0c0.1-0.8,0.3-1.4,0.6-1.8c0.3-0.5,0.6-0.8,1.2-1.1c0.4-2.9,0.9-4.8,1-5.9
							c0.1-1.2-0.4-1.6-1.1-1.7c-0.7,0-1.7,0.4-2.4,0.9c-0.4,0.2-0.7,0.5-0.9,0.7c-0.2,0.2-0.3,0.3-0.3,0.3c-2.2,1.9-3,3.8-3.6,5.7
							C251.9,51.8,251.5,53.9,250.9,56.7z"/>
					</g>
				</g>
			</g>
		</g>
	</g>
	<g>
		<g>
			<g>
				<g>
					<g>
						<path class="st0" d="M241.4,74.1l0.2,0.2C241.6,74.2,241.5,74.1,241.4,74.1z"/>
						<path class="st0" d="M277.8,70.1C277.8,70.1,277.9,70.1,277.8,70.1C277.8,70.1,277.8,70.1,277.8,70.1z"/>
						<path class="st0" d="M247.8,81.3L247.8,81.3C247.8,81.3,247.8,81.4,247.8,81.3L247.8,81.3z"/>
						<path class="st0" d="M240.4,81.5c2,0.1,2.6,1.1,4.5,0.5c1,0,2-0.4,2.9-0.6c0.4-0.9,1.2-0.1,1.7-0.9l0.3,0.5
							c0.2-0.3,0.3-0.4,0.6-0.2l0,0.1c0.2-0.4,0.6-0.2,0.7-0.4l0,0.1l0.3-0.1l0,0.2c0.4-0.4,0.9-0.5,1.4-0.4l-0.1-0.6
							c1,0.5,1.2-0.7,2.1,0l0,0.1c0.9-1.6,1.8,0.9,2.7-0.7c-0.1,0.2,0.1,0.3,0.1,0.4c0.5-0.2,1-0.4,0.9-1.5c0.4,0,0.3,0.3,0.4,0.8
							c-0.1-0.5,0.2-0.7,0.5-0.8l-0.1,0.2l0.8-0.3l-0.3-0.9c0.5,0.2,0.2,1.1,0.6,0.9l-0.1-0.8c0.6,0.1,1.1,1.2,1.7,1.7
							c2.4,0.1,4.7-2.2,7.1-1.1l0.2,0.6c0.1,0.8,0.5-1.3,0.6-0.5l0.2-0.4c0.1,0.1,0.3,0.3,0.1,0.5c0.2,0,0.2-0.1,0.4-0.4l0.3,0.5
							c1,0.3,1.7-0.8,2.7-0.7c1.3,1,3.4-0.3,4.6-1c1.7-1.5,4.1,1.8,5.8,0.1c0.1,0.1,0.2-0.2,0.2-0.3l1.7,0c0,0,2-0.1,3.3-1
							c1.2-0.9,1.6-2.6-1.8-5.9l0-0.2c-1-0.4-1.6-0.4-2.1,0.6c-0.2-1.1-0.8-0.1-1-0.4l0-0.1c-0.5,0.9-1.2-0.6-1.7,0.2
							c0-0.1,0-0.4,0.1-0.4c-0.4,0.2-0.9,0.5-1-0.2c-0.9,0.3-2.3,0.1-2.8,1.2l0-0.2c-0.3,0.8-0.4,0.2-0.8,0.6c0-0.1-0.1-0.1-0.1-0.2
							c-0.3,0.7-1.1,0.2-1.4,0.5l-0.1-0.4l-0.7,0.2l0.3,0.1c0,1.2-0.6-0.7-1.1,0.1c-0.5-0.1-0.8,2.6-1.4,2.1
							c-0.2,0.6,0.1-0.9-0.2-0.5c-0.1-0.6,0.1-0.4,0-0.9c-0.3,0.3-0.7-0.6-1.1-0.1l-0.1-0.5c-0.5,1-1.2-0.5-1.5,0.4
							c-0.6,0.5-0.6-1.4-1.1-0.4l-0.3-0.6c-0.3-0.1-0.1,0.8-0.4,0.5c0-0.4-0.4-0.3-0.3-0.7c-0.8-0.6-1.3,1.1-2.3,0.1
							c-0.1,0.8-0.6,0.4-0.7,1c-0.1-0.4-0.9,0-0.5-0.8c0-0.1,0.1-0.1,0.1,0.1l0-0.5c-0.6-0.9-0.9,0.6-1.4,0.5
							c0.2,0.1,0.4,0.1,0.3,0.4l-0.5,0l0.1-0.4l-0.7-0.2l0.2,0.5c-0.4-0.2-0.6-1.1-0.9-0.3c-0.1,0.4,0.4,0.6,0.1,0.8
							c-0.5-0.3-1.3-0.7-1.9-0.8c0.1,0.6,0,0.6-0.2,0.7l-0.1-0.5c-0.6,0.8-0.4-1.1-0.9-0.4l0-0.4l0,1.1c-0.5,1-0.4-1-0.9,0.4
							c0.2-0.1,0.2,1.1-0.1,0.9l0-0.5c-0.2,0.1-0.2,0.3-0.3,0.2c0.1-0.3,0-0.7-0.3-0.6l0.1-0.6l-0.4,0.9c-0.4-0.5-0.9,0.2-1.1-0.4
							c0,0-0.8-0.2-0.9,0.5c0.1-0.5-0.3-0.6-0.3-1.2c-0.1,0.5-0.7,1-1,0.5l0-0.1c-0.9-0.5-1.4,0.9-2.3,0.3c0.1,0.6-0.4,0.3-0.2,1
							c-0.7,0.8-1.6-1.3-1.7,1c-0.4,0.2-0.5-0.5-0.7-0.6l0.1-0.1c-0.7,0.3-0.9,0.3-1.4,0.3c-0.2,0.2-0.2,1.3-0.6,1.1
							c0.1-0.4-0.1-0.3-0.2-0.3c0.1-0.1,0.1-0.2-0.1-0.5c0,0.1-0.1,0.2-0.1,0.3c0,0,0-0.1,0-0.1c-0.3,0.2-0.2,0.3-0.1,0.3
							c0,0.1,0,0.1,0.1,0.3c-0.4-0.5-0.8,0.1-0.9-0.6c-0.8,0.3-1.4,1.1-2.1,1.4c-0.1-0.4,0-0.7,0.2-0.9l-0.5,0.2
							c-0.1-0.5,0.3-0.3,0.4-0.5c-0.7-0.8-1.2,1-2,0.3l-0.1,0.4l0-0.1c0,0.2-0.1,0.5-0.2,0.6c-0.1-0.5-0.1-1.1-0.5-1
							c-0.3-0.4-0.8,0.3-1.1,0.6c0.2,0.1,0.2,0.3,0.1,0.5c-0.2,0-0.3-0.4-0.4-0.2l-0.1-0.6c0.1,0.6-0.4,0.7-0.4,0.9
							c-0.1-0.5,0.2-0.4,0.2-0.8c-0.7,0.1-0.4,0.1-1.1,0.2c-0.3,0.5,0.1,0.6,0,1.2c-0.3,0.2-0.6,0.6-1,0.3l0.2,0.5
							c-0.6,0.5-1,0.5-1.4-0.1c-4.2,5-0.4,6.3-0.4,6.3C237.5,83.8,238.3,82.1,240.4,81.5z"/>
					</g>
				</g>
			</g>
		</g>
	</g>
	<g>
		<g>
			<g>
				<g>
					<g>
						<path class="st0" d="M357.6,103.9l0.5-0.9C358.1,103,357.9,103.2,357.6,103.9z"/>
						<path class="st0" d="M432.6,63.2c0,0.1,0,0.2,0,0.3C432.7,63.3,432.7,63.2,432.6,63.2z"/>
						<path class="st0" d="M377.7,68.3C377.7,68.4,377.7,68.4,377.7,68.3c0,0.1,0,0.2-0.1,0.3L377.7,68.3z"/>
						<path class="st0" d="M360.6,118.1c2.2-6.5,4-10.6,5.6-14.7c0.8-2.1,1.6-4.2,2.5-6.7c0.4-1.2,0.9-2.6,1.3-4.1
							c0.2-0.7,0.4-1.5,0.7-2.3c0.2-0.8,0.4-1.6,0.7-2.5c2-6.4,4.1-13.3,6.4-19.4c0.3-3.2,3.3-8,4.1-11.7l1-1.1
							c0.3-1.3,0.8-2.7,1.6-3.8l0.1,0.1c0.5-1.9,1.6-3.7,1.9-4.7l0.1,0.1l1-2.1l0,0.4c0.6-1.6,1.2-3.1,2-4.6
							c0.7-1.5,1.5-2.9,2.3-4.2l-0.6-0.1c1.8-2.7,2.8-4.7,3.7-6.7c0.1-0.3,0.2-0.5,0.3-0.8c0.1-0.2,0.2-0.5,0.4-0.7
							c0.1-0.2,0.3-0.5,0.4-0.7c0.1-0.1,0.3-0.2,0.4-0.2l0,0.2c0.1-0.8,0.4-1.6,0.6-2c0.1-0.2,0.2-0.3,0.3-0.4
							c0-0.1,0.1-0.1,0.1-0.1c0,0,0.1-0.1,0.1,0.1c0.2,0.5,0.3,1,0.4,1.5c0,0.5,0.1,0.8,0.1,1c0.1,0.2,0.2,0.4,0.5,0.6
							c-0.2-0.1-0.3,0.3-0.5,0.4c0,0.2,0.1,0.4,0.1,0.6c0,0.2,0,0.3,0,0.5l0,0.1l0,0.3c0,0.2,0,0.4,0,0.5c0.1,1.4,0.2,2.3,0.8,2.4
							c-0.3,2.5-0.6,2-1.1,2.3c0.5,0.1,0.4,2.3,0.1,4.3l-0.1-0.9l-0.7,5.8l1.1-1c-0.7,3.1-1.3,0.6-1.4,3.7l0.8,0
							c-0.2,1.2-0.3,2.2-0.5,3.2c-0.1,0.6-0.2,1.2-0.3,1.7c-0.1,0.6-0.2,1.2-0.2,1.7c-0.2,2.3-0.2,4.5,0.1,7.4
							c0.2,0.1,0.4,0.2,0.7,0.3c0.3,0,0.6,0.1,1,0.1l1.2,0l1.1-0.1c0.4,0,0.7,0,1.1-0.1l1.1-0.2c0.4-0.1,0.7-0.1,1.1-0.3l1.1-0.4
							c0.8-0.2,1.5-0.7,2.3-1.2c0.4-0.2,0.8-0.4,1.1-0.7l1.1-0.9c0.7-0.6,1.4-1.2,2.1-1.9l0.7-0.8l0.6-0.7c0.4-0.5,0.8-0.9,1.1-1.4
							c1.4-1.9,2.7-3.9,3.8-5.8c1.1-1.9,2.2-3.8,3.3-5.5c2.4-3.6,4.8-7.3,7.3-10.6c1.2-1.7,2.5-3.3,3.8-4.9c0.3-0.4,0.7-0.8,1-1.1
							c0.3-0.3,0.8-0.9,0.8-0.9c0.3-0.2,0.5-0.4,0.8-0.6c0.1,0.2,0.2,0.3,0.3,0.5c0.2,0.5,0.1,0,0.3-0.7c0.2-0.7,0.6-1.7,0.5-1
							c0.2-0.4,0.4-0.8,0.6-1.2c0.1,0.2,0.2,0.3-0.2,1c0.3-0.3,0.4-0.6,1-1.5c0,0,0,0,0,0c0,0.3-0.1,0.7-0.2,1.1c0,0,0,0,0.1,0
							c0,0,0,0,0,0l0,0.1l0,0.4c0,0.2,0,0.4,0.1,0.5c0,0.3,0.1,0.5,0.2,0.8c0,0.3,0.1,0.7,0,1.1c0,0.2-0.1,0.5-0.2,0.8
							c0,0.1-0.1,0.3-0.1,0.4c-0.1,0.2-0.2,0.4-0.2,0.6c-1.8,3.8-4.1,9.3-6.2,15.4c-0.5,1.5-1.1,3.1-1.4,4.8c-0.3,1.5-0.7,3-1,4.5
							c-0.6,2.9-1.1,5.6-1.6,7.9c-1.9,13-8.4,27.2-9.6,40.6c-0.2,0.4-0.2,1.6-0.1,1.6l-2.5,12c0,0-3,14.5-4.1,23.6
							c-0.6,4.6-0.7,7.8,0.4,7.3c1.1-0.5,3.5-4.9,7.5-15.6l0.1,0.3c1.8-6.5,2.7-10.6,2.7-15.3c1.3-0.5,1.2-5.4,1.9-6.8l0.1,0.2
							c-0.1-4.2,2.4-8.1,2.4-12.1c0.1,0.2,0.4,0.3,0.2,1.2c0.4-2.8,1-6.7,1.7-6.8c1.2-6.7,3.5-15.9,3.5-20.4l0.1,0.3
							c-0.1-2.6,0.6-3.2,0.9-5.9c0.1-0.1,0.2-0.3,0.2-0.3c-0.1-2.8,1.8-7.7,2.1-9.9l0.5,0l1.3-5.2c-0.2,0.5-0.4,1.3-0.6,1.9
							c-0.5-0.5-0.1-1.5,0.6-2.6c0.6-1.2,1.6-2.8,1.9-4.7c1.5-3.3,0.4-7.9,2.3-11.2c0.1-1.9,0.3,1.8,0.8-0.9
							c0.6,0.1-0.1,1.3,0.7,0.9c0.2-0.7,0.4-1.2,0.6-1.8c0.1-0.3,0.2-0.5,0.4-0.8l0.2-0.4l0.3-0.6c0.7-1.5,1.4-3.4,1.7-5.6l0.6-0.4
							c0.2-2.8,0.8-5.4,1-7.7c0.2-2.3,0-3.9-0.6-4.9c-0.3-0.8-0.4-1.5-0.6-2.2c-0.1-0.3-0.1-0.7-0.2-0.9c-0.1-0.1-0.1-0.2-0.2-0.3
							c-0.2-0.5-0.2-1.1-0.7-1.5c-0.6,0.5-1.4,1.3-2.4,2.5c-0.5,0.1-1,0.3-1.5,0.5c-1.1,0.9-1.5,1.6-2,2.3c-0.5,0.7-0.9,1.3-2,2.2
							c0.2-0.8-3,2.6-1.7,0.6c-0.7,0.6-1.5,1.4-2.2,2.1c-0.7,0.8-1.5,1.6-2.2,2.5c-0.7,0.9-1.5,1.8-2.1,2.7
							c-0.4,0.6-0.8,1.1-1.2,1.7c-1.6,2.3-3.2,4.7-5.6,7.1c-0.2,1.6-2.5,4-2.6,5.3c-0.4-0.1-3.9,5.3-2.4,1.9
							c0.1-0.3,0.5-0.7,0.6-0.6l-0.1-0.6c-1.5,1.3-2.3,2.6-3.2,4.4c-0.8,1.6-1.4,3.2-2.5,4.7c0.7-0.8,1.5-2.1,1.2-1.1
							c-0.6,0.9-1.3,1.9-1.9,2.8l0-0.8c-1,1.3-1.9,2.6-3,3.7l0.8-0.2c-1.5,1.6-3.2,2.1-2.8,2.7c0,0.3,0.1,0.4,0.3,0.4
							c0.2,0.1,0.3,0.1,0,0.5c-0.4,0.1-0.7,0.2-1.1,0.2c-0.2,0-0.3-0.1-0.4-0.1c-0.1,0-0.1-0.1-0.2-0.1c0,0-0.1,0-0.1-0.1l0-0.2
							c0-0.4,0.1-0.7,0.2-0.9c-0.6,0.5-0.6,0.2-0.7-0.1l0.5-0.2c-0.2-0.2-0.2-0.3-0.1-0.4c0.1-0.3,0.3-0.6,0.4-0.7
							c0.3-0.4,0.7-0.7,0.7-2.9l0.3,0.4l-0.9-1.3c-0.4-4.1,1.3-2,0.6-6.6c-0.2,1.8-1.2,0.7-0.7-1.5l0.4,0.6c0.1-1.2-0.1-1.7,0.1-2.5
							c0.2,0.8,0.7,0.5,0.8-1.4l0.4,1.3c-0.1-1.2-0.3-2.4-0.5-3.6c0.4-1.5,0.6-4.7,0.4-7.1c0-0.6-0.1-1.2-0.1-1.7
							c-0.1-0.5-0.1-1-0.2-1.5c-0.1-0.8-0.2-1.6-0.1-2.1c0,0-0.1-0.5-0.3-1.2c-0.1-0.4-0.3-0.7-0.4-1.2c-0.1-0.2-0.2-0.4-0.3-0.6
							c-0.1-0.2-0.2-0.4-0.3-0.6c-0.9-1.7-2.3-2.9-3-3c0.5,0.2,0.2-0.4-0.2-1c-0.4-0.6-0.9-1.4-0.4-1.3c-0.2-0.1-0.5-0.3-0.8-0.5
							c-0.2-0.1-0.3-0.1-0.4-0.2c-0.1,0-0.2-0.1-0.4-0.1c-0.5-0.1-1-0.3-1.6-0.5c-1.2,2.1-2.3,3.8-3,4.6l0.3-0.6
							c-0.8,1.1-1.5,2.3-2.2,3.4c-0.7,1.2-1.4,2.3-2,3.3c-1.2,2.1-2.2,4.1-3.2,6.1c-0.3,0.6-0.6,1.3-0.9,1.9
							c-0.3,0.6-0.6,1.2-0.9,1.8c-0.6,1.2-1.3,2.4-2.1,3.6c0.6,0-1.1,2.6-0.1,2.3c-2.1,5.6-6.3,9-5.1,12c-1.1,2.5-1.9,2.7-2.5,3.9
							l0.2-0.6c-1,2.3-1.6,3.9-2.2,5.2c-0.6,1.4-1.1,2.6-1.9,4.3c-0.5,1.8,0.3,2.5-1.1,5.5c0-1.2-0.4,0.1-0.9,1.3
							c0.2-0.8,0.2-1.1-0.7,0.4c0,0.3,0,0.6-0.1,1c0,0-0.1,0.1-0.1,0c-0.6,2-0.3,1.7,0,0.8c0,0.1,0.1,0,0.4-0.2
							c-0.6,0.9-1.2,2.4-1.6,3.6c-0.5,1.2-0.8,2.2-1.2,2.2c-1,3-1.6,5.7-2.1,8.2c-0.5,2.5-1,5-1.6,7.5c-0.5,0.4-0.5-0.8-0.2-2.3
							l-0.9,3.5c-0.5-0.2,0.3-2.1,0.5-3.2c-2,3.9-1.9,8.8-4.2,13.5l0.1,1.1l-0.2,0.3c0.2,0.1,0.1,1.3,0,2c-0.7,0.5-1-0.4-1.8,2
							c-1.1,1.8-1.6,5.5-2.1,8.2c0.5-1.3,0.6-0.8,0.6-0.2c-0.4,1.2-1,1.8-1.1,2.8l-0.6-0.1c0.7-0.3-0.4,3.4-0.2,3.9
							c-0.7,0.6,0.2-2-0.1-2.4c-0.7,2.5-0.9,3.1-1,3.7c-0.2,0.6-0.4,1.2-1,3.8c-0.2,2.8,0.7-0.3,0.9,1.1c-0.3,1.2-0.4,2.4-0.6,3.6
							c-0.2,1.2-0.5,2.5-0.9,3.8l0.7-0.8c-0.5,4.6-1,7.2-1.9,10.2c0.1,1.2,0,2.4,0.2,3.4c0.1,1.1,0.2,2.1,0.3,3
							c0.3,1.8,0.6,3.3,0.9,4.5l-1-0.5c1.9-1.9,2.4-3.5,2.6-4.4c0.2-1,0-1.3-0.5-1.2c-0.2,0-0.6,0.2-0.9,0.4
							c-0.3,0.2-0.7,0.4-1.1,0.6c-0.7,0.4-1.6,0.9-2.3,1.1l7.3,3.8c0.2-1.9,0.3-3.5,0.3-3.5c0.2-1.5,0.4-3,0.5-4.3
							c0.2-1.4,0.4-2.7,0.5-4c0.2-1.3,0.4-2.5,0.5-3.8c0.2-1.3,0.4-2.5,0.5-3.8C357.6,131.1,358.5,125.6,360.6,118.1z"/>
					</g>
				</g>
			</g>
		</g>
	</g>
	<g>
		<g>
			<g>
				<g>
					<g>
						<path class="st0" d="M468.8,102.3l0.5-0.2C469.1,102.1,469,102.1,468.8,102.3z"/>
						<path class="st0" d="M452.3,142.6C452.3,142.6,452.4,142.6,452.3,142.6C452.3,142.6,452.3,142.6,452.3,142.6z"/>
						<path class="st0" d="M483.5,86.9C483.5,87,483.5,87,483.5,86.9c0.1,0.1,0.1,0.2,0.1,0.2L483.5,86.9z"/>
						<path class="st0" d="M469.8,111.4c2.5-2.1,4.2-3.4,5.8-4.8c0.4-0.4,0.8-0.7,1.2-1.2c0.4-0.4,0.8-0.9,1.2-1.4
							c0.8-1,1.6-2.1,2.5-3.7c0.5-0.7,0.9-1.5,1.3-2.3c0.2-0.4,0.4-0.8,0.6-1.3c0.2-0.4,0.4-1,0.6-1.6c0.4-1.3,0.9-2.8,0.9-4.2
							c0.1-1.4-0.1-2.7-0.5-3.9c-0.7-1-1.5-2.4-2.9-3.5c-1.3-1.1-3-1.7-4.5-1.5c-0.3-0.2-0.6-0.4-1-0.6c-0.3,0-0.5,0.1-0.8,0.1
							c-0.3,0.1-0.6,0.1-0.8,0.1c-0.3,0-0.6,0.1-0.8,0c-0.3,0-0.4,0-0.7,0l0-0.1c-0.3,0.1-0.6,0.2-0.9,0.3c-0.3,0.1-0.5,0.1-0.7,0.2
							c-0.5,0.1-0.9,0.2-1.1,0.3l0-0.1l-1.1,0.3l0.1-0.2c-1.5,0.8-3.1,1.3-4.6,1.7l0.3,0.5c-0.8,0.1-1.5,0.3-2,0.6
							c-0.6,0.2-1,0.6-1.4,0.8c-0.9,0.6-1.8,1.1-3.1,1.5l0-0.1c-0.6,0.8-1.2,1.3-1.8,1.7c-0.6,0.4-1.3,0.7-1.9,1
							c-0.7,0.3-1.3,0.6-1.9,1.1c-0.6,0.5-1.1,1.1-1.6,2c0.2-0.4-0.3-0.1-0.4-0.2c-1.2,1.2-2.4,2.6-1.6,3.4c-0.9,0.8-1,0.4-1.4,0.2
							c0.4,0.3-0.2,1.2-0.8,1.9l0.1-0.5l-1.7,2.1l1.1,0.2c-1.1,0.9-1.1-0.5-1.8,0.7l0.6,0.5c-1.3,1.4-3,1.6-4.5,2.9
							c-2.5,3.2-4.1,7.2-5.3,11.1c-0.3,1-0.7,2-0.9,3c-0.2,1-0.5,2-0.8,3c-0.2,1-0.4,2-0.7,2.9c-0.3,1-0.5,1.9-0.7,2.9l-0.6,0.3
							c-0.9,0.1,1.1,2.2,0.4,2.5l0.4,0.9c-0.1,0.3-0.3,0.8-0.5,0.4c0,0.9,0.2,0.9,0.4,1.5c-0.2,0.3-0.3,0.7-0.4,1
							c0,0.9,0.1,1.7,0.4,2.5c0.3,0.8,0.5,1.6,0.9,2.4c0.4,0.8,0.8,1.6,1.3,2.3c0.5,0.8,1,1.6,1.6,2.4c0.3,0.6,0.6,1.2,1.1,1.8
							c0.5,0.6,1.1,1.2,1.8,1.7c0.3,0.3,0.7,0.5,1.1,0.7c0.4,0.2,0.8,0.4,1.2,0.6c0.8,0.4,1.7,0.6,2.5,0.9c3.5,0.8,6.7,0.3,8.9-0.2
							c3.1-0.9,6.3-1.1,9.6-1.6c3.3-0.5,6.6-1.2,9.1-3.1c0.2,0,0.6-0.4,0.5-0.5c1.7-0.7,3.4-1.5,5.1-2.3c0,0,1.5-0.7,3.4-1.8
							c1.9-1.1,4.1-2.6,5.7-4c1.6-1.4,2.4-2.7,1.6-3.3c-0.8-0.6-3.3-0.6-8.4,0.3l0-0.2c-2.7,1-4.3,1.7-5.7,3.5
							c-0.8-0.9-2.2,0.9-2.9,0.9l0-0.1c-1.2,1.6-3.5,0.8-4.8,2.1c0-0.1-0.1-0.4,0.3-0.6c-1.1,0.6-2.5,1.4-2.8,0.8
							c-1.3,0.6-2.9,1.1-4.4,1.6c-1.5,0.5-2.8,1-3.6,1.7l0.1-0.2c-0.9,0.9-1.3,0.4-2.3,0.9c-0.1-0.1-0.2-0.1-0.1-0.2
							c-1,0.9-3.1,0.3-4,0.6l0-0.4c-0.7,0-1.4,0-2-0.1c0.2,0.1,0.5,0.1,0.7,0.2c-0.2,0.6-0.6,0.4-1.1,0c-0.2-0.2-0.5-0.4-0.8-0.5
							c-0.3-0.1-0.6-0.2-1-0.1c-0.3-0.1-0.6-0.1-1-0.1c-0.4,0-0.9,0.2-1.3,0.2c-0.4,0-0.9,0.1-1.3,0c-0.4-0.1-0.7-0.4-0.9-0.7
							c-0.9-0.1,1.1-0.2,0-0.6c0.4-0.5,0.6,0,0.8-0.5c-0.4-0.2-0.5-0.7-0.7-1.1c-0.2-0.4-0.2-0.9-0.7-1.3l0.4-0.3
							c-0.4-0.2-0.6-0.6-0.7-0.9c-0.1-0.3-0.2-0.7-0.2-1c0-0.7,0-1.3-0.6-1.8c-0.3-0.8,0-1.2,0.2-1.5c0.2-0.3,0.5-0.6-0.1-1.5
							l0.6-0.7c0.1-0.7-0.9-0.5-0.5-1.4c0.4,0.1,0.4-1.1,0.8-0.5c0.2-0.5,0.3-0.9,0.2-1.4c0-0.2,0-0.5-0.1-0.7c0-0.3,0-0.5,0-0.8
							c0-0.5,0-1.1,0.1-1.6c0.1-0.3,0.1-0.6,0.3-0.8c0.1-0.3,0.3-0.6,0.6-0.8c-0.6-0.7,0.2-1.9-0.3-2.5c0.4,0,1-2.5,1.2-0.8
							c0,0.1-0.1,0.3-0.2,0.3l0.4,0.3c1.4-1,0.4-2.7,1.2-4c-0.3,0.3-0.5,0.9-0.7,0.4l0.7-1.2l0.2,0.4c0.4-0.6,0.7-1.2,1.1-1.7
							l-0.6,0c0.7-0.8,1.7-0.6,1.6-2c-0.1-0.7-1.1,0.5-0.7-0.5c0.5-0.5,1.2-1.1,1.8-1.7c0.7-0.6,1.3-1.3,1.9-1.9
							c-0.6-0.2-0.3-0.6-0.1-1l0.4,0.3c0.6-1.9,1.2,0.1,2-1.6l0.2,0.3l-0.5-1c0.4-1.9,1.3,0,1.6-2.2c-0.4,0.6-1.1-0.5-0.2-1l0.2,0.5
							c0.3-0.4,0.3-0.7,0.6-0.8c0,0.4,0.4,0.6,0.8,0l0.1,0.8l0.4-1.6c1.1-0.4,2-1.9,2.7-1.7c0,0,0.5-0.3,1-0.7c0.5-0.4,1-0.9,1-1.3
							c-0.1,0.6,1,0.1,1,0.7c0.1-0.4,0.4-0.9,0.8-1.3c0.4-0.4,1-0.7,1.4-0.6l-0.1,0.1c0.6-0.2,1.1-0.5,1.6-0.8
							c0.5-0.3,0.9-0.6,1.3-0.9c0.4-0.3,0.8-0.6,1.3-0.8c0.5-0.2,1-0.3,1.5-0.4c-0.3-0.5,0.9-0.6,0.4-1.2c1-0.8,2.2-0.7,3.1-0.7
							c0.9,0,1.5-0.2,1.7-1.4c0.4-0.1,0.7,0,0.9,0.1c0.1,0.2,0.2,0.3,0.3,0.4l-0.1,0.1c0.8-0.2,1.1-0.2,1.6,0.1
							c0.2,0,0.6-0.2,0.9-0.3c0.4-0.1,0.7,0,0.7,0.5c-0.5,0-0.3,0.2-0.3,0.5c-0.1-0.2-0.3-0.1-0.5,0.3c0.1,0,0.2,0,0.3,0.1
							c0,0-0.1,0-0.1,0c0.1,0.4,0.3,0.3,0.4,0.1c0.1,0,0.2,0,0.3-0.1c-0.3,0.3-0.4,0.6-0.5,0.9c-0.1,0.3-0.2,0.5-0.6,0.4
							c-0.1,0.3-0.2,0.8-0.3,1.3c-0.1,0.5-0.3,1-0.4,1.5c-0.3,1-0.6,2-1.1,3c-0.4,0-0.4-0.6-0.2-1.2c-0.2,0.4-0.5,0.9-0.7,1.3
							c-0.4-0.3,0.2-0.9,0.4-1.3c-1.7,1-1.4,3.6-3.5,4.7l0,0.6l-0.1,0c0.2,0.1,0.1,0.7-0.1,1c-0.6-0.1-0.8-0.7-1.5,0
							c-0.9,0.3-1.5,1.8-2.2,2.8c0.5-0.3,0.5,0,0.4,0.3c-0.4,0.4-0.9,0.2-1.1,0.6l-0.4-0.4c0.6,0.3-0.6,1.4-0.6,1.7
							c-0.5-0.2,0.4-0.8,0.3-1.2c-1.6,1.4-0.8,0.7-2.4,2c-0.6,1,0.5,0.4,0.4,1.1c-0.8,0.7-1.4,1.6-2.6,1.9l0.6,0.3
							c-1.4,1.3-2.6,1.8-4,1.6c-2.9,2.2-5.5,2.6-6.9,2.8c-0.8,0.1-1.1,0.3-1.3,0.6c-0.2,0.3-0.2,0.6,0,0.9c0.5,0.8,2,1.7,3.4,2.1
							c0.7,0.2,1.3,0.3,1.8,0.3c0.5,0,0.7,0.1,0.7,0.1c2.2,0.1,4-0.3,5.5-0.8c1.5-0.6,2.7-1.3,3.8-2.1
							C465.2,116,467.1,114,469.8,111.4z"/>
					</g>
				</g>
			</g>
		</g>
	</g>
</g>
</svg>
