<?xml version="1.0" encoding="utf-8"?>
<!-- Generator: Adobe Illustrator 23.0.1, SVG Export Plug-In . SVG Version: 6.00 Build 0)  -->
<svg version="1.1" id="Layer_1" xmlns="http://www.w3.org/2000/svg" xmlns:xlink="http://www.w3.org/1999/xlink" x="0px" y="0px"
	 viewBox="0 0 238.9 416.4" style="enable-background:new 0 0 238.9 416.4;" xml:space="preserve">
<style type="text/css">
	.st0{fill:none;stroke:#000000;stroke-width:2;stroke-miterlimit:10;}
	.st1{fill:none;stroke:#000000;stroke-miterlimit:10;}
	.st2{fill:none;stroke:#000000;stroke-width:3;stroke-miterlimit:10;}
</style>
<title>Avatar</title>
<g id="Wrinkles">
	<path class="st0" d="M137.5,233.7c9.4,8.7,11.7,13.6,11.7,17.3c0,7.9-8.7,11.3-8.7,11.3"/>
	<path class="st0" d="M99.9,206.4c-1.6,11.4-3.3,21.7-5.6,27.3c-3.5,8.7-11.8,12.4-13.8,16.5c-3.9,7.9-0.1,11.1,2.9,12.4
		c0.9,0.4,1.9,0,2.3-0.8c1-1.8,2.8-3.1,4.8-3.4c7.8-1.5,15.8,8.9,15.8,8.9c7,4.9,12.3,0,12.3,0c4.5-4.1,7.8-6.9,12.9-9.3
		c2.9-1.4,6.4-0.6,8.4,2"/>
	<path class="st0" d="M132.8,180.5c0,0-11.7,22,0,53.2"/>
</g>
<g id="Eyes">
	<path class="st1" d="M53.4,193.3c-0.8-0.4-1.2-1.4-0.7-2.3c0.1-0.2,0.3-0.4,0.5-0.6c2.8-2.3,8.6-6.1,15-6.1
		c8.8-0.1,14.9,2.3,17.8,5c0.2,0.2,0.5,0.4,0.8,0.4l1.5,0.4c0.9,0.3,1.4,1.2,1.1,2.1c-0.2,0.7-0.8,1.1-1.5,1.2
		c-1.4,0.1-2.7,0.1-4.1-0.1c-0.2,0-0.4,0-0.7,0c-1.8,0.4-10.3,2.3-16.7,3.1C61.4,197,56.2,194.8,53.4,193.3z"/>
	<path class="st1" d="M180.3,195.8c0.9-0.2,1.5-1.2,1.3-2.1c-0.1-0.4-0.4-0.8-0.7-1.1c-3.5-2.4-9.6-5.9-15.9-6.9
		c-5.7-0.9-11.5,0.5-16.2,3.7c-0.2,0.1-0.4,0.2-0.6,0.3c-0.5,0.1-1.1,0.3-1.6,0.5c-0.9,0.3-1.4,1.3-1.1,2.2c0.2,0.7,0.9,1.2,1.7,1.2
		c1,0,2.1-0.1,3.1-0.4c0.4-0.1,0.8-0.1,1.1,0.1c2.3,1,11.3,4.7,15.7,4.7C170.3,198.1,176.4,196.8,180.3,195.8z"/>
	<path class="st1" d="M61.1,186.6c0,0-2.9,3.7,1.4,9.2c0,0,2.8,1.5,15.3-1.7c0,0,3-2.7,0.6-8.6C78.3,185.4,68.9,182.2,61.1,186.6z"
		/>
	<path class="st1" d="M158.6,185.6c0,0-3.2,3-1.2,9.8c0,0,5.2,3.3,14,2.1c1.8-0.3,3.2-1.6,3.7-3.4c0,0,1.2-3.8-1.6-5.6
		S165.3,185.5,158.6,185.6z"/>
	<circle class="st0" cx="69.8" cy="189" r="1.8"/>
	<circle class="st0" cx="165" cy="190.4" r="1.8"/>
</g>
<g id="Hair">
	<g id="XMLID_1_">
		<g>
		</g>
		<g>
			<path class="st1" d="M78.4,310.2L78.4,310.2c1.2,1.4,2.6,2.6,4.2,3.5"/>
			<polyline class="st2" points="83.2,316.2 83.9,315.3 84,315.2 84.7,314.3 89.6,314.1 89.9,314.1 99.2,313.8 99.3,313.7 
				101.3,313.7 109.7,317 113.6,317.2 113.7,317.2 121.9,317.7 128.1,315.5 128.1,315.5 131.8,314.3 136.7,314.3 137.1,314.3 
				142.7,314.3 143.8,316.7 143.9,316.9 143.9,317.1 			"/>
			<path class="st2" d="M66.3,300.8c0.2,0,0.3-0.1,0.5-0.1c0.3,0,0.7,0,1,0c0.1,0.1,0.1,0.1,0.2,0.2c0.4,0.4,1.1,1,1.9,1.8
				c0,0,0,0,0,0c3,2.8,8.2,7.6,12.7,11.3c0.4,0.4,0.9,0.7,1.3,1.1c1.5,1.2,2.9,2.2,4,3c0.5,0.3,0.9,0.6,1.4,0.9
				c6.1,3.5,16.2,6.1,20.5,8c1.1,0.5,2.3,0.7,3.6,0.8c3.7,0.3,7.7-0.7,9.1-0.8c1.8-0.2,12.9-5.1,19.2-8.6c0.6-0.3,1.3-0.8,2.2-1.4
				c2.3-1.6,5.3-4.1,8.4-6.7c0.4-0.4,0.9-0.7,1.3-1.1c2.6-2.2,5.2-4.4,7.2-6.1c0.6-0.5,1.1-0.9,1.5-1.3c0.1,0,0.1-0.1,0.2-0.1
				c0,0.2-8.3,27-11.2,30.6c-3.7,4.7-17.6,13.5-23.9,13.9s-21.3,0.4-25.2-1.4C98.4,343,89,341.6,82.2,333
				c-5.9-7.5-14.3-26.8-16.2-31.5"/>
			<path class="st2" d="M66.3,300.5c2.6-0.6,20.3-4.2,28.1-4c9,0.2,8.4,1.6,19.4,1.8s10.8-2.7,21.7-1.8s21.6,2.1,26.8,5.4
				c-1.7,0.3-4.4,0.5-7.6,0.5c-5.1,0.1-11.3-0.1-16.4-0.2c-0.3,0-0.5,0-0.8,0c-3.9-0.1-7-0.2-8.3-0.1c-1.2,0.1-2.7,0.3-4.3,0.5
				c-2.7,0.4-5.7,1-8.1,1.4c-1,0.1-1.9,0.3-2.6,0.3c-0.1,0-0.2,0-0.3,0c-0.4,0-0.8-0.1-1.2-0.2c-2.5-0.8-5-1.4-7.6-1.8
				c-4.7-0.9-7-1.2-10.4-0.9c0,0-0.1,0-0.1,0c-1.8,0.1-4,0.4-7,0.7c-2.2,0.3-4.5,0.3-6.9,0.2c-0.1,0-0.2,0-0.3,0
				c-4.9-0.2-9.8-0.9-12.4-1.3c0,0-0.1,0-0.1,0c-0.5-0.1-0.9-0.1-1.2-0.2c-0.2,0-0.3-0.1-0.5-0.1"/>
			<path class="st2" d="M14.3,187.9c-2.5-1.2-5.8-2.2-7.8-0.7c-3.5,2.6-4.9,5.5-4.9,7.5c0.2,3.7,0.2,7.3,0,11
				c-0.4,5.1,1.2,11.3,2.7,15.6S5,245.5,5,245.5c0.6,6.6,2.6,12.9,6,18.6c4.6,7.6,6.4,11,9.7,11.5"/>
			<path class="st2" d="M212.4,277.7c3.6,0.6,7.2,0.1,9.2-3.4c4.5-8,8.2-14.1,8.6-18c0.4-3.9,1.8-25.2,3.7-32.9s3.5-24.4,3.5-24.4
				s0.6-6.4-9.4-7.4"/>
			<path class="st2" d="M20.8,226.8c0,0-0.5,25.4,0,48.7c0.4,16.8,1.2,32.5,3.1,36.8c4.5,10.2,42.2,87.1,55.2,93.3
				c13,6.1,42.8,12.2,57.3,6.6c18.8-7.4,32.3-22.5,45.4-45.4s27-49.5,28.6-65.5c0.5-5.3,1.3-14.2,2.1-23.6
				c1.5-18.3,3.1-38.8,3.2-39.7"/>
			<path class="st2" d="M216.1,71.4c0.5-1.3,21.3-49.6-40.1-59.3c0,0-27.8-20-59.3-7.4c0,0-43.4,14.3-68.3,36.8
				c0,0-19.6,20.9-17.6,34.8c-6.1,4.6-10.8,10.8-13.5,18c-4.1,11.4-3.7,57.7-3.7,57.7s-0.4,17.3,0.7,35.9c0.9,14.9,2.7,30.6,6.4,39
				c0,0,0.2-12.6,1.8-28c1.7-16.8,5.1-36.8,11.5-46.9c0,0-4.9-23.7,12.3-55.6c2.9-5.4,10.3-14.8,20.9-6.6S93.8,91,97,89
				s29.1-20.5,54.8-22.5s43,16,45,19.2c2,3.2,14.8,22.1,11.5,60.9c0,0,9,16.8,9,41c0,6-0.1,12.2-0.3,18.1c-0.4,17-1.3,31.3-1.4,32.2
				c0,0,0,0,0,0s12.4-31.1,12.4-45.8v-0.5v-72.3l2,6.6c0,0,2.9-22.5-4.9-34.8l-5.7-11.4c0,0,20.2-4.5,11.2-39.2"/>
			<path class="st2" d="M222.2,28.8c0,0,0,0.1,0.1,0.2c0,0.1,0.1,0.1,0.1,0.2c1.2,3,9.2,24.7-6.3,42.2c0,0,0,0,0,0"/>
			<path class="st2" d="M230.5,40.3c0,0,0,0.1,0,0.1c0.4,1.8,4.9,28-12.8,35.9c0,0,17.9-16.7,4.6-47.1"/>
		</g>
	</g>
	<path class="st2" d="M97.7,166.7c0,0-1.6-8.6-12.9-9.8s-21.5-2.9-37,1.6c0,0-13.5,3.9-14.1,10.6c-0.9,2.5-1.2,5.1-1,7.8
		c0.4,4.3,5.5-1,5.5-1s2.4-5.9,27-6.3s18.8,0.2,18.8,0.2S91.5,171.6,97.7,166.7z"/>
	<path class="st2" d="M140.3,164.8c-1-1-1.1-2.6-0.1-3.7c0.2-0.2,0.5-0.4,0.7-0.5c6.3-3.1,22.6-9.8,40.8-6.8
		c23.3,3.8,23.5,31,23.5,31s0.6,3.7-2.5,1.9s-9.4-18.4-25.6-19.9s-23.7,3.9-30.3,1.9C144.5,167.9,142.2,166.6,140.3,164.8z"/>
</g>
</svg>
