<svg id="Layer_1" data-name="Layer 1" xmlns="http://www.w3.org/2000/svg" xmlns:xlink="http://www.w3.org/1999/xlink" viewBox="0 0 600 300"><defs><style>.cls-1{fill:url(#linear-gradient);}.cls-2{fill:url(#linear-gradient-2);}.cls-3{fill:none;stroke:#e7e0d7;stroke-miterlimit:10;stroke-width:0.5px;}</style><linearGradient id="linear-gradient" x1="-35.01" y1="60.23" x2="598.9" y2="230.09" gradientTransform="matrix(1, 0, 0, -1, 0, 300)" gradientUnits="userSpaceOnUse"><stop offset="0" stop-color="#4b9ed7"/><stop offset="0.16" stop-color="#66bfde"/><stop offset="0.25" stop-color="#71cde1"/><stop offset="0.34" stop-color="#54c4e4"/><stop offset="0.51" stop-color="#0aafea"/><stop offset="0.54" stop-color="#00aceb"/><stop offset="0.75" stop-color="#44bcb7"/><stop offset="0.83" stop-color="#60c2a2"/></linearGradient><linearGradient id="linear-gradient-2" x1="-55.11" y1="135.23" x2="578.8" y2="305.09" gradientTransform="matrix(1, 0, 0, -1, 0, 300)" gradientUnits="userSpaceOnUse"><stop offset="0" stop-color="#4b9ed7"/><stop offset="0.22" stop-color="#53b6c8"/><stop offset="0.38" stop-color="#58c4bf"/><stop offset="0.54" stop-color="#00aceb"/><stop offset="0.82" stop-color="#44c0e5"/><stop offset="1" stop-color="#71cde1"/></linearGradient></defs><title>banner-sml</title><rect class="cls-1" width="600" height="300"/><polygon class="cls-2" points="0 300 600 0 0 0 0 300"/><path class="cls-3" d="M449.51,60.35h.28l8.2,8.49.16.17.15.19,0-.23a2.13,2.13,0,0,0,0-.25l-1.5-11.87a.09.09,0,0,1,0-.12h0a.09.09,0,0,1,.12,0h0l8.63,8.46a2.73,2.73,0,0,1,.33.35,2.61,2.61,0,0,1-.05-.48l-1.87-11.69a.13.13,0,0,1,.07-.14h.13l2,12.55-.17,0-8.78-8.61-.2-.21,0,.29,1.56,12.2-.15,0Z" transform="translate(0 0)"/><path class="cls-3" d="M469.77,54.18a3.54,3.54,0,0,1,1.23-.35,2.83,2.83,0,0,1,1.22.18,3.52,3.52,0,0,1,1.1.73,4.36,4.36,0,0,1,.92,1.36h0l-5.92,3,0,.23.11.21a6.11,6.11,0,0,0,1.05,1.56,3.77,3.77,0,0,0,1.24.89,2.68,2.68,0,0,0,1.37.25,3.5,3.5,0,0,0,1.41-.39,4.09,4.09,0,0,0,1-.68,3.69,3.69,0,0,0,.61-.7,2.48,2.48,0,0,0,.32-.54c.06-.13.1-.23.14-.24l.11,0a1.76,1.76,0,0,1-.22.55,3.43,3.43,0,0,1-.46.62,4.16,4.16,0,0,1-.64.62,4.37,4.37,0,0,1-.82.52,3.78,3.78,0,0,1-1.54.43,3.23,3.23,0,0,1-1.47-.27,4,4,0,0,1-1.3-.95,6.64,6.64,0,0,1-1.09-1.58,5.62,5.62,0,0,1-.53-1.64,4,4,0,0,1,.06-1.46,3.38,3.38,0,0,1,.65-1.28A3.8,3.8,0,0,1,469.77,54.18Zm0,.16a3.77,3.77,0,0,0-1.12.82,3,3,0,0,0-.64,1.1,3.41,3.41,0,0,0-.15,1.27A4.58,4.58,0,0,0,468.2,59L474,56.08a3.88,3.88,0,0,0-.84-1.2,3,3,0,0,0-1-.68,2.52,2.52,0,0,0-1.15-.16,2.67,2.67,0,0,0-1.07.29Z" transform="translate(0 0)"/><path class="cls-3" d="M478.73,59.34l-5.47-11.16.18-.09L476,53.22a4.34,4.34,0,0,1,.63-1.84,3.18,3.18,0,0,1,1.32-1.25,3.09,3.09,0,0,1,2.73-.17,5,5,0,0,1,2.23,2.53,6.07,6.07,0,0,1,.56,1.65,4,4,0,0,1,0,1.57,3.4,3.4,0,0,1-.62,1.35,3.61,3.61,0,0,1-1.35,1,3.41,3.41,0,0,1-1.62.4,3.18,3.18,0,0,1-1.58-.51l.56,1.17v.09h0ZM478,50.29a3.18,3.18,0,0,0-1.32,1.25,4.87,4.87,0,0,0-.59,1.94l2.13,4.26a3.44,3.44,0,0,0,1.66.57,3.52,3.52,0,0,0,1.57-.37,3.63,3.63,0,0,0,1.25-1,3.2,3.2,0,0,0,.58-1.29,4.15,4.15,0,0,0,0-1.45,5.93,5.93,0,0,0-.55-1.58,5,5,0,0,0-2.12-2.46A2.87,2.87,0,0,0,478,50.29Z" transform="translate(0 0)"/><path class="cls-3" d="M484,50.92l3.41-1.69,0,.16L484,51.1Z" transform="translate(0 0)"/><path class="cls-3" d="M498.57,42.71a7.68,7.68,0,0,1,.79,2.47,5.75,5.75,0,0,1-.19,2.22,5,5,0,0,1-1.06,1.85,6.27,6.27,0,0,1-1.86,1.37l-3.86,1.93L487,41.72l3.86-1.94a6.24,6.24,0,0,1,2.28-.58,4.89,4.89,0,0,1,2.11.28,5.46,5.46,0,0,1,1.88,1.19A7.49,7.49,0,0,1,498.57,42.71Zm-.19.09a7.57,7.57,0,0,0-1.47-2.07,5.47,5.47,0,0,0-1.81-1.15,4.68,4.68,0,0,0-2-.27,5.94,5.94,0,0,0-2.14.63l-3.69,1.82,5.25,10.54,3.69-1.82A5.9,5.9,0,0,0,498,49.16a4.58,4.58,0,0,0,1-1.78,5,5,0,0,0,.17-2.15A7.4,7.4,0,0,0,498.38,42.8Z" transform="translate(0 0)"/><path class="cls-3" d="M502.64,37.82a3.05,3.05,0,0,1,1.21-.34,2.86,2.86,0,0,1,1.23.18,3.57,3.57,0,0,1,1.11.73,5,5,0,0,1,.91,1.28.08.08,0,0,1,0,.08h0l-5.91,3,0,.23a2.12,2.12,0,0,1,.11.21,5.83,5.83,0,0,0,1.05,1.54,3.87,3.87,0,0,0,1.25.91,3.21,3.21,0,0,0,1.37.25,3.41,3.41,0,0,0,1.41-.39,3.83,3.83,0,0,0,1-.7,4.47,4.47,0,0,0,.62-.68,4.68,4.68,0,0,0,.3-.54.72.72,0,0,1,.14-.24l.11,0a1.46,1.46,0,0,1-.22.53,3.09,3.09,0,0,1-.44.63,4.84,4.84,0,0,1-.65.63,5,5,0,0,1-.82.52A3.87,3.87,0,0,1,505,46a3,3,0,0,1-1.48-.26,4,4,0,0,1-1.3-.94,6.29,6.29,0,0,1-1.07-1.58,5.33,5.33,0,0,1-.54-1.65,3.55,3.55,0,0,1,.07-1.45,3.19,3.19,0,0,1,.65-1.3A3.78,3.78,0,0,1,502.64,37.82Zm0,.16a3.8,3.8,0,0,0-1.12.83,3.25,3.25,0,0,0-.63,1.1,3.42,3.42,0,0,0-.16,1.27,4.89,4.89,0,0,0,.32,1.42l5.78-2.87a4.73,4.73,0,0,0-.86-1.22,3.07,3.07,0,0,0-1-.66,2.45,2.45,0,0,0-1.13-.18,3,3,0,0,0-1.1.3Z" transform="translate(0 0)"/><path class="cls-3" d="M506.52,36h.23l6.57,5.49.12.11a.74.74,0,0,1,.12.13,1,1,0,0,1,0-.17l0-.17-.44-8.47c0-.08,0-.14.1-.17h.1l.48,9.23h-.15Z" transform="translate(0 0)"/><path class="cls-3" d="M517.42,30.46a3.23,3.23,0,0,1,1.21-.34,3,3,0,0,1,1.22.19A3.31,3.31,0,0,1,521,31a4.86,4.86,0,0,1,.91,1.29.09.09,0,0,1,0,.07h0L516,35.31l0,.22.11.22a6,6,0,0,0,1.06,1.54,3.76,3.76,0,0,0,1.25.91,3.21,3.21,0,0,0,1.37.25,3.85,3.85,0,0,0,1.41-.39,4,4,0,0,0,1-.7,4.42,4.42,0,0,0,.61-.68,3.6,3.6,0,0,0,.31-.54.7.7,0,0,1,.13-.24l.12,0a1.65,1.65,0,0,1-.22.53,3.59,3.59,0,0,1-.45.63,4.76,4.76,0,0,1-.64.63,5.4,5.4,0,0,1-.82.52,3.92,3.92,0,0,1-1.54.41,3,3,0,0,1-1.47-.26,4,4,0,0,1-1.3-.94A5.92,5.92,0,0,1,516,35.81a5.47,5.47,0,0,1-.55-1.64,3.73,3.73,0,0,1,.07-1.45,3.21,3.21,0,0,1,.66-1.3A3.92,3.92,0,0,1,517.42,30.46Zm0,.16a3.59,3.59,0,0,0-1.12.84,3.14,3.14,0,0,0-.63,1.09,3.47,3.47,0,0,0-.16,1.28,4.89,4.89,0,0,0,.32,1.41l5.78-2.88a5.15,5.15,0,0,0-.86-1.2,3.1,3.1,0,0,0-1-.67,2.58,2.58,0,0,0-1.13-.17,3,3,0,0,0-1.1.3Z" transform="translate(0 0)"/><path class="cls-3" d="M521.19,24.3l5.56,11.15-.2.09-5.47-11.15Z" transform="translate(0 0)"/><path class="cls-3" d="M528.64,24.89a3.69,3.69,0,0,1,1.55-.44,3.42,3.42,0,0,1,1.48.28,4.14,4.14,0,0,1,1.25.91,7,7,0,0,1,1,1.51,6.4,6.4,0,0,1,.58,1.71,4,4,0,0,1,0,1.54,3.11,3.11,0,0,1-.65,1.31,3.88,3.88,0,0,1-1.35,1,3.83,3.83,0,0,1-1.56.43,3,3,0,0,1-1.48-.26,3.76,3.76,0,0,1-1.25-.92,5.88,5.88,0,0,1-1-1.49,6,6,0,0,1-.57-1.71,3.68,3.68,0,0,1,0-1.55,3.36,3.36,0,0,1,.65-1.31A3.48,3.48,0,0,1,528.64,24.89Zm3.81,7.64a3.67,3.67,0,0,0,1.23-1,3.16,3.16,0,0,0,.6-1.25,3.72,3.72,0,0,0,0-1.45,6.64,6.64,0,0,0-.57-1.62,6,6,0,0,0-1-1.44,3.94,3.94,0,0,0-1.17-.9,3.31,3.31,0,0,0-1.38-.28,3.69,3.69,0,0,0-1.49.41,3.48,3.48,0,0,0-1.23.95,2.87,2.87,0,0,0-.59,1.26,3.54,3.54,0,0,0,0,1.45,6.77,6.77,0,0,0,1.52,3.05,3.71,3.71,0,0,0,1.18.9,2.83,2.83,0,0,0,1.34.27,3.77,3.77,0,0,0,1.51-.4Z" transform="translate(0 0)"/><path class="cls-3" d="M539.31,32.67l-5.16-10.38h0c.08,0,.13,0,.18.07l.73,1.37a4.6,4.6,0,0,1,.61-1.84A3.18,3.18,0,0,1,537,20.64a3.11,3.11,0,0,1,2.74-.17A5.06,5.06,0,0,1,542,23a5.26,5.26,0,0,1,.55,1.65,4.09,4.09,0,0,1,0,1.56,3.26,3.26,0,0,1-.63,1.36,3.51,3.51,0,0,1-1.35,1,3.1,3.1,0,0,1-3.19-.1l2,4Zm-2.14-11.85a3.24,3.24,0,0,0-1.32,1.25,4.93,4.93,0,0,0-.6,1.95l2.09,4.26a3.05,3.05,0,0,0,3.26.2,3.76,3.76,0,0,0,1.23-1,3.08,3.08,0,0,0,.58-1.29,3.93,3.93,0,0,0,0-1.45,6.3,6.3,0,0,0-.55-1.58,5,5,0,0,0-2.12-2.45,2.87,2.87,0,0,0-2.57.09Z" transform="translate(0 0)"/><path class="cls-3" d="M544.88,16.8a3.27,3.27,0,0,1,1.23-.34,3,3,0,0,1,1.22.18,3,3,0,0,1,1.1.73,4.36,4.36,0,0,1,.92,1.36h0l-5.85,2.92a1.64,1.64,0,0,0,0,.22l.11.2a6.14,6.14,0,0,0,1.06,1.56,3.69,3.69,0,0,0,1.23.91,3.25,3.25,0,0,0,1.38.25,3.42,3.42,0,0,0,1.4-.4,4.15,4.15,0,0,0,1-.69,4.36,4.36,0,0,0,.61-.68,4.29,4.29,0,0,0,.31-.55.58.58,0,0,1,.14-.24h0a1.94,1.94,0,0,1-.23.53,4,4,0,0,1-.44.63,7.69,7.69,0,0,1-.66.62,4.11,4.11,0,0,1-.8.53,4.06,4.06,0,0,1-1.56.41,2.88,2.88,0,0,1-1.47-.27,3.88,3.88,0,0,1-1.3-.93,6.56,6.56,0,0,1-1.09-1.6,5.53,5.53,0,0,1-.53-1.64,3.93,3.93,0,0,1,.06-1.45,3.54,3.54,0,0,1,.67-1.29A3.75,3.75,0,0,1,544.88,16.8Zm0,.16a3.66,3.66,0,0,0-1.12.84,2.61,2.61,0,0,0-.63,1.08,3.3,3.3,0,0,0-.16,1.29,4.59,4.59,0,0,0,.32,1.41l5.76-2.87a4.33,4.33,0,0,0-.84-1.2,2.89,2.89,0,0,0-1-.68,2.72,2.72,0,0,0-1.13-.16A3.1,3.1,0,0,0,544.9,17Z" transform="translate(0 0)"/><path class="cls-3" d="M553.74,22,550,14.42h0s.13,0,.17.07l1.08,2.1a4.92,4.92,0,0,1-.12-1.21,3.24,3.24,0,0,1,.2-1,2.51,2.51,0,0,1,.51-.82,2.9,2.9,0,0,1,.86-.62,3.34,3.34,0,0,1,1.42-.35v.08h0l-.43,0-.41,0a4.29,4.29,0,0,0-.5.19,2.47,2.47,0,0,0-1.3,1.48,5.26,5.26,0,0,0-.05,2.4l2.48,5Z" transform="translate(0 0)"/></svg>