<?xml version="1.0" encoding="utf-8"?>
<!-- Generator: Adobe Illustrator 23.0.1, SVG Export Plug-In . SVG Version: 6.00 Build 0)  -->
<svg version="1.1" id="Layer_1" xmlns="http://www.w3.org/2000/svg" xmlns:xlink="http://www.w3.org/1999/xlink" x="0px" y="0px"
	 viewBox="0 0 378.6 157.8" style="enable-background:new 0 0 378.6 157.8;" xml:space="preserve">
<style type="text/css">
	.st0{fill:#4D4D4F;}
</style>
<g>
	<g>
		<g>
			<g>
				<g>
					<g>
						<path class="st0" d="M25.1,55.8l-0.4,0.8C24.8,56.6,24.9,56.4,25.1,55.8z"/>
						<path class="st0" d="M72.4,17.3c0,0.1,0,0.2,0.1,0.2C72.4,17.4,72.4,17.4,72.4,17.3z"/>
						<path class="st0" d="M10.4,84.8C10.4,84.8,10.4,84.7,10.4,84.8c0-0.1,0-0.2,0-0.3L10.4,84.8z"/>
						<path class="st0" d="M19.7,44.8c-1.1,5.4-2,8.7-2.9,12c-0.4,1.7-0.9,3.3-1.3,5.2c-0.5,2-1,4.2-1.5,6.9
							c-1.3,5.2-2.4,10.7-3.6,15.8c0.2,2.6-1.8,6.5-2,9.5l-0.8,0.9c0,0.5-0.1,1.2-0.2,1.7C7.2,97.5,7,98,6.8,98.4l-0.1-0.1
							c-0.1,1.5-0.8,2.9-0.8,3.6l-0.1-0.1c-0.2,0.5-0.3,1.1-0.5,1.5l-0.1-0.3c-0.2,1.1-0.6,2.1-1,2.8c-0.2,0.3-0.4,0.6-0.5,0.7
							c0,0-0.1,0.1-0.1,0l0,0l0.1,0.1c0.1,0.1,0.2,0.2,0.2,0.4c0.2,0.3,0.2,0.3,0.3,0.5c0.1,0.1,0.1,0.3,0.1,0.5l4.8,1
							c0,0,0-0.1,0-0.1l-0.5,0.3c-0.1-1.3-0.1-2.7-0.1-4.1c0.1-1.4,0.3-2.9,1.3-4.9l0.1,0.1c0.1-2.9,1.2-5,2.1-7.5
							c0.9-2.2,1.7-4.4,1.9-7.5c0,0.8,0.4-0.2,0.5-0.1c0.6-2.7,1.3-5.6,0.2-5.9c0.6-1.9,0.8-1.5,1.3-1.6c-0.5-0.1-0.2-1.9,0.2-3.4
							l0,0.8l1.1-4.4l-1.2,0.6c1-2.2,1.3-0.2,1.7-2.5l-0.8-0.2c1.1-3.1,2.9-4.6,4.4-7.5c2.2-6.3,4.1-12.9,6.5-19.1
							c2.3-6.3,5.2-12.2,9.1-16.9l0.8-0.1c0.8,0.3,0.8-3.5,1.8-3.5l0.5-1.4c0.4-0.2,1-0.8,0.7-0.1c0.8-1.1,0.7-1.1,1-2.1l1.3-0.8
							c1.7-1.9,3-3.7,4.5-5.4c1.4-1.7,3-3.3,5.1-4.3c1.3-0.4,2.8-0.8,4.4-1c1.5-0.1,2.7,0.1,3.9,0.8c0.6,0.4,1.2,0.9,1.8,1.5
							c0.5,0.7,1.1,1.4,1.5,2.2c0.9,1.6,1.5,3.4,1.8,5c0.6,2.1,0.5,4.6,0,7c-0.5,2.4-1.5,4.7-2.8,6.8c-1.3,2.1-2.8,4-4.5,5.7
							c-1.6,1.7-3.4,3.3-5.1,4.9c-0.3,0.1-0.8,0.7-0.8,0.8c-2.4,1.6-5.1,2.8-7.8,3.8c0,0-0.2,0.1-0.4,0.2c-0.3,0.1-0.7,0.3-1.2,0.4
							c-0.5,0.2-1.1,0.3-1.8,0.5c-0.7,0.2-1.5,0.3-2.3,0.5c-1.7,0.3-3.5,0.6-5.3,0.6c-0.5,0-0.9,0-1.4,0c-0.4,0-0.9-0.1-1.3-0.1
							c-0.9,0-1.7-0.2-2.4-0.3c-1.5-0.3-2.8-0.6-3.7-0.8c-0.9-0.1-1.5-0.1-1.6,0.5c0,0.3,0.1,0.7,0.5,1.2c0.3,0.5,0.8,1.3,1.7,2
							c1.7,1.5,4.8,3.4,9.7,4.1L35.4,54c0.7,0,1.4,0,2.1,0.1c0.7,0,1.3-0.1,1.9-0.1c1.2-0.1,2.3-0.3,3.4-0.5
							c2.1-0.5,3.8-1.3,5.4-2.4c0.5,0.5,1.6,0,2.7-0.6c1.1-0.6,2.2-1.4,2.9-1.5L53.7,49c0.6-0.6,1.4-1.1,2.1-1.6
							c0.8-0.4,1.5-0.9,2.3-1.3c0.8-0.4,1.5-0.9,2.2-1.4c0.7-0.5,1.3-1.2,1.8-1.9c0,0.2,0.1,0.4-0.5,1c1.8-1.7,3.8-4.5,4.4-4.3
							c1.8-2.4,3.7-5.6,4.8-8.7c1.2-3.2,1.6-6.3,1.3-8.2l0.1,0.3c-0.5-2.2,0.2-2.8-0.2-5.2c0.1-0.1,0.1-0.3,0.2-0.3
							c-0.4-1.2-0.6-2.9-1-4.5c-0.3-1.6-0.8-3.2-1.3-4.1l0.4-0.3c-0.7-1.5-1.5-3-2.7-4.3L68.3,5l0.5,0.8c-0.3,0-0.6-0.2-0.8-0.5
							c-0.3-0.4-0.5-0.9-0.9-1.5c-0.7-1.2-2-2.7-4.1-3.2c-1.7-0.9-3.8-0.6-5.5,0.1c-0.4,0.2-0.8,0.3-1.2,0.5
							c-0.4,0.2-0.8,0.4-1.1,0.5c-0.8,0.3-1.5,0.6-2.3,0.7c-1.2,1.1,0.9-1.4-1-0.1c-0.3-0.6,0.9-0.8,0.1-1c-0.5,0.3-1,0.5-1.5,0.7
							c-0.5,0.2-0.9,0.4-1.4,0.6c-0.5,0.2-1,0.4-1.5,0.7c-0.5,0.3-1,0.7-1.5,1.2L45.8,4c-1.2,1.5-2.5,2.6-3.7,3.5
							c-1.2,1-2.2,1.9-2.6,3.1c-1,1.5-1.6,1.8-2.2,2.1c-0.6,0.3-1.2,0.7-1.9,2.5L34,16.1c-1,1.2,0,1.4-1.2,2.6
							c-0.3-0.3-1.5,1.6-1.3,0.5c-1.4,1.5-2.3,3.4-3.3,5.4c-1,2-2,4.1-3.7,6.2c0.2,1.4-1.4,3.6-1.2,4.6c-0.4,0-2.2,4.8-1.7,1.8
							c0-0.3,0.2-0.7,0.4-0.6l-0.3-0.5c-2.1,2.4-1.7,5.2-2.9,7.9c0.5-0.8,0.9-1.9,0.9-1l-1.1,2.5l-0.2-0.7l-1.7,3.7l0.7-0.4
							c-0.9,1.8-2,2.1-2,4.5c0.1,1.1,1.3-1.5,0.7,0.5c-1.2,2.4-2.9,6-4.1,9.1c0.6-0.1,0.3,0.7,0.2,1.7l-0.5,0
							c-0.4,3.6-1.4,0.9-2,4.5l-0.2-0.4l0.7,1.2c0,3.3-1.5,1.4-1.2,5.1c0.3-1.4,1.2-0.3,0.5,1.3l-0.3-0.6c-0.2,0.9-0.1,1.3-0.3,1.9
							C8.8,76.5,8.3,76.6,8,78l-0.3-1.1l0.1,2.8c-1.1,1.8-1.3,5.1-2.2,5.8c0,0-1.5,4.2-1,5.3c-0.1-0.5-0.4-0.2-0.6,0.2
							c-0.3,0.3-0.5,0.6-0.7,0.3c0.1,0.5,0,1.6-0.2,2.7c-0.3,1.1-0.7,2.2-1.1,2.8l0-0.3c-1.1,2.4-1.5,4.7-1.8,7.2
							c-0.2,2.5-0.3,5,0.5,8.5c0.1-0.1,0.1-0.1,0.2,0l3.5,4l1.8-1.3c0.2-0.1,0.6-0.3,1-0.5c0.2-0.1,0.4-0.2,0.6-0.4
							c0.2-0.1,0.3-0.3,0.5-0.4c0.6-0.5,0.9-0.9,0.4-0.9c1.4-1.4,2-2.6,2.7-3.7c0.7-1.1,1.2-2,1.7-2.9c0.9-1.7,1.3-3.1,0.5-4.3
							c0.5-2.1,1.2-2.3,1.6-3.3l0,0.5c0.1-0.4,0.2-0.9,0.3-1.2c0.1-0.4,0.2-0.8,0.3-1.1c0.2-0.7,0.3-1.3,0.5-1.8
							c0.3-1.1,0.6-2.1,1-3.5c0.2-1.5-0.8-2,0.2-4.5c0.2,0.9,0.4-0.1,0.6-1.1c-0.1,0.6,0,0.9,0.6-0.3c-0.1-0.2-0.1-0.5-0.1-0.8
							c0,0,0.1,0,0.1,0c0.3-1.6,0.1-1.4-0.2-0.7c-0.1-0.1-0.1,0-0.3,0.2c1-1.5,1.1-4.6,1.9-4.6c1-4.8,1.1-8.4,1.7-12.5
							c0.5-0.4,0.6,0.6,0.5,1.8l0.5-2.9c0.5,0.1-0.1,1.7-0.2,2.6c1.6-3.2,0.7-7.2,2.3-11l-0.3-0.9l0.1-0.2c-0.2,0-0.4-1-0.3-1.6
							c0.6-0.5,1.1,0.2,1.4-1.8c0.7-1.5,0.5-4.5,0.6-6.6c-0.3,1.1-0.5,0.7-0.5,0.2c0.2-1,0.7-1.5,0.6-2.3l0.6,0
							c-0.7,0.3-0.2-2.7-0.4-3.1c0.6-0.5,0.1,1.6,0.4,1.9c0.7-3.9,0.3-2,1-5.9c-0.1-2.2-0.7,0.3-1-0.8c0.2-1.9,0.2-3.8,1-5.8
							l-0.7,0.5c0.3-3.5,0.9-5.6,2.1-7.7c0.6-6.3,1.2-10,1.1-12l0.2-0.4c0.1-0.1,0.1-0.2,0.3-0.5l0.1-0.1c0,0,0,0,0.1-0.1
							c0.1,0,0.1-0.1,0.2-0.1c0.1,0,0.1-0.1,0.2-0.1l0.1,0c0,0,0.1,0,0.2,0c0.4-0.1,0.9,0,1.2,0.2c0.3,0.1,0.7,0.5,0.8,0.7
							c0.1,0.1,0.1,0.2,0.2,0.4l0.1,0.2l0,0.1c0.1,0.4,0.1,0.1,0.2,0.2c0,0,0.1,0,0.1,0.1c0,0,0.1,0.1,0.1,0.1
							c0.1,0.1,0.2,0.1,0.2,0.2c0.3,0.2,0.5,0.2,0.7,0.1c0.2-0.1,0.3-0.3,0.4-0.7c0-0.1,0-0.2,0.1-0.2l0,0c0,0,0,0,0,0l0,0.1l0,0
							l0,0c1.9-0.3-2.5,0.3-2,0.3l0.1,0l0.3,0l1-0.1l0.5-0.1l0.1,0l0,0l0,0l0,0c0,0,0,0,0,0l0,0l0-0.2l0-0.1l0-0.2l0-0.2l0-0.1
							l-0.1-0.3c-0.1-0.2-0.1-0.4-0.2-0.5c-0.1-0.1-0.1-0.1-0.2-0.3c-0.1-0.2-0.3-0.5-0.5-0.7c-0.4-0.4-0.9-0.7-1.4-0.9
							c-0.6-0.2-1.3-0.3-2-0.2c-0.2,0-0.3,0.1-0.5,0.1l-0.2,0.1c-0.1,0-0.2,0.1-0.3,0.1c-0.2,0.1-0.4,0.2-0.6,0.3L30,8.9L29.9,9
							l-0.2,0.1c-0.1,0.1-0.3,0.2-0.3,0.3l-0.1,0.1c-0.1,0.1-0.3,0.2-0.4,0.4l-0.5,0.9c-0.8,1-1.6,2.4-2.2,3.6c-0.6,1.2-1,2.1-1,2.1
							c-2.3,5-3.2,9.1-3.8,13.4C20.8,34.1,20.5,38.7,19.7,44.8z"/>
					</g>
				</g>
			</g>
		</g>
	</g>
	<g>
		<g>
			<g>
				<g>
					<g>
						<path class="st0" d="M76.8,37.8l-0.4,0.5C76.5,38.4,76.7,38.2,76.8,37.8z"/>
						<path class="st0" d="M77.7,60.3c0.1,0,0.1,0,0.2,0C77.7,60.3,77.7,60.3,77.7,60.3z"/>
						<path class="st0" d="M63.2,57.4C63.2,57.4,63.2,57.4,63.2,57.4c0-0.1,0-0.1,0-0.2L63.2,57.4z"/>
						<path class="st0" d="M71.9,29.1c-2.5,7.4-4.1,9.1-5.9,17c-1.1,3.7-1.9,7.7-2.8,11.3c0.3,1.9-1.3,4.7-1.2,6.9l-0.7,0.7
							c0,0.8,0,1.6-0.5,2.2l-0.1-0.1c0.1,1.1-0.5,2.2-0.5,2.8l-0.1-0.1l-0.3,1.3l-0.1-0.3c-0.1,1.9-0.7,3.8-1.3,5.4l0.6,0
							c-1.7,3.3-0.9,4.9-2.6,7.8l-0.1-0.1c0.2,4.4-3,5.9-3,10.4c0-0.6-0.4,0.1-0.5,0c-0.5,1.9-1.1,3.9-0.1,4.3c-0.5,1.3-0.7,1-1.2,1
							c0.5,0.2,0.2,1.4-0.1,2.5l0-0.6l-0.9,3.1l1.1-0.3c-0.8,1.5-1.2,0-1.5,1.6l0.7,0.2c-0.9,2.2-2.5,3-3.9,4.6
							c-0.7,1.3-1.4,2.6-2.2,3.8l7.2,2.2c-0.1-1.3,0.1-3,0.4-4.7c0.4-1.7,0.9-3.5,1.6-5.3c1.4-3.5,3.2-6.8,5.4-9.9l0.7-0.1
							c0.8,0.2,0-2.7,0.8-2.7l0.1-1.1c0.3-0.2,0.7-0.6,0.6-0.1c0.5-0.8,0.3-0.9,0.4-1.6l0.9-0.7c2.1-3.1,2.7-6.4,4.8-9.6
							c0.4-0.4,0.8-0.9,1.3-1.5c0.2-0.3,0.4-0.6,0.6-0.9c0.2-0.2,0.3-0.5,0.5-0.8c0.2-0.2,0.3-0.5,0.5-0.7c0.1-0.1,0.1-0.2,0.2-0.3
							c0.1-0.2,0.2-0.4,0.3-0.6c0.2-0.5,0.5-1.1,0.8-1.8c0.3-0.7,0.8-1.6,1.3-2.3c0.2-0.3,0.4-0.6,0.7-0.8c0.2-0.2,0.5-0.2,0.6,0
							c0.3,0.3,0.3,0.8,0.2,1.4c-0.1,1.1-0.5,2.4-0.9,3.3c-0.4,0.9-0.7,1.5-0.9,2L73,78.3c0,0,0,0,0,0.1l-0.1,0.3
							c-0.1,0.5-0.2,1-0.3,1.4c-0.1,1-0.2,1.9-0.2,2.9c-0.2,0.2,0,0.9,0.1,0.9c-0.5,2.3-0.9,4.5-1.3,6.8c0,0-0.4,2.1-0.6,4.9
							c-0.1,1.4-0.2,3-0.1,4.6c0.1,1.6,0.2,3.3,0.8,5c0.1,0.4,0.4,0.9,0.6,1.3c0.3,0.5,0.6,0.9,1.1,1.4c0.5,0.5,1.2,0.8,1.9,0.9
							c0.7,0.1,1.2,0,1.6-0.1c0.8-0.3,1-0.7,1.1-0.9c0.1-0.3,0-0.5-0.2-0.6c-0.2-0.2-0.6-0.2-1.1-0.4c-0.2-0.1-0.5-0.3-0.7-0.5
							c-0.2-0.2-0.2-0.5-0.2-0.8c0-1.2,0.6-3.3,1.7-6.2l0.2,0.2c0.7-3.4,1.1-5.7,0.5-8.3c1.2-0.2,0.6-2.9,1.1-3.7l0.1,0.1
							c-0.5-2.4,1.6-4.4,1.2-6.7c0.1,0.1,0.4,0.2,0.3,0.7c0-0.4,0.1-0.8,0.1-1.3l0-0.4c0-0.1,0-0.3,0.1-0.4c0.1-0.3,0.1-0.7,0.2-1
							c0.2-1.2,0.5-2.2,0.9-2.3c0.4-3.2,0.9-7.1,0.5-9.8c-0.3-2.7-1.3-3.9-2.1-4.3l0.2-0.1c-0.5-0.1-0.7-0.5-1-0.8
							c-0.1-0.2-0.3-0.4-0.6-0.5c-0.2-0.2-0.6-0.3-1.1-0.3c-0.1-0.1-0.2-0.1-0.1-0.2c-0.9,0.3-1.8,0.8-2.6,1.3
							c-0.4,0.2-0.8,0.5-1.1,0.7c-0.4,0.3-0.7,0.6-0.9,0.9l0-0.6c-0.2,0.2-0.4,0.3-0.6,0.6l-0.7,0.7l-0.7,0.7
							c-0.2,0.2-0.4,0.5-0.7,0.8c0.3-0.4,0.7-0.6,1-1c-0.1,1.1-0.6,1.2-1.3,1.8c-0.4,0.3-0.8,0.6-1.2,1.1c-0.4,0.5-0.9,1.2-1.3,2.1
							c-0.9,1.2-1.4,3.2-1.6,4.5c-0.2,1.3-0.3,2.5-1.1,3.3c0,1.2-0.3-1.2-0.7,0.3c-0.6-0.3,0-0.8-0.6-0.7c-0.5,1.4-1.8,1.8-2.4,3.6
							l-0.5-0.2C60.4,82.8,58,84,58,85.8c-0.8,2.4-2.1,0.8-2.4,3.5l-1.1,0.6c-0.6,0.9,0.4,1.1-0.5,2c-0.3-0.3-1,1.2-1,0.4
							c-1.8,2.1-1.7,5.3-4.4,8.2c0.4,1.1-0.9,2.6-0.6,3.4c-0.4-0.1-1.6,3.6-1.5,1.2c0-0.2,0.2-0.5,0.3-0.4l-0.3-0.4
							c-1.7,1.7-1.1,4-1.9,6.2c0.4-0.6,0.6-1.5,0.7-0.8c-0.2,0.7-0.4,1.4-0.6,2.1l-0.3-0.5c-0.2,0.5-0.3,1.1-0.5,1.6
							c-0.1,0.6-0.3,1.1-0.4,1.7l0.6-0.4c-0.2,0.6-0.4,1.1-0.6,1.6c-0.2,0.5-0.3,1-0.3,1.6l0.7,15l7.8-12.4c0.2-0.3,0.3-0.7,0.5-1.1
							c0.1-0.9-1.4,0.9-0.6-0.6c1.5-1.6,3.4-4.2,4.4-6.6c-0.6,0-0.3-0.6-0.2-1.3l0.5,0.1c0.2-2.7,1.4-0.6,1.7-3.1l0.3,0.3l-0.8-1
							c-0.2-2.4,1.4-0.8,0.9-3.5c-0.2,0.9-1.2,0.1-0.6-1l0.3,0.5c0.1-0.7,0-1,0.3-1.4c0.1,0.5,0.6,0.4,0.9-0.5l0.3,0.8l-0.2-2.1
							c1-1.2,1.1-3.6,2-4c0,0,1.3-2.9,0.8-3.8c0.2,0.7,0.9-0.9,1.3-0.2c-0.2-0.9,0.1-3.4,0.9-4.1l0,0.2c1.6-3.2,1-6.1,2.6-8.9
							c-0.6,0,0.2-1.5-0.6-1.4c0.2-3.4,3.1-5.3,1.2-7.1c0.3-1.5,1-1.6,1.3-2.3l0,0.4c0.6-2.7,0.8-3.5,1.4-5.5
							c0.1-1.1-0.9-1.5-0.2-3.2c0.2,0.7,0.4-0.1,0.6-0.7c-0.1,0.4,0.1,0.6,0.6-0.2c-0.1-0.2-0.1-0.4-0.1-0.6c0,0,0.1,0,0.1,0
							c0.2-1.2,0-1-0.2-0.5c-0.1,0-0.1,0-0.3,0.1c0.8-1,0.9-3.2,1.6-3.2c0.8-3.4,0.7-6,1.2-8.9c0.4-0.2,0.6,0.5,0.5,1.4l0.4-2
							c0.5,0.2,0,1.2-0.1,1.9c1.5-2.1,0.5-5.1,2.1-7.6l-0.2-0.7l0.1-0.1c-0.2-0.1-0.3-0.8-0.3-1.2c0.6-0.3,1,0.3,1.4-1
							c0.8-0.9,0.7-3.1,0.9-4.6c-0.3,0.7-0.5,0.4-0.5,0c0.2-0.7,0.8-0.9,0.7-1.5l0.6,0.1c-0.7,0.1-0.1-1.9-0.2-2.3
							c0.6-0.2,0.1,1.2,0.3,1.4c0.8-2.7,0.4-1.4,1.2-4.1c0-1.6-0.7,0.1-1-0.8c0.3-1.3,0.3-2.7,1.1-4L80,20.8c0.4-2.5,1-3.9,2.1-5.3
							c0.3-2.4,0.5-4.3,0.5-5.8c0-1.5-0.2-2.4-0.5-3.1c-0.6-1.3-1.2-1.4-1.8-0.8c-0.6,0.4-1.1,1.3-1.7,2.1c-0.5,0.8-0.9,1.6-0.9,1.6
							c-0.9,1.5-1.6,2.9-2.2,4.5c-0.1,0.4-0.3,0.8-0.4,1.2c-0.1,0.4-0.2,0.7-0.3,1.1c-0.2,0.7-0.4,1.5-0.6,2.2
							C73.5,21.5,73,24.7,71.9,29.1z"/>
					</g>
				</g>
			</g>
		</g>
	</g>
	<g>
		<g>
			<g>
				<g>
					<g>
						<path class="st0" d="M92.4,78.7L92,78.9C92.1,78.9,92.2,78.9,92.4,78.7z"/>
						<path class="st0" d="M109.6,67.2C109.5,67.2,109.5,67.2,109.6,67.2C109.5,67.3,109.6,67.2,109.6,67.2z"/>
						<path class="st0" d="M80.9,88L80.9,88c0-0.1,0-0.1,0-0.1L80.9,88z"/>
						<path class="st0" d="M87.6,72c-1.2,2-2.1,3.1-2.9,4.4c-0.8,1.2-1.5,2.6-2.1,4.9c-0.8,2.1-1.3,4.5-1.7,6.7
							c0.6,1.2-0.6,2.9-0.1,4.3l-0.5,0.4c0.2,0.5,0.3,1,0,1.5l-0.1,0c0.3,0.7,0,1.5,0.2,1.9l-0.1,0l0,0.9L80,96.7
							c0.4,1.3,0.5,2.6,0.6,4l0.5-0.2c0,0.7,0.2,1.5,0.4,2.1c0.3,0.6,0.6,1.1,0.9,1.5c0.7,0.9,1.4,1.6,2.5,2.8l-0.1,0.1
							c2.1,0.4,3.3,0.8,4.9,1.2c1.7,0.3,3,0.3,4.3-0.9c-0.3,0.3,0.2,0.2,0.3,0.4c0.6-0.3,1.3-0.6,1.8-1c0.4-0.4,0.6-0.9,0.3-1.4
							c0.8-0.4,0.8-0.1,1.2,0.3c-0.3-0.4,0.4-1,0.9-1.4l-0.2,0.4l1.6-1.3l-0.9-0.5c1-0.4,1,0.8,1.6-0.1l-0.5-0.6
							c0.6-0.4,1.2-0.5,1.9-0.6c0.7-0.1,1.4-0.2,2.1-0.6c2.1-2.1,3.6-4.8,4.8-7.4c1.2-2.6,2.3-5.1,4-7.2l0.6,0
							c0.8,0.2-0.6-1.8,0.2-1.7l-0.1-0.7c0.2-0.1,0.5-0.4,0.6,0c0.2-0.5,0.1-0.6,0-1l0.7-0.4c0.6-1,0.7-2,0.9-3.1
							c0.1-1,0.2-2.1,0.6-3.3c0.4-0.6,0.7-1.5,0.9-2.5c0.2-1,0.3-2,0.2-3.2c0-0.5-0.1-1.4-0.2-2.2c-0.1-0.8-0.4-1.5-0.5-2.2
							c-0.2-0.7-0.6-1.3-0.9-1.8c-0.4-0.5-0.7-1-1.1-1.3c-2.2-2-5.3-2.8-8.8-2.1c-0.9,0.2-1.7,0.4-2.5,0.6c-0.6,0.2-1.2,0.4-1.8,0.7
							c-1.1,0.5-2.1,1.3-2.8,2.2c-0.2,0-0.3,0.4-0.3,0.5c-1.1,0.8-2.2,1.6-3.2,2.4c0,0-0.9,0.8-2,1.9c-1.1,1.2-2.3,2.7-3,4.1
							c-0.7,1.4-0.8,2.7,0.2,3c1,0.4,2.8-0.1,6.3-1.2l0.1,0.2c1.7-1.1,2.6-1.8,3-3.4c0.9,0.7,1.3-0.9,1.9-0.9l0,0.1
							c0.4-1.4,2.3-0.8,2.8-2.1c0,0.1,0.2,0.4,0,0.5c0.6-0.6,1.3-1.3,1.7-0.7c0.9-0.6,1.2-0.7,1.5-0.8c0.3-0.2,0.6-0.4,1.2-1
							l-0.1,0.2c0.3-0.4,0.5-0.3,0.6-0.3c0.1,0.1,0.2,0.2,0.4,0.2c0,0.1-0.1,0.2-0.1,0.2c0.4-0.2,0.6,0.1,0.7,0.4
							c0.1,0.3,0.1,0.6,0.3,0.7l-0.4,0.2c0.1,0.2,0.1,0.5,0.2,0.7l0.1-0.3c0.6-0.1,0.4,0.2,0.2,0.4c-0.2,0.2-0.6,0.7-0.2,1.2
							c-0.2,0.9,2.3,2.4,1.5,3.5c0.5,0.6-0.8-0.6-0.5,0.2c-0.6-0.1-0.3-0.4-0.9-0.3c0.2,0.8-0.9,1.1-0.7,2.1l-0.5-0.1
							c0.5,1.4-1.2,2.1-0.7,3.1c0,1.4-1.6,0.3-1.2,1.9l-0.8,0.2c-0.3,0.5,0.6,0.7,0.1,1.1c-0.4-0.2-0.6,0.6-0.8,0.1
							c-0.6,0.5-0.7,1.3-0.8,2c-0.2,0.8-0.4,1.6-1.3,2.2c0.5,0.7-0.3,1.3,0,1.9c-0.2-0.1-0.4,0.3-0.6,0.6c-0.2,0.2-0.4,0.3-0.5-0.3
							c0-0.1,0.1-0.2,0.2-0.2l-0.4-0.4c-1.3,0.4-0.5,1.9-1.2,2.7c0.3-0.2,0.5-0.5,0.6-0.1c-0.2,0.3-0.4,0.5-0.6,0.8l-0.2-0.4l-1,1
							l0.5,0.1c-0.6,0.4-1.4,0.1-1.3,1.1c0.1,0.5,0.9-0.1,0.6,0.6c-0.8,0.5-2.1,1.1-3,1.8c0.5,0.3,0.2,0.5,0.1,0.8l-0.4-0.3
							c-0.4,1.3-1-0.5-1.5,0.6l-0.1-0.3l0.4,1c-0.2,1.4-1-0.5-1.1,1.2c0.3-0.3,0.8,0.8,0.2,0.9l-0.1-0.5c-0.2,0.2-0.2,0.4-0.4,0.5
							c0-0.3-0.3-0.7-0.6-0.4l0-0.7c-0.1,0.4-0.2,0.8-0.3,1.1c-0.4-0.1-0.7,0-1,0.1c-0.3,0.1-0.6,0.2-0.8-0.1c0,0-0.3,0-0.5,0
							c-0.1,0-0.1,0-0.2,0.1c-0.1,0-0.1,0-0.1,0.1c0,0.1-0.1,0.2-0.1,0.4c0.1-0.5-0.1-0.6,0-1.2c0,0.5-0.6,0.9-0.4,0.3l0-0.1
							c0-0.3-0.1-0.2-0.3-0.2c-0.2,0-0.4-0.1-0.2-0.5c-0.6,0.2-0.4-0.4-1.1-0.2c-0.5-0.6-0.1-1.3,0.1-1.8c0.2-0.5,0.2-1-0.9-1.3
							c-0.1-0.7,0.6-0.8,0.8-1.2l0.1,0.2c0-1.4,0-1.8,0.3-2.8c-0.1-0.6-1.1-0.9-0.7-1.8c0.3,0.4,0.4,0,0.4-0.4c0,0.2,0.1,0.3,0.5,0
							c-0.1-0.1-0.2-0.2-0.2-0.3c0,0,0.1,0,0.1,0c0-0.6-0.1-0.6-0.3-0.3c-0.1,0-0.1,0-0.3,0c0.7-0.5,0.4-1.7,1.1-1.6
							c0.4-1.8,0.1-3.3,0.4-4.8c0.4,0,0.6,0.4,0.6,0.9l0.3-1.1c0.5,0.2,0.1,0.7,0.1,1c1.3-0.9,0.1-2.8,1.5-3.9l-0.3-0.5l0.1-0.1
							c-0.2-0.1-0.3-0.5-0.3-0.8c0.5,0,1,0.5,1.3-0.2c0.7-0.3,0.5-1.6,0.6-2.4c-0.3,0.3-0.4,0.1-0.5-0.1c0.2-0.3,0.7-0.3,0.6-0.7
							l0.6,0.3c-0.6-0.1-0.1-1.2-0.3-1.4c0.5,0,0.1,0.7,0.3,1c0.7-1.3,0.3-0.7,1-2c0-0.9-0.6-0.2-0.9-0.8c0.3-0.7,0.3-1.5,1.1-1.9
							L95,69.6c0.4-1.4,1-2,2-2.2c0.4-1.3,0.8-2.3,1.4-3c0.6-0.8,1.3-1,1.6-1.3c0.3-0.2,0.4-0.7,0.4-1.1c0-0.3-0.1-0.6-0.3-0.9
							c-0.3-0.3-0.6-0.6-1.2-0.8c-0.5-0.2-1.2-0.2-1.7-0.2c-0.3,0-0.6,0.1-0.8,0.1c-0.3,0.1-0.6,0.2-0.8,0.3
							c-0.5,0.2-0.6,0.3-0.6,0.3c-1.8,0.9-2.7,1.7-3.5,2.5c-0.7,0.8-1.2,1.7-1.6,2.5C89.1,67.8,88.6,69.6,87.6,72z"/>
					</g>
				</g>
			</g>
		</g>
	</g>
	<g>
		<g>
			<g>
				<g>
					<g>
						<path class="st0" d="M146.5,77l-0.3,0.2C146.3,77.2,146.4,77.2,146.5,77z"/>
						<path class="st0" d="M163.7,65.6C163.7,65.6,163.7,65.6,163.7,65.6C163.7,65.6,163.7,65.6,163.7,65.6z"/>
						<path class="st0" d="M135,86.3L135,86.3c0-0.1,0-0.1,0-0.1L135,86.3z"/>
						<path class="st0" d="M141.7,70.4c-1.2,2-2.1,3.1-2.9,4.4c-0.8,1.2-1.5,2.6-2.1,4.9c-0.8,2.1-1.3,4.5-1.7,6.7
							c0.6,1.2-0.6,2.9-0.1,4.3l-0.5,0.4c0.2,0.5,0.3,1,0,1.5l-0.1,0c0.3,0.7,0,1.5,0.2,1.9l-0.1,0l0,0.9l-0.2-0.2
							c0.4,1.3,0.5,2.6,0.6,4l0.5-0.2c0,0.7,0.2,1.5,0.4,2.1c0.3,0.6,0.6,1.1,0.9,1.5c0.7,0.9,1.4,1.6,2.5,2.8l-0.1,0.1
							c2.1,0.4,3.3,0.8,4.9,1.2c1.7,0.3,3,0.3,4.3-0.9c-0.3,0.3,0.2,0.2,0.3,0.4c0.6-0.3,1.3-0.6,1.8-1c0.4-0.4,0.6-0.9,0.3-1.4
							c0.8-0.4,0.8-0.1,1.2,0.3c-0.3-0.4,0.4-1,0.9-1.4l-0.2,0.4l1.6-1.3l-0.9-0.5c1-0.4,1,0.8,1.6-0.1l-0.5-0.6
							c0.6-0.4,1.2-0.5,1.9-0.6c0.7-0.1,1.4-0.2,2.1-0.6c2.1-2.1,3.6-4.8,4.8-7.4c1.2-2.6,2.3-5.1,4-7.2l0.6,0
							c0.8,0.2-0.6-1.8,0.2-1.7l-0.1-0.7c0.2-0.1,0.5-0.4,0.6,0c0.2-0.5,0.1-0.6,0-1l0.7-0.4c0.6-1,0.7-2,0.9-3.1
							c0.1-1,0.2-2.1,0.6-3.3c0.4-0.6,0.7-1.5,0.9-2.5c0.2-1,0.3-2,0.2-3.2c0-0.5-0.1-1.4-0.2-2.2c-0.1-0.8-0.4-1.5-0.5-2.2
							c-0.2-0.7-0.6-1.3-0.9-1.8c-0.4-0.5-0.7-1-1.1-1.3c-2.2-2-5.3-2.8-8.8-2.1c-0.9,0.2-1.7,0.4-2.5,0.6c-0.6,0.2-1.2,0.4-1.8,0.7
							c-1.1,0.5-2.1,1.3-2.8,2.2c-0.2,0-0.3,0.4-0.3,0.5c-1.1,0.8-2.2,1.6-3.2,2.4c0,0-0.9,0.8-2,1.9c-1.1,1.2-2.3,2.7-3,4.1
							c-0.7,1.4-0.8,2.7,0.2,3c1,0.4,2.8-0.1,6.3-1.2l0.1,0.2c1.7-1.1,2.6-1.8,3-3.4c0.9,0.7,1.3-0.9,1.9-0.9l0,0.1
							c0.4-1.4,2.3-0.8,2.8-2.1c0,0.1,0.2,0.4,0,0.5c0.6-0.6,1.3-1.3,1.7-0.7c0.9-0.6,1.2-0.7,1.5-0.8c0.3-0.2,0.6-0.4,1.2-1
							l-0.1,0.2c0.3-0.4,0.5-0.3,0.6-0.3c0.1,0.1,0.2,0.2,0.4,0.2c0,0.1-0.1,0.2-0.1,0.2c0.4-0.2,0.6,0.1,0.7,0.4
							c0.1,0.3,0.1,0.6,0.3,0.7l-0.4,0.2c0.1,0.2,0.1,0.5,0.2,0.7l0.1-0.3c0.6-0.1,0.4,0.2,0.2,0.4c-0.2,0.2-0.6,0.7-0.2,1.2
							c-0.2,0.9,2.3,2.4,1.5,3.5c0.5,0.6-0.8-0.6-0.5,0.2c-0.6-0.1-0.3-0.4-0.9-0.3c0.2,0.8-0.9,1.1-0.7,2.1l-0.5-0.1
							c0.5,1.4-1.2,2.1-0.7,3.1c0,1.4-1.6,0.3-1.2,1.9l-0.8,0.2c-0.3,0.5,0.6,0.7,0.1,1.1c-0.4-0.2-0.6,0.6-0.8,0.1
							c-0.6,0.5-0.7,1.3-0.8,2c-0.2,0.8-0.4,1.6-1.3,2.2c0.5,0.7-0.3,1.3,0,1.9c-0.2-0.1-0.4,0.3-0.6,0.6c-0.2,0.2-0.4,0.3-0.5-0.3
							c0-0.1,0.1-0.2,0.2-0.2l-0.4-0.4c-1.3,0.4-0.5,1.9-1.2,2.7c0.3-0.2,0.5-0.5,0.6-0.1c-0.2,0.3-0.4,0.5-0.6,0.8l-0.2-0.4l-1,1
							l0.5,0.1c-0.6,0.4-1.4,0.1-1.3,1.1c0.1,0.5,0.9-0.1,0.6,0.6c-0.8,0.5-2.1,1.1-3,1.8c0.5,0.3,0.2,0.5,0.1,0.8l-0.4-0.3
							c-0.4,1.3-1-0.5-1.5,0.6l-0.1-0.3l0.4,1c-0.2,1.4-1-0.5-1.1,1.2c0.3-0.3,0.8,0.8,0.2,0.9l-0.1-0.5c-0.2,0.2-0.2,0.4-0.4,0.5
							c0-0.3-0.3-0.7-0.6-0.4l0-0.7c-0.1,0.4-0.2,0.8-0.3,1.1c-0.4-0.1-0.7,0-1,0.1c-0.3,0.1-0.6,0.2-0.8-0.1c0,0-0.3,0-0.5,0
							c-0.1,0-0.1,0-0.2,0.1c-0.1,0-0.1,0-0.1,0.1c0,0.1-0.1,0.2-0.1,0.4c0.1-0.5-0.1-0.6,0-1.2c0,0.5-0.6,0.9-0.4,0.3l0-0.1
							c0-0.3-0.1-0.2-0.3-0.2c-0.2,0-0.4-0.1-0.2-0.5c-0.6,0.2-0.4-0.4-1.1-0.2c-0.5-0.6-0.1-1.3,0.1-1.8c0.2-0.5,0.2-1-0.9-1.3
							c-0.1-0.7,0.6-0.8,0.8-1.2l0.1,0.2c0-1.4,0-1.8,0.3-2.8c-0.1-0.6-1.1-0.9-0.7-1.8c0.3,0.4,0.4,0,0.4-0.4c0,0.2,0.1,0.3,0.5,0
							c-0.1-0.1-0.2-0.2-0.2-0.3c0,0,0.1,0,0.1,0c0-0.6-0.1-0.6-0.3-0.3c-0.1,0-0.1,0-0.3,0c0.7-0.5,0.4-1.7,1.1-1.6
							c0.4-1.8,0.1-3.3,0.4-4.8c0.4,0,0.6,0.4,0.6,0.9l0.3-1.1c0.5,0.2,0.1,0.7,0.1,1c1.3-0.9,0.1-2.8,1.5-3.9l-0.3-0.5l0.1-0.1
							c-0.2-0.1-0.3-0.5-0.3-0.8c0.5,0,1,0.5,1.3-0.2c0.7-0.3,0.5-1.6,0.6-2.4c-0.3,0.3-0.4,0.1-0.5-0.1c0.2-0.3,0.7-0.3,0.6-0.7
							l0.6,0.3c-0.6-0.1-0.1-1.2-0.3-1.4c0.5,0,0.1,0.7,0.3,1c0.7-1.3,0.3-0.7,1-2c0-0.9-0.6-0.2-0.9-0.8c0.3-0.7,0.3-1.5,1.1-1.9
							l-0.6-0.1c0.4-1.4,1-2,2-2.2c0.4-1.3,0.8-2.3,1.4-3c0.6-0.8,1.3-1,1.6-1.3c0.3-0.2,0.4-0.7,0.4-1.1c0-0.3-0.1-0.6-0.3-0.9
							c-0.3-0.3-0.6-0.6-1.2-0.8c-0.5-0.2-1.2-0.2-1.7-0.2c-0.3,0-0.6,0.1-0.8,0.1c-0.3,0.1-0.6,0.2-0.8,0.3
							c-0.5,0.2-0.6,0.3-0.6,0.3c-1.8,0.9-2.7,1.7-3.5,2.5c-0.7,0.8-1.2,1.7-1.6,2.5C143.3,66.1,142.7,68,141.7,70.4z"/>
					</g>
				</g>
			</g>
		</g>
	</g>
	<g>
		<g>
			<g>
				<g>
					<g>
						<path class="st0" d="M143.9,37.2l-0.3,0.1C143.7,37.3,143.8,37.3,143.9,37.2z"/>
						<path class="st0" d="M129.9,85.1C129.9,85.1,129.9,85.2,129.9,85.1C129.9,85.1,129.9,85.1,129.9,85.1z"/>
						<path class="st0" d="M134.1,42.2L134.1,42.2C134.1,42.1,134.1,42.1,134.1,42.2L134.1,42.2z"/>
						<path class="st0" d="M137.8,32.8c-1.1,2.4-2.3,2.8-2.7,5.5c-0.5,1.2-0.6,2.6-0.9,3.9c0.6,0.8-0.5,1.6,0,2.5l-0.5,0.1
							c0.2,0.3,0.2,0.6-0.1,0.8l-0.1-0.1c0.2,0.5-0.1,0.8,0,1l-0.1-0.1l-0.1,0.4l-0.2-0.1c0.2,0.7,0,1.4-0.3,1.9l0.6,0.1
							c-1,1,0,1.8-1.1,2.6l-0.1-0.1c1,1.8-1.7,1.8-0.7,3.7c-0.1-0.2-0.3,0-0.4-0.1c0,0.7-0.2,1.4,0.9,1.8c-0.2,0.5-0.5,0.3-0.9,0.2
							c0.5,0.2,0.5,0.6,0.5,1l-0.1-0.2l-0.2,1.1l1,0.1c-0.4,0.5-1.1-0.2-1.1,0.4l0.7,0.2c-0.4,0.7-1.7,0.8-2.5,1.4
							c-1.3,3.1-0.3,7.1-2.4,9.7l-0.6,0c-0.8-0.2,1,1.1,0.2,1l0.3,0.4c-0.2,0.1-0.4,0.2-0.5,0c-0.1,0.3,0,0.4,0.2,0.6l-0.6,0.2
							c-0.7,1.1,0,2.5-0.6,3.7c-1.5,1.3-1.3,4.5-1.2,6.3c0.6,2.7-3.5,4.5-2.9,7.2c-0.1,0,0.1,0.3,0.1,0.4l-0.9,2.1
							c0,0-0.2,0.6-0.5,1.5c-0.2,0.9-0.5,2-0.4,2.9c0.1,0.9,0.4,1.7,1.3,2c0.9,0.2,2.5,0,5-1.5l0.2,0.1c0.9-1.1,1.3-1.8,0.7-3
							c1.1,0.2,0.5-1,0.9-1.1l0.1,0.1c-0.6-1,1.2-1.3,0.7-2.3c0.1,0.1,0.4,0.2,0.3,0.3c0-0.6,0-1.4,0.7-1.2c0.2-1.3,1.1-3,0.3-4.1
							l0.2,0.1c-0.6-0.7,0.1-0.6-0.1-1.2c0.1,0,0.1,0,0.2,0c-0.5-0.7,0.3-1.5,0.1-2l0.4,0.1l0.2-1l-0.2,0.4
							c-1.1-0.5,0.9-0.6,0.4-1.5c0.3-0.6-2.1-2-1.3-2.6c-0.5-0.5,0.8,0.5,0.5-0.1c0.6,0.1,0.3,0.3,0.9,0.3c-0.2-0.6,0.8-0.6,0.6-1.4
							l0.5,0.1c-0.7-1,1-1.3,0.3-2.1c-0.2-0.9,1.6-0.2,0.9-1.3l0.7-0.2c0.2-0.3-0.7-0.5-0.3-0.8c0.4,0.1,0.5-0.4,0.8-0.1
							c0.9-0.7-0.4-2.1,1-3c-0.7-0.5-0.1-0.9-0.6-1.3c0.4,0.1,0.4-1.2,1-0.3c0,0.1,0,0.2-0.1,0.1l0.4,0.2c1.1-0.4-0.2-1.4,0.2-2
							c-0.2,0.2-0.2,0.4-0.5,0.2l0.2-0.6l0.4,0.2l0.5-0.8l-0.5,0c0.4-0.4,1.3-0.3,0.7-1c-0.3-0.3-0.8,0.2-0.8-0.3
							c0.5-0.5,1.3-1.2,1.7-1.9c-0.6-0.1-0.5-0.3-0.5-0.5l0.5,0.1c-0.4-1,1.1,0,0.9-0.9l0.3,0.2l-0.9-0.5c-0.7-1,1.1-0.1,0.1-1.3
							c0,0.4-1.1-0.2-0.8-0.5l0.4,0.3c0-0.3-0.2-0.4-0.1-0.5c0.2,0.2,0.6,0.3,0.7-0.1l0.5,0.4l-0.6-0.9c0.6-0.3,0.3-1.3,1-1.2
							c0,0,0.6-0.9,0-1.4c0.4,0.3,0.7-0.2,1.2,0.2c-0.4-0.4-0.6-1.3,0.1-1.5l0,0.1c0.9-1-0.1-2.2,0.9-3c-0.6-0.1-0.1-0.6-0.8-0.7
							c-0.4-1.3,2-1.5,0-2.6c0-0.5,0.7-0.4,0.9-0.6l0.1,0.2c0.1-1,0.2-1.2,0.4-1.9c-0.1-0.4-1.1-0.8-0.7-1.3
							c0.3,0.3,0.3,0.1,0.4-0.2c0,0.2,0.2,0.3,0.5,0c-0.1-0.1-0.2-0.2-0.2-0.3c0,0,0.1,0,0.1,0c0-0.4-0.2-0.4-0.3-0.2
							c-0.1,0-0.1,0-0.3,0c0.6-0.2,0.3-1.1,1-0.9c0.2-1.2-0.3-2.2-0.2-3.3c0.4,0,0.6,0.3,0.7,0.6l0.1-0.7c0.5,0.2,0.2,0.5,0.2,0.7
							c1.1-0.5-0.3-1.9,0.7-2.6l-0.3-0.3l0.1,0c-0.2-0.1-0.4-0.4-0.5-0.5c0.5,0,1,0.3,1.1-0.1c0.5-0.2,0.1-1.1,0-1.7
							c-0.2,0.2-0.4,0.1-0.5-0.1c0.1-0.2,0.5-0.2,0.4-0.5l0.6,0.2c-0.6-0.1-0.4-0.8-0.6-1c0.5,0,0.3,0.5,0.6,0.6
							c0.2-0.9,0.1-0.5,0.4-1.4c-0.3-0.6-0.6-0.1-1.1-0.5c0-0.5-0.3-1,0.3-1.4l-0.6,0c-0.2-0.9,0.1-1.4,0.8-1.8
							c-2.4-7.4-5.6-3.1-5.6-3.1C137.1,28.1,138.2,29.8,137.8,32.8z"/>
					</g>
				</g>
			</g>
		</g>
	</g>
	<g>
		<g>
			<g>
				<g>
					<g>
						<path class="st0" d="M124.4,58.7l0.2,0.2C124.6,58.8,124.5,58.7,124.4,58.7z"/>
						<path class="st0" d="M143.5,52.8C143.5,52.8,143.5,52.8,143.5,52.8C143.5,52.8,143.5,52.8,143.5,52.8z"/>
						<path class="st0" d="M130.1,64.8L130.1,64.8C130.1,64.9,130.1,64.9,130.1,64.8L130.1,64.8z"/>
						<path class="st0" d="M126.7,65.6c0.9-0.1,1.6,0.8,2.3,0c0.5-0.1,0.8-0.5,1.2-0.8c-0.1-0.9,0.6-0.2,0.6-1l0.3,0.4
							c0-0.3,0.1-0.4,0.2-0.2l0,0.1c0-0.4,0.2-0.2,0.2-0.4l0,0.1l0.1-0.1l0,0.2c0.1-0.4,0.3-0.5,0.6-0.4L132,63
							c0.6,0.5,0.4-0.7,1.1-0.1l0,0.1c0.1-1.6,1.1,0.8,1.2-0.8c0,0.2,0.1,0.3,0.1,0.4c0.2-0.2,0.4-0.4,0.1-1.5
							c0.2,0,0.2,0.3,0.4,0.7c-0.1-0.5,0-0.7,0.1-0.8l0,0.2l0.4-0.3l-0.3-0.9c0.3,0.2,0.4,1.1,0.5,0.8l-0.2-0.8
							c0.3,0.1,0.8,1.2,1.3,1.6c1.3,0,2.1-2.3,3.6-1.2l0.2,0.6c0.2,0.8,0-1.3,0.3-0.6l0-0.4c0.1,0.1,0.2,0.3,0.2,0.5
							c0.1,0,0.1-0.1,0.1-0.4l0.3,0.5c0.6,0.3,0.8-0.8,1.3-0.8c0.9,0.9,1.9-0.4,2.4-1.2c0.6-1.5,2.8,1.4,3.3-0.4
							c0.1,0.1,0.1-0.2,0-0.3l1-0.2c0,0,0.3-0.1,0.6-0.3c0.3-0.2,0.7-0.6,0.9-1.1c0.4-1-0.2-2.6-3.1-5.3l-0.1-0.2
							c-0.6-0.2-0.9-0.2-0.8,0.8c-0.5-1.1-0.4,0-0.6-0.3l0-0.1c0,0.9-0.8-0.5-0.8,0.4c0-0.1-0.1-0.4-0.1-0.4
							c-0.1,0.2-0.3,0.5-0.5-0.1c-0.4,0.3-1.1,0.2-1.1,1.3l0-0.2c0,0.7-0.2,0.2-0.3,0.6c0-0.1-0.1-0.1-0.1-0.2
							c0,0.7-0.5,0.3-0.6,0.6l-0.1-0.4l-0.3,0.2l0.2,0c0.3,1.2-0.5-0.7-0.6,0.2c-0.3-0.1,0.2,2.6-0.3,2.1c0,0.6-0.1-0.9-0.2-0.5
							c-0.2-0.6,0-0.4-0.2-0.9c-0.1,0.3-0.5-0.5-0.6-0.1l-0.1-0.5c-0.1,1-0.7-0.5-0.7,0.4c-0.2,0.5-0.6-1.4-0.7-0.3l-0.3-0.6
							c-0.2-0.1,0.1,0.8-0.1,0.5c-0.1-0.4-0.3-0.3-0.3-0.7c-0.5-0.6-0.5,1.1-1.2,0.1c0.1,0.8-0.3,0.4-0.2,1
							c-0.1-0.3-0.5,0.1-0.4-0.8c0-0.1,0.1-0.1,0.1,0.1l-0.1-0.5c-0.5-0.8-0.4,0.6-0.7,0.5c0.1,0.1,0.2,0.1,0.2,0.4l-0.3,0l-0.1-0.4
							l-0.4-0.1l0.2,0.5c-0.2-0.2-0.5-1-0.6-0.3c0,0.4,0.3,0.6,0.2,0.8c-0.3-0.3-0.8-0.7-1.2-0.7c0.2,0.5,0.1,0.5,0,0.7l-0.1-0.5
							c-0.2,0.8-0.4-1-0.6-0.4l-0.1-0.3l0.2,1c0,1-0.4-1-0.4,0.4c0.1-0.1,0.3,1,0.1,0.9l-0.1-0.5c-0.1,0.1,0,0.3-0.1,0.2
							c0-0.3-0.2-0.7-0.3-0.6l-0.1-0.6l0,0.9c-0.3-0.4-0.5,0.3-0.7-0.4c0,0-0.5-0.2-0.4,0.5c0-0.5-0.3-0.6-0.4-1.1
							c0,0.5-0.2,1-0.5,0.5l0-0.1c-0.6-0.4-0.6,1-1.2,0.5c0.2,0.5-0.1,0.3,0.1,1c-0.2,0.8-1.3-1.2-0.7,1.1c-0.2,0.2-0.4-0.4-0.5-0.5
							l0-0.1c-0.3,0.3-0.4,0.4-0.7,0.4c-0.1,0.3,0.3,1.3-0.1,1.1c-0.1-0.4-0.1-0.3-0.2-0.3c0-0.1,0-0.2-0.2-0.5c0,0.1,0,0.2,0,0.3
							c0,0,0-0.1,0-0.1c-0.1,0.2,0,0.3,0.1,0.3c0,0.1,0.1,0.1,0.1,0.2c-0.4-0.4-0.4,0.2-0.7-0.5c-0.4,0.3-0.5,1.2-0.7,1.6
							c-0.2-0.3-0.2-0.7-0.2-0.9l-0.2,0.2c-0.2-0.5,0-0.4,0.1-0.5c-0.7-0.7-0.3,1.1-1,0.5l0.1,0.4l-0.1-0.1c0.1,0.2,0.1,0.5,0.1,0.6
							c-0.2-0.4-0.4-1-0.6-0.9c-0.3-0.3-0.3,0.4-0.4,0.7c0.1,0,0.2,0.3,0.2,0.4c-0.1,0.1-0.3-0.3-0.3-0.1l-0.3-0.6
							c0.3,0.5,0,0.7,0.1,0.9c-0.3-0.4,0-0.4-0.2-0.8c-0.3,0.2-0.2,0.1-0.5,0.4c0,0.5,0.3,0.5,0.5,1c-0.1,0.2-0.1,0.7-0.4,0.4
							l0.3,0.5c-0.1,0.5-0.3,0.6-0.8,0.2c0,2.6,0.8,4,1.5,4.7c0.7,0.8,1.2,0.9,1.2,0.9c0.7,0.3,0.9,0.1,1-0.3
							C126.2,66.6,126.3,66,126.7,65.6z"/>
					</g>
				</g>
			</g>
		</g>
	</g>
	<g>
		<g>
			<g>
				<g>
					<g>
						<path class="st0" d="M178.6,77.5l-0.4,0.4C178.3,78,178.4,77.9,178.6,77.5z"/>
						<path class="st0" d="M175.8,146.6c0,0-0.1,0.1-0.1,0.1C175.7,146.7,175.8,146.6,175.8,146.6z"/>
						<path class="st0" d="M179.3,99.3C179.2,99.3,179.2,99.3,179.3,99.3c-0.1,0.1-0.2,0.1-0.3,0.2L179.3,99.3z"/>
						<path class="st0" d="M175.8,67.5c-2.5,3.8-3.9,6.3-5.3,8.9c-0.6,1.3-1.2,2.7-1.7,4.3c-0.3,0.8-0.5,1.7-0.7,2.7
							c-0.1,0.5-0.2,1-0.3,1.6c0,0.3-0.1,0.6-0.1,0.8c0,0.1,0,0.3-0.1,0.4c0,0.2,0,0.4-0.1,0.6c-0.1,0.8-0.2,1.6-0.3,2.5
							c0,1-0.1,2,0.1,2.9c0.2,1.9,1,3.6,2.1,5c0.6,0.6,1.3,1.3,2,1.7c0.8,0.4,1.6,0.7,2.5,0.9c1.7,0.3,3.5,0.1,5.3-0.5
							c1.5-0.8,4-2.2,5.1-2.9c1.3-0.8,2.6-1.7,3.4-2.8c0.4-0.1,0.7-0.2,1.1-0.3c0.5-0.8,1.2-1.6,2-2.1l0.1,0.1
							c0.6-1.2,1.7-2,1.9-2.6l0.1,0.1l0.9-1.2l0,0.3c1.1-1.9,2.4-3.6,3.7-5.1l-0.6-0.2c2.9-3,2.7-4.9,5.2-7.6l0.1,0.1
							c0.1-0.6,0.3-1.1,0.5-1.6c0.2-0.5,0.3-0.8,0.6-1.2c0.5-0.8,1.1-1.5,1.7-2.2c0.6-0.7,1.2-1.5,1.7-2.6c0.5-1,1-2.3,1-4
							c0,0.8,0.4-0.3,0.5-0.2c0-0.3,0.1-0.6,0.1-0.9c0-0.3,0-0.7,0-1l-0.3-11.7l-6.8,9c-0.4,0.5-0.7,0.9-1,1.4
							c-0.3,0.4-0.4,0.9-0.6,1.2c-0.3,0.7-0.2,1.3,0.2,1.5c-0.8,1.6-0.9,1.2-1.5,1.2c0.2,0.1,0.2,0.5,0.1,1.1
							c-0.1,0.6-0.2,1.2-0.4,1.9l0-0.6c-0.4,1.2-0.6,2.5-0.8,3.7l1.1-0.5c-0.7,1.8-1.2,0.2-1.4,2.1l0.8,0.1c-0.6,2.5-2,3.9-2.9,6.3
							c-0.2,1.3-0.3,2.5-0.5,3.8c-0.1,0.6-0.1,1.2-0.2,1.8c-0.1,0.6-0.2,1.2-0.3,1.9c-0.3,2.5-0.7,5.1-1.1,7.6
							c-0.8,5-1.9,10-3.9,14.2l-0.7,0.2c-0.9-0.1,0.4,2.8-0.4,2.9l0,1.1c-0.2,0.2-0.6,0.8-0.6,0.2c-0.4,0.9-0.2,1-0.2,1.8l-0.9,0.8
							c-1.7,3.5-2,7-3.9,10.6c-1.6,2-3.1,5.2-4.8,8.2c-1.6,3-3.5,6-5,8c-2,3-5.6,4.9-9.1,5.8c-0.9,0.2-1.8,0.4-2.7,0.5
							c-0.9,0.2-1.8,0.2-2.6,0.3c-0.9,0.1-1.7,0.1-2.6,0.2c-0.9,0-1.7,0.2-2.6,0.3c-0.2-0.1-0.9,0.1-0.9,0.2
							c-2.2-0.3-4.4-0.7-6.4-1.3c0,0-0.5-0.1-1.2-0.4c-0.4-0.1-0.8-0.3-1.3-0.5c-0.5-0.2-1-0.4-1.5-0.7c-1-0.5-2.1-1.2-2.9-1.9
							c-0.2-0.2-0.4-0.4-0.6-0.6l-0.3-0.3c-0.1-0.1-0.1-0.2-0.2-0.3c-0.2-0.2-0.3-0.4-0.5-0.6c-0.1-0.2-0.2-0.4-0.4-0.6
							c-0.5-0.8-0.8-1.7-1.1-2.3c-0.3-0.6-0.7-1-1.2-0.8c-0.2,0.1-0.5,0.3-0.8,0.7c-0.3,0.4-0.6,1-0.8,1.9c-0.2,0.9-0.3,2.1,0,3.5
							c0.2,0.7,0.3,1.5,0.7,2.3c0.3,0.9,0.9,1.7,1.5,2.5l-0.3,0c1.7,1.8,3.4,2.9,4.9,3.6c0.8,0.3,1.5,0.6,2.3,0.7
							c0.8,0.1,1.5,0.2,2.3,0.2c0.2,1.3,3.4,1,4.3,1.4l-0.1,0.1c1.4-0.2,2.6,0.1,4,0.4c0.6,0.2,1.4,0.2,2,0.3c0.7,0,1.4,0,2-0.3
							c-0.1,0.1-0.1,0.4-0.7,0.5c1-0.1,2.1-0.3,3-0.4c0.9-0.1,1.6-0.2,1.8,0.2c0.6-0.1,1.2-0.3,1.8-0.4c0.6-0.2,1.2-0.3,1.9-0.5
							c0.6-0.2,1.2-0.5,1.9-0.7c0.6-0.2,1.2-0.6,1.8-0.8c0.6-0.3,1.1-0.6,1.6-0.9c0.5-0.3,1-0.7,1.4-1c0.8-0.7,1.5-1.4,1.9-2l0,0.3
							c0.8-1.6,1.6-1.4,2.7-2.9c0.1,0,0.3-0.1,0.3,0c0.4-0.8,1.2-1.8,2.1-2.7c0.8-0.9,1.6-1.7,1.9-2.4l0.4,0.2
							c0.7-0.9,1.3-1.9,1.9-2.8l-0.8,1c-0.8-1,2.1-1.7,2.7-4.2c1.3-1.9,0-5.2,1.5-7c0-1.2,0.4,1.3,0.7-0.4c0.6,0.2,0,0.9,0.7,0.7
							c0.4-1.6,1.7-2.1,2.2-4.1l0.5,0.1c0.2-2.7,2.5-4.3,2.3-6.2c0.5-2.7,2-1.2,2-4.2l1-0.8c0.5-1.1-0.5-1.1,0.2-2.2
							c0.4,0.2,0.8-1.5,1-0.6c1.5-2.7,0.9-6.1,2.9-9.7c-0.6-1,0.3-2.9-0.1-3.6c0.4,0,0.9-3.9,1.2-1.5c0,0.2-0.1,0.5-0.2,0.5l0.4,0.4
							c1.4-2,0.4-4.1,1-6.3c-0.3,0.6-0.4,1.5-0.6,0.8l0.5-2l0.3,0.5l0.8-3l-0.6,0.3c0.3-0.7,0.6-1.2,0.9-1.7
							c0.2-0.5,0.4-1.2,0.2-2.1c-0.3-0.8-0.9,1.4-0.8-0.3c0.6-2,1.5-4.9,2-7.3c-0.6,0.1-0.5-0.5-0.5-1.2l0.5,0
							c-0.3-2.6,1.2-0.7,1.1-3.2l0.3,0.3l-0.9-0.8c-0.2-1.2,0.1-1.4,0.4-1.6c0.3-0.3,0.5-0.5,0.3-1.8c-0.1,0.4-0.4,0.4-0.6,0.2
							c-0.2-0.2-0.3-0.7,0-1.2l0.3,0.4c0.1-0.6,0-0.9,0.3-1.2c0.1,0.4,0.6,0.5,0.8-0.3l0.3,0.7c0-0.3-0.1-0.6-0.1-0.8l0-0.8
							c0.3-0.2,0.6-0.4,0.8-0.7l-6.8-2.7c0,0.3-0.1,1.3-0.7,1.4c0,0-0.3,0.5-0.6,1.2c-0.3,0.7-0.7,1.5-0.6,2
							c-0.1-0.8-1.1,0.6-1.3-0.1c0,0.5-0.2,1.3-0.6,2.1c-0.2,0.4-0.4,0.8-0.7,1.2c-0.2,0.3-0.5,0.6-0.7,0.7l0-0.2
							c-2.3,2.8-2.5,5.7-5,7.9c0.6,0.2-0.7,1.4,0.1,1.5c-0.7,1.6-2,2.5-2.9,3.3c-1,0.8-1.6,1.6-1.2,2.8c-0.5,0.6-0.8,0.8-1.2,0.9
							c-0.3,0.1-0.7,0.1-1,0.3l0.2-0.3c-1.8,1.9-2.5,2.4-4.2,3.4c-0.2,0.2-0.3,0.4-0.4,0.6c-0.1,0.2-0.2,0.4-0.2,0.6
							c-0.1,0.3-0.3,0.7-0.8,0.8c0.2-0.6-0.1-0.3-0.5-0.2c0.2-0.2,0.2-0.3-0.1-0.5c-0.1,0.2-0.2,0.3-0.3,0.4c0,0,0-0.1,0-0.1
							c-0.6,0.3-0.6,0.4-0.3,0.4c0,0.1,0,0.2,0,0.3c-0.3-0.3-0.7-0.2-1.1-0.4c-0.4-0.1-0.5-0.4-0.2-0.8c-0.5-0.5-0.8-1.2-1-1.9
							c-0.1-0.4-0.1-1-0.2-1.5c0-0.7,0-1.4,0.1-2.1c0.4-0.2,0.6,0.5,0.6,1.3c0.1-0.7,0.2-1.3,0.3-2c0.5,0.1,0,1.2,0,1.8
							c0.3-0.5,0.5-1.1,0.6-1.7c0.1-0.6,0.2-1.3,0.3-1.9c0.1-1.3,0.4-2.7,1.3-3.9l-0.2-0.7l0.1-0.1c-0.2-0.1-0.3-0.8-0.1-1.2
							c0.6-0.2,1,0.5,1.5-0.8c0.4-0.4,0.7-1.1,1-1.9c0.2-0.8,0.5-1.7,0.8-2.4c-0.5,0.6-0.6,0.3-0.5-0.1c0.4-0.6,1-0.7,1.1-1.3
							l0.6,0.3c-0.6-0.1,0.5-1.9,0.5-2.2c0.3,0,0.2,0.3,0.1,0.6c-0.1,0.3-0.3,0.7-0.2,0.9c0.8-1.2,1-1.4,1.2-1.7
							c0.2-0.3,0.4-0.6,1.3-1.6c0.7-1.4-0.6-0.2-0.5-1.1c0.9-1,1.6-2.2,3.1-2.7l-0.7-0.2c0.2-0.2,0.5-0.4,0.7-0.6
							c0.2-0.2,0.5-0.3,0.7-0.4c0.5-0.3,0.9-0.6,1.3-0.6c0.8-0.2,1.6-0.3,2.2-0.1c1-0.5,2.3-0.8,3.2-0.5c0.9,0.4,1.2,1.2,1.5,1.8
							c0.3,0.6,0.7,1.3,1,1.9c0.2,0.3,0.3,0.5,0.5,0.6c0.1,0.2,0.3,0.3,0.4,0.4c0.5,0.4,1,0.6,1.3,0.5c0.3-0.1,0.5-0.3,0.6-0.8
							c0.2-0.3,0.3-0.6,0.4-1c0-0.8,0-2.2-0.1-3.2c-0.1-1.1-0.4-2-0.7-2.6c-0.2-0.3-0.3-0.5-0.4-0.7c-0.1-0.2-0.2-0.2-0.2-0.2
							c-4.1-5.9-13.6-1.7-15.7,0.2c-0.8,0.6-1.6,1.3-2.3,2.1c-0.4,0.4-0.7,0.8-1.1,1.1c-0.3,0.4-0.7,0.8-1,1.2
							C178.3,63.3,177.1,65.2,175.8,67.5z"/>
					</g>
				</g>
			</g>
		</g>
	</g>
	<g>
		<g>
			<g>
				<g>
					<g>
						<path class="st0" d="M217.5,74.1l-0.3,0.2C217.4,74.3,217.5,74.3,217.5,74.1z"/>
						<path class="st0" d="M224.8,57.4C224.8,57.3,224.8,57.3,224.8,57.4C224.8,57.3,224.8,57.4,224.8,57.4z"/>
						<path class="st0" d="M208.4,80.7L208.4,80.7C208.4,80.7,208.4,80.6,208.4,80.7L208.4,80.7z"/>
						<path class="st0" d="M210.8,70.6c-0.2,0.7-0.3,1.2-0.5,1.6c-0.1,0.1-0.1,0.2-0.1,0.3c-0.1,0.1-0.1,0.2-0.2,0.3
							c-0.1,0.2-0.2,0.4-0.3,0.7c-0.4,0.9-0.7,1.8-0.7,3.2c-0.3,1.3-0.3,2.8-0.5,4.1c0.7,0.8-0.3,1.6,0.2,2.5l-0.5,0.1
							c0.2,0.3,0.3,0.6-0.1,0.8l-0.1-0.1c0.3,0.4-0.1,0.8,0.1,1l-0.1-0.1l-0.1,0.4l-0.2-0.1c0.2,0.7,0,1.3-0.4,1.7l0.6,0.2
							c-0.8,0.6-0.4,1.2-0.7,1.8l7.1,1.6c0-0.2,0.1-0.3,0.3-0.5l0.1,0c-0.8-0.5-0.4-1.1-0.1-1.5c0.4-0.5,0.7-0.8,0.1-1.6
							c0.1,0.2,0.3,0,0.4,0c0-0.6,0.1-1.3-1-1.6c0.2-0.4,0.5-0.3,0.9-0.2c-0.5-0.2-0.5-0.6-0.4-1l0.1,0.2l0.2-1.1l-1-0.1
							c0.5-0.4,1.1,0.3,1.1-0.3l-0.7-0.3c0.4-0.7,1.7-0.7,2.6-1.1c0.8-1.4,1.3-3,1.9-4.6c0.6-1.6,1.4-3.1,2.9-4l0.6,0.2
							c0.7,0.4-0.6-1.4,0.2-1.1l-0.1-0.5c0.2,0,0.5-0.1,0.5,0.2c0.2-0.3,0.1-0.4,0-0.7l0.7,0c1.1-0.9,0.9-2.4,1.9-3.4
							c1.9-0.7,2.9-3.7,3.7-5.4c0.4-1.3,1.7-1.9,3-2.3c1.3-0.4,2.4-0.6,2.9-1.7c0.1,0.1,0.1-0.2,0.1-0.3c0.6-0.2,1.1-0.4,1.6-0.5
							c0,0,0.5-0.1,1.1-0.2c0.6-0.1,1.3-0.2,2.1-0.4c0.7-0.2,1.5-0.5,1.8-1.5c0.1-0.5,0.1-1.1-0.2-1.9c-0.3-0.8-1-1.9-2.4-2.9
							l0.1-0.2c-1.8-0.6-3.2-0.5-4.1,0.7c-0.2-0.5-0.6-0.5-1-0.3c-0.3,0.2-0.7,0.5-0.9,0.4l0-0.1c-0.3,0.6-0.9,0.6-1.4,0.7
							c-0.6,0.1-1.1,0.1-1.3,0.7c0-0.1-0.2-0.4,0-0.5c-0.6,0.5-1.2,1.2-1.6,0.7c-1.3,1.1-3.1,2.4-3.1,3.8l-0.1-0.2
							c0.1,0.9-0.4,0.6-0.6,1.3c-0.1,0-0.1,0-0.2-0.1c0.1,0.9-1.1,1.4-1.2,1.9l-0.4-0.3l-0.7,1l0.3-0.3c0.9,0.9-1.2,0.2-1.1,1.3
							c-0.6,0.5,1.1,2.8,0.1,3.1c0.2,0.6-0.6-0.8-0.5-0.1c-0.5-0.4-0.2-0.4-0.7-0.6c-0.1,0.6-1.1,0.4-1.1,1.2l-0.4-0.3
							c0.2,1.3-1.5,1-1.1,2c-0.2,1-1.6-0.3-1.3,1l-0.8-0.1c-0.3,0.3,0.5,0.7,0,0.9c-0.3-0.3-0.6,0.3-0.8-0.2
							c-1.1,0.5-0.4,2.3-2.1,2.8c0.5,0.7-0.3,1,0.2,1.5c-0.3-0.2-0.8,1.2-1,0.1c0-0.1,0.1-0.2,0.2-0.1l-0.4-0.3
							c-1.2,0.2-0.3,1.5-0.8,2.1c0.3-0.1,0.4-0.4,0.6-0.1l-0.4,0.6l-0.3-0.3c-0.3,0.3-0.5,0.6-0.8,0.9l0.5,0.1c-0.5,0.4-1.4,0.1-1,1
							c0.2,0.4,0.8-0.1,0.7,0.4c-0.6,0.5-1.6,1.2-2.1,2.1c0.6,0.2,0.4,0.4,0.4,0.7l-0.5-0.2c0.2,1.2-1.2-0.1-1,1.1l-0.3-0.2l0.9,0.6
							c0.6,1.2-1.1,0.1-0.2,1.5c0.1-0.4,1.1,0.2,0.7,0.6l-0.4-0.3c0,0.3,0.2,0.4,0,0.6c-0.2-0.2-0.6-0.3-0.7,0.1l-0.5-0.4l0.6,1
							c-0.7,0.4-0.3,1.6-1,1.7c0,0-0.1,0.3-0.2,0.7c-0.1,0.4,0,0.8,0.3,1c-0.4-0.3-0.7,0.4-1.2,0.1c0.5,0.5,0.8,1.5,0.2,2l-0.1-0.1
							c-0.2,0.5-0.2,1-0.1,1.5l3.3,20.8l5.7-18.8c0.3-0.9,0.2-1.9,0.9-2.6c-0.6-0.2,0-0.7-0.8-0.8c-0.2-1.5,2.2-1.9,0.2-3
							c0-0.6,0.7-0.5,0.9-0.8l0.1,0.2c0.1-1.1,0.1-1.4,0.4-2.2c-0.1-0.4-1.1-0.7-0.8-1.4c0.4,0.3,0.3,0,0.4-0.2c0,0.2,0.2,0.3,0.5,0
							c-0.1-0.1-0.2-0.2-0.2-0.2c0,0,0.1,0,0.1,0c-0.1-0.5-0.2-0.4-0.3-0.2c-0.1,0-0.1,0-0.3,0c0.6-0.3,0.2-1.2,0.9-1.2
							c0.1-1.3-0.5-2.3-0.6-3.4c0.4-0.1,0.7,0.2,0.8,0.6l0-0.8c0.5,0.1,0.2,0.5,0.3,0.7c1-0.7-0.6-2,0.4-2.9l-0.4-0.3l0.1,0
							c-0.2,0-0.5-0.3-0.5-0.5c0.5-0.1,1.1,0.2,1.1-0.4c0.5-0.4,0-1.3-0.2-1.9c-0.1,0.3-0.4,0.2-0.5,0c0-0.3,0.5-0.4,0.3-0.6l0.6,0
							c-0.6,0-0.6-0.7-0.8-0.9c0.5-0.1,0.4,0.4,0.7,0.6c0.1-1,0-0.5,0.1-1.5c-0.4-0.6-0.6,0-1.1-0.3c-0.1-0.5-0.4-1,0-1.5l-0.6,0.1
							c-0.3-1-0.1-1.5,0.6-1.9c-0.7-1.8-1-3.2-1.4-4.1c-0.4-0.9-0.9-1.2-1.5-1.3c-0.6,0-1.3,0.5-1.8,1c-0.3,0.2-0.4,0.5-0.6,0.6
							c-0.1,0.2-0.2,0.3-0.2,0.3c-1.3,1.7-1.4,3-1.4,4.3C210.4,67.7,210.7,69,210.8,70.6z"/>
					</g>
				</g>
			</g>
		</g>
	</g>
	<g>
		<g>
			<g>
				<g>
					<g>
						<path class="st0" d="M246.2,72.4l-0.4,0.1C245.9,72.5,246,72.5,246.2,72.4z"/>
						<path class="st0" d="M258.4,79.6C258.4,79.6,258.4,79.6,258.4,79.6C258.4,79.6,258.4,79.6,258.4,79.6z"/>
						<path class="st0" d="M233,77.7L233,77.7c0-0.1,0-0.1,0-0.1L233,77.7z"/>
						<path class="st0" d="M243.5,64.7c-1.8,1.5-2.9,2.3-4,3.3c-0.5,0.5-1.1,0.9-1.6,1.5c-0.5,0.6-1.1,1.4-1.7,2.4
							c-1.3,1.7-2.3,3.8-3.2,5.8c0.3,1.3-1.3,2.6-1.1,4l-0.6,0.3c0.1,0.5,0.1,1-0.3,1.4l-0.1-0.1c0.1,0.8-0.3,1.5-0.2,1.9l-0.1-0.1
							l-0.1,0.9l-0.2-0.2c0.1,1.8,0,3.5,0.2,5.1l0.5-0.3c0,1.6,0.6,2.6,1.2,3.4c0.7,0.8,1.3,1.4,2.2,2.5l-0.1,0.1
							c0.3,0.1,0.7,0.1,0.9,0.2c0.4,0.1,0.7,0.2,1,0.3c0.3,0.1,0.6,0.3,0.9,0.4c0.3,0.1,0.6,0.2,0.9,0.4c0.3,0.1,0.6,0.2,0.9,0.3
							c1.2,0.3,2.7,0.3,4-1.1c-0.4,0.4,0.3,0.2,0.3,0.4c1.5-0.9,2.9-2.3,2.2-3.2c0.8-0.8,0.9-0.4,1.4-0.2c-0.3-0.4,0-1,0.4-1.6
							l-0.1,0.4c0.4-0.5,0.7-1.1,1-1.6l-1-0.3c0.8-0.6,1.1,0.5,1.4-0.4l-0.6-0.4c0.9-1,2.3-1,3.4-1.8c3-4.4,3.4-10.1,6.8-13.4
							l0.6,0.1c0.8,0.3-0.5-1.7,0.2-1.4l-0.1-0.6c0.2,0,0.5-0.2,0.5,0.1c0.3-0.4,0.1-0.4,0.1-0.9l0.7-0.1c0.2-0.2,0.4-0.4,0.5-0.6
							c0.1-0.2,0.3-0.4,0.3-0.6l0.1-0.3l0.1-0.2c0-0.1,0.1-0.2,0.1-0.2l0-0.1l0,0c0,0,0,0-0.1-0.2l-5.9-3.9c0,0.5-0.1,1.1-0.4,1.7
							c-1.7,1.9-2.2,6.7-2.4,9.5c0.1,2-0.9,4-1.8,6.1c-0.8,2.1-1.5,4.6-0.5,7c-0.1,0.2,0.2,0.5,0.3,0.5c0.2,1.5,0.5,3,1.3,4.6
							c0,0,0.2,0.3,0.5,0.9c0.2,0.3,0.4,0.6,0.7,0.9c0.3,0.3,0.6,0.7,1,1c0.2,0.2,0.4,0.4,0.6,0.5c0.2,0.2,0.4,0.3,0.7,0.5
							c0.5,0.3,0.9,0.6,1.4,0.8c0.5,0.2,1,0.4,1.5,0.5c0.5,0.1,0.9,0.2,1.4,0.2c0.9,0.1,1.5-0.1,2-0.3c0.5-0.2,0.7-0.6,0.7-1.1
							c0-0.5-0.4-1.2-0.9-2c-0.5-0.8-1.4-1.9-1.8-3.2l0.2-0.1c-0.4-0.5-0.6-0.9-0.8-1.2c-0.3-0.3-0.6-0.4-1.2-0.6
							c0.5-0.3,0.4-0.5,0.3-0.8c-0.1-0.2-0.4-0.5-0.3-0.7l0.1,0c-0.5-0.3-0.4-0.8-0.3-1.3c0.2-0.5,0.3-0.9-0.1-1.4
							c0.1,0,0.4,0.1,0.4,0.3c-0.2-0.6-0.4-1.6,0.3-1.6c-0.1-1.7,0.7-4.1,0-5.5l0.2,0.1c-0.5-0.8,0.1-0.9-0.1-1.7
							c0.1,0,0.2-0.1,0.2,0c-0.5-0.9,0.5-2.2,0.4-2.8l0.4,0.1l0.3-1.5l-0.3,0.5c-1.1-0.6,1.1-0.9,0.7-2.2c0.5-1-1.8-2.8-0.9-3.7
							c-0.4-0.7,0.8,0.7,0.6-0.2c0.6,0.2,0.3,0.5,0.8,0.4c-0.1-0.8,1-1.1,0.8-2.1l0.5,0.1c-0.1-0.2-0.1-0.3-0.1-0.5l-0.4-8l-3.9,5.1
							c-0.3,0.3-0.6,0.6-0.9,0.8c-0.3,0.2-0.6,0.4-0.8,0.6c-0.5,0.4-0.9,0.7-0.8,1.3c-0.2,0.7-0.7,0.7-1,0.8c-0.4,0-0.7,0.2-0.7,1
							l-0.9,0.1c-0.4,0.5,0.5,0.8-0.1,1.2c-0.4-0.2-0.7,0.6-0.9,0c-1.3,1-0.6,3.1-2.4,4.3c0.6,0.7-0.3,1.4,0.1,1.9
							c-0.3-0.1-0.9,1.7-1.1,0.4c0-0.1,0.1-0.2,0.2-0.2l-0.4-0.3c-1.3,0.5-0.4,1.9-1,2.8c0.3-0.2,0.4-0.6,0.6-0.2l-0.5,0.8l-0.3-0.4
							l-0.9,1.1l0.5,0.1c-0.6,0.5-1.4,0.3-1.2,1.3c0.2,0.5,0.9-0.2,0.7,0.5c-0.8,0.6-1.9,1.5-2.6,2.4c0.5,0.2,0.4,0.5,0.3,0.8
							l-0.4-0.2c-0.1,1.3-1.1-0.3-1.3,0.9l-0.2-0.3l0.7,0.8c0.2,1.4-1.1-0.2-0.7,1.4c0.2-0.4,1,0.6,0.4,0.8l-0.3-0.4
							c0,0.1,0,0.1-0.1,0.2c0,0,0,0.1,0,0.1c0,0.1,0,0.1,0,0.1c-0.1-0.2-0.4-0.6-0.5-0.4c-0.1-0.2-0.2-0.4-0.3-0.5
							c0.2,0.3,0.3,0.6,0.3,0.9c-0.2-0.1-0.3-0.1-0.4,0c-0.1,0.1-0.2,0.1-0.3-0.2c0,0-0.3-0.3-0.5,0.6c0.1-0.5,0-0.8,0.2-1.4
							c-0.1,0.6-0.5,0.9-0.4,0.5c0,0,0-0.1,0.1-0.2l0-0.1c0.1-0.4-0.1-0.2-0.3-0.2c-0.2,0-0.4-0.1-0.1-0.3c-0.6,0.2-0.3-0.1-1,0.1
							c-0.2-0.1-0.2-0.3-0.1-0.4c0.1-0.2,0.2-0.2,0.4-0.4c0.3-0.4,0.4-0.8-0.7-1.3c0.1-0.7,0.7-0.6,1-0.9l0.1,0.2
							c0.2-1.2,0.4-1.6,0.8-2.4c0-0.5-0.9-1.1-0.3-1.8c0.2,0.5,0.3,0.1,0.5-0.2c0,0.2,0.1,0.3,0.5,0.1c-0.1-0.1-0.1-0.2-0.1-0.3
							c0,0,0.1,0,0.1,0c0.1-0.6,0-0.5-0.2-0.3c0,0-0.1-0.1-0.3-0.1c0.8-0.2,0.8-1.4,1.5-1.1c0.7-1.5,0.8-3,1.4-4.3
							c0.4,0.1,0.5,0.6,0.3,1l0.5-0.9c0.4,0.3-0.1,0.6-0.2,1c0.7-0.2,0.9-0.8,1.1-1.5c0.2-0.7,0.5-1.3,1.2-1.6l-0.1-0.5l0.1,0
							c-0.2-0.1-0.2-0.6-0.1-0.8c0.5,0.2,0.8,0.7,1.2,0.2c0.7-0.1,0.9-1.3,1.2-1.9c-0.3,0.2-0.4-0.1-0.4-0.3c0.2-0.2,0.7,0,0.7-0.4
							l0.4,0.4c-0.5-0.4,0.2-1,0.1-1.3c0.4,0.2-0.1,0.6,0,1c0.9-0.9,0.5-0.4,1.4-1.3c0.3-0.8-0.4-0.4-0.5-1.1
							c0.4-0.5,0.8-1.2,1.6-1.2l-0.5-0.4c0.9-1,1.7-1.2,2.6-0.9c1.8-1.7,3.4-2.6,4.1-3.4c0.8-0.8,0.7-1.4,0.4-1.9
							c-0.4-0.5-1.3-0.9-2-1.1c-0.8-0.2-1.5-0.2-1.5-0.2c-2.7-0.2-4.8,0.6-6.5,1.9C246.6,61.1,245.2,62.8,243.5,64.7z"/>
					</g>
				</g>
			</g>
		</g>
	</g>
	<g>
		<g>
			<g>
				<g>
					<g>
						<path class="st0" d="M274.1,98.1l-0.4,0.6C273.9,98.7,274,98.5,274.1,98.1z"/>
						<path class="st0" d="M299.5,51.5c0.1,0,0.2,0,0.2,0.1C299.6,51.5,299.5,51.5,299.5,51.5z"/>
						<path class="st0" d="M260.8,121.1C260.8,121.1,260.8,121.1,260.8,121.1c0-0.1,0-0.2,0-0.2L260.8,121.1z"/>
						<path class="st0" d="M268.7,88.8c-2,8.5-3.6,10.5-5.2,19.4c-1.1,4.2-1.9,8.8-2.8,12.9c0.3,2.1-1.3,5.3-1.3,7.8l-0.7,0.7
							c0,0.8-0.1,1.8-0.6,2.5l-0.1-0.1c0,1.2-0.6,2.5-0.6,3.1l-0.1-0.1l-0.4,1.4l-0.1-0.3c-0.1,1-0.4,2.1-0.7,3
							c-0.3,1-0.7,2-1.1,2.8l0.6,0.1c-0.8,1.4-1.2,2.3-1.5,3.1c-0.3,0.8-0.7,1.4-1.1,1.8l5.9,1.4c0-0.2-0.1-0.5,0-1l0.1,0
							c-0.5-0.6-0.6-1.6-0.6-2.4c0-0.9,0.3-1.7,0.5-2.6c0.2-0.9,0.5-1.9,0.6-3.1c0-0.7,0-1.1,0-1.6c0-0.5-0.1-1.1-0.3-1.7
							c0.1,0.6,0.3-0.2,0.5-0.2c0-2.1,0.3-4.4-0.9-4.6c0.2-1.6,0.5-1.2,1-1.4c-0.5-0.1-0.5-1.5-0.3-2.7l0.1,0.6
							c0.2-1.2,0.3-2.4,0.5-3.5l-1.1,0.5c0.7-1.8,1.2-0.2,1.4-2.1l-0.8-0.2c0.7-2.5,2.3-3.8,3.5-6c1.6-5.1,2.8-10.5,4.4-15.7
							c1.5-5.2,3.4-10.2,6.1-14.4l0.7-0.1c0.9,0.2,0-3,0.9-3c0-0.4,0.1-0.8,0.2-1.2c0.3-0.2,0.7-0.7,0.7-0.1c0.5-0.9,0.4-1,0.5-1.8
							c0.3-0.3,0.7-0.5,1-0.7c2.3-3.4,3.3-6.9,6-10.3c1.9-1.8,4.2-4.7,6.6-7.5c1.2-1.4,2.3-2.6,3.4-3.4c0.5-0.4,1.1-0.7,1.3-0.9
							c0.3-0.2,0.6-0.3,0.9-0.3c0.1,0,0.2,0,0.4,0c0.4,0,0.9,0.3,1.2,0.7c0.1,0.2,0.2,0.4,0.3,0.7c0.1,0.4,0.2,0.7,0.3,1.1
							c0.3,1.6,0.1,3.6-0.2,5.6c-0.1,1.1-0.3,2.1-0.4,3.2c-0.1,1-0.3,1.9-0.4,2.8c-0.3,1.8-0.6,3.4-0.9,5c-0.2,0.1-0.2,0.7-0.1,0.8
							c-0.5,0.9-1.1,1.6-1.7,2.3c-0.7,0.7-1.4,1.3-2.3,1.8c0,0-0.2,0.1-0.5,0.3c-0.3,0.2-0.9,0.5-1.5,0.8l-0.1,0.1
							c-0.1,0-0.2,0.1-0.3,0.1c-0.2,0.1-0.5,0.2-0.7,0.2c-0.5,0.2-1.1,0.3-1.7,0.5c-1.2,0.3-2.5,0.7-3.7,1c-1.2,0.3-2.4,0.6-3.3,0.7
							c-0.4,0.1-0.8,0.1-0.9,0.2c0,0,0,0,0,0c0,0,0,0,0,0l0,0.1c-0.1,0.2-0.1,0.3-0.2,0.4c-0.1,0.2-0.1,0.2-0.2,0.3
							c-0.1,0.1-0.1,0.2-0.2,0.3c-0.1,0.1-0.1,0.2-0.2,0.2c0,0,0,0,0,0c0.1,0,0.2-0.1,0.3,0c0.1,0,0.3,0,0.5,0c0.1,0,0.2,0,0.2,0.1
							c0,0,0.1,0,0.2,0l0,0l-0.1-0.1c-0.1-0.1-0.2-0.3-0.3-0.5c-0.2-0.3-0.6-0.5-1.2-0.2c-0.3,0.2-0.7,0.4-0.8,1.1
							c0,0.3,0.1,0.8,0.5,1.2c0.3,0.3,0.7,0.6,1.2,0.9c1.9,0.9,4.4,1.3,7.5,1.4l-0.2,0.2c1.3-0.1,2.5-0.3,3.6-0.6
							c0.5-0.1,1-0.2,1.5-0.4c0.5-0.2,0.9-0.3,1.7-0.6c1.3-0.7,2.4-1.5,3.3-2.6c0.3,0.2,0.6,0.1,1-0.1c0.4-0.2,0.8-0.6,1.2-1
							c0.4-0.4,0.8-0.9,1.1-1.3c0.3-0.4,0.6-0.8,0.9-0.9l0,0.1c0.6-1.5,1.6-2.8,2.4-4.2c0.8-1.4,1.4-2.8,1.3-4.3
							c0.1,0.1,0.4,0.3,0.2,0.9c0.4-2.1,0.4-4.9,1-4.9c0-0.6,0-1.2,0.1-1.9c0-0.6,0-1.2,0-1.8c0-1.2,0-2.6-0.1-3.9
							c-0.2-2.6-0.8-5.3-2.1-6.9l0.3,0.2c-0.4-0.5-0.7-0.9-1-1.3c-0.3-0.4-0.5-0.7-0.7-1c-0.5-0.6-1.1-1.3-2.3-1.9
							c-0.1-0.1-0.2-0.3-0.2-0.3c-0.3-0.1-0.7-0.2-1.1-0.3c-1.3-0.3-3-0.4-4.5-0.1c-1.6,0.3-2.6,0.9-3.2,1.4l-0.3-0.3
							c-1.2,0.8-2.2,1.6-3.1,2.5c0.4-0.3,0.8-0.6,1.1-0.9c0.2,0.6-0.5,0.9-1.4,1.4c-0.9,0.5-2,1.2-2.5,2.4c-0.8,0.9-1.2,2.2-1.5,3.5
							c-0.3,1.3-0.6,2.6-1.6,3.4c-0.2,1.3-0.1-1.4-0.8,0.3c-0.5-0.3,0.2-0.9-0.5-0.8c-0.7,1.6-2.2,1.9-3,3.9l-0.5-0.2
							c-0.4,1.4-1.2,2.4-2,3.4c-0.8,0.9-1.5,1.8-1.6,2.8c-1,2.7-2.3,1-2.8,4.1l-1.1,0.7c-0.7,1.1,0.3,1.2-0.6,2.3
							c-0.3-0.3-1.1,1.5-1.1,0.5c-2,2.6-1.9,6.3-4.4,9.8c0.4,1.2-0.8,3-0.4,3.8c-0.4,0-1.5,4-1.4,1.5c0-0.2,0.1-0.5,0.3-0.5
							l-0.4-0.4c-1.7,1.9-1,4.3-1.9,6.5c0.4-0.6,0.6-1.5,0.7-0.8l-0.7,2.1l-0.2-0.6c-0.4,1-0.8,2-1.2,3l0.6-0.3
							c-0.7,1.4-1.7,1.7-1.6,3.7c0.2,0.9,1.1-1.3,0.8,0.4c-0.9,1.9-2.4,4.9-3.2,7.5c0.6-0.1,0.4,0.6,0.3,1.4l-0.5,0
							c0,3-1.3,0.8-1.4,3.8l-0.3-0.3l0.9,1c0.4,2.8-1.3,1.2-0.5,4.4c0.1-1.2,1.2-0.4,0.7,1l-0.4-0.4c0,0.8,0.1,1.1,0,1.6
							c-0.2-0.5-0.7-0.4-0.7,0.8l-0.5-0.9c0.2,0.8,0.4,1.6,0.6,2.3c-0.7,1.6-0.3,4.4-1,5.1c0,0,0,0.2-0.1,0.6c0,0.2,0,0.4-0.1,0.6
							c0,0.2,0,0.4,0,0.6c-0.1,0.8-0.1,1.9,0.2,2.4c-0.4-0.8-0.8,1.2-1.2,0.6c0.2,0.5,0.3,1.5,0.4,2.6c0,1.1,0,2.2-0.2,3l-0.1-0.3
							c-0.1,1.4,0.2,2.9,0.8,4.4l2.8,6.3l4.8-4.5c1.6-1.5,2.4-3.1,3.1-4.5c0.6-1.4,1.1-2.7,1.9-4c-0.6-0.1,0.4-1.8-0.5-1.6
							c0.6-3.7,3.6-6.1,1.8-8.1c0.4-1.7,1.1-1.8,1.4-2.6l0,0.4c0.7-3.2,0.9-4.1,1.5-6.3c0.1-1.2-0.9-1.6-0.1-3.6
							c0.2,0.8,0.4-0.1,0.6-0.9c-0.1,0.5,0.1,0.7,0.6-0.2c-0.1-0.2-0.1-0.4-0.1-0.6c0,0,0.1,0,0.1,0c0.2-1.3,0-1.1-0.2-0.5
							c-0.1,0-0.1,0-0.3,0.1c0.9-1.2,0.8-3.7,1.6-3.7c0.7-3.9,0.7-6.8,1.1-10.1c0.4-0.3,0.6,0.5,0.5,1.5l0.4-2.3
							c0.5,0.1,0,1.4-0.1,2.1c1.5-2.5,0.4-5.8,1.9-8.8l-0.3-0.8l0.1-0.2c-0.2,0-0.4-0.8-0.3-1.3c0.6-0.4,1,0.3,1.4-1.3
							c0.7-1.2,0.5-3.6,0.6-5.3c-0.3,0.9-0.5,0.5-0.5,0.1c0.1-0.8,0.7-1.2,0.6-1.8l0.6,0c-0.6,0.2-0.2-2.2-0.4-2.5
							c0.5-0.4,0.2,1.3,0.5,1.6c0.5-3.2,0.3-1.6,0.8-4.8c-0.2-1.8-0.6,0.2-1-0.7c0.2-1.5,0-3.1,0.7-4.7l-0.6,0.5
							c0.1-2.9,0.4-4.6,1.2-6.4c-0.3-5-1.3-7.9-2.2-9.1l1.6,1.4l0,0.1c0,0,0,0,0,0l0,0l0-0.1c0-0.2,0-0.3-0.1-0.5
							c-0.1-0.6-0.2-0.9-0.3-0.9l0,0c0,0,0,0,0.1,0c0,0,0.1,0,0.1,0l0.5-0.2c0.1-0.1,0.2-0.1,0.3-0.2l0,0l0.6-0.3l0,0l0,0l0,0
							c0,0,0.2,0.1,0.2,0.3c0.1,0.1,0.2,0.2,0.3,0.3c0.1,0.1,0.2,0.1,0.3,0.1c0.3,0.1,0.6,0.1,0.8,0c0.2-0.1,0.3-0.4,0.4-0.7
							c0-0.1,0-0.2,0-0.4c0,0-0.1-0.4-0.1-0.5c0-0.1,0-0.1,0-0.1l0,0l0,0l-2.5,1.3l-0.1,0l-0.1,0.1l-0.2,0.1
							c-0.4,0.2-0.4,0.2-0.5,0.2c-0.1,0-0.1,0-0.1,0c0,0,0,0,0.1,0.1c0,0.1,0.1,0.2,0.1,0.3c0,0.2,0.1,0.7,0.2,1.1
							c0.1,0.5,0.1,1.2,0.1,1.8l-4.3-3c-0.2,0.7-0.4,1.7-0.6,2.5c-0.2,0.8-0.3,1.4-0.3,1.4c-0.4,1.8-0.8,3.5-1.1,5.1
							c-0.3,1.6-0.5,3.3-0.6,5C269.6,80.4,269.4,83.9,268.7,88.8z"/>
					</g>
				</g>
			</g>
		</g>
	</g>
	<g>
		<g>
			<g>
				<g>
					<g>
						<path class="st0" d="M328.8,31.6l-0.3,0.4C328.6,31.9,328.7,31.9,328.8,31.6z"/>
						<path class="st0" d="M338.9,63.4c0,0,0,0.1,0,0.1C338.9,63.5,338.9,63.5,338.9,63.4z"/>
						<path class="st0" d="M316.6,45.5L316.6,45.5c0-0.1,0-0.1,0-0.1L316.6,45.5z"/>
						<path class="st0" d="M323.3,24.6c-1.8,5.5-3.2,6.7-4.5,12.6c-0.4,1.4-0.8,2.8-1.2,4.2c-0.2,0.7-0.4,1.4-0.5,2.1
							c-0.2,0.7-0.3,1.3-0.5,2c0.4,1.5-1.2,3.3-1,5l-0.7,0.4c0,0.6,0,1.2-0.5,1.6l-0.1-0.1c0,0.9-0.5,1.6-0.5,2.1l-0.1-0.1l-0.3,0.9
							l-0.1-0.2c-0.2,1.4-0.7,2.8-1.4,3.9l0.6,0.1c-1.7,2.3-1,3.7-2.6,5.7l-0.1-0.1c0.1,1.8-0.6,2.9-1.3,4c-0.4,0.6-0.7,1.1-1,1.8
							c-0.2,0.6-0.4,1.5-0.3,2.2c0-0.4-0.3,0-0.5,0c-0.3,1.3-0.9,3.1,0.2,3.5c-0.4,1.1-0.6,0.8-1.1,0.8c0.5,0.1,0.3,1.2,0.2,2.2
							l-0.1-0.5c-0.2,1-0.3,2-0.2,3.2c0.3-0.2,0.6-0.4,1-0.6c-0.2,0.8-0.4,1-0.6,1.1c-0.2,0.1-0.4,0.2-0.1,1.2l0.8-0.2
							c0,0.2,0.1,0.4,0.1,0.7l0.5,2.8l3-1.9c1.5-1,3-1.2,4.5-2.3c2.5-3.2,3.9-6.8,5.5-10.1c0.4-0.8,0.8-1.6,1.2-2.3
							c0.4-0.8,0.9-1.6,1.4-2.4c0.9-1.5,1.9-2.9,3.1-4l0.6,0.1c0.8,0.4-0.1-2.2,0.7-1.9l0.1-0.8c0.2-0.1,0.6-0.3,0.6,0.1
							c0.4-0.5,0.3-0.6,0.4-1.1c0.3-0.1,0.6-0.1,0.8-0.2c0.9-0.8,1.8-1.9,1.7-2.1c0.2-0.4,0.5-0.9,1-1c0.1,0.1,0.2,0.2,0.3,0.3
							c0.2,0.2,0.4,0.2,0.6,0.4c0.2,0.1,0.4,0.3,0.5,0.6c0.1,0.2,0.2,0.5,0.3,0.9c0,0.2,0.1,0.4,0.1,0.5c0,0.1,0,0.2,0,0.3l0,0.1
							l0,0.2c0,0.1,0,0.2-0.1,0.3c-0.1,1.3-0.6,2.6-1.3,3.9c-0.3,0.6-0.7,1.3-1.1,1.9c-0.4,0.7-0.8,1.3-1.3,2.2
							c-1.5,2.8-2.7,5.8-2.6,8.8c-0.2,0.2,0,0.7,0.1,0.7c-0.4,1.8-0.7,3.6-0.8,5.5c0,0,0,0.4,0,1.2c0,0.7,0,1.8,0.2,3.1
							c0.1,0.3,0.1,0.7,0.2,1c0.1,0.4,0.2,0.8,0.4,1.1c0.2,0.4,0.3,0.8,0.6,1.2c0.3,0.4,0.5,0.9,0.9,1.3c0.2,0.2,0.4,0.4,0.6,0.6
							c0.2,0.2,0.5,0.4,0.7,0.5c0.5,0.3,1.1,0.5,1.6,0.7c0.5,0.1,1.1,0.2,1.5,0.2c0.4,0,0.9,0,1.3-0.1c0.4-0.1,0.7-0.2,1-0.3
							c0.3-0.1,0.5-0.3,0.8-0.4c0.5-0.3,0.8-0.5,1-0.8c0.5-0.5,0.5-1,0.2-1.4c-0.2-0.2-0.5-0.4-0.9-0.5c-0.2-0.1-0.4-0.1-0.7-0.2
							c-0.2-0.1-0.5-0.2-0.8-0.3c-0.6-0.2-1.2-0.5-1.6-1c-0.2-0.2-0.2-0.5-0.2-0.7c0-0.2,0.2-0.5,0.2-0.7l0.2-0.1
							c0-0.5,0-1.4-0.1-2.2c-0.1-0.8-0.3-1.6-0.7-2.5c1.2-0.2,0.3-2.1,0.8-2.6l0.1,0.1c-0.6-1.7,1.3-3.1,0.9-4.8
							c0.1,0.1,0.4,0.2,0.3,0.5c0.1-1.1,0.3-2.7,0.9-2.6c0.1-0.7,0.3-1.4,0.5-2.1c0.1-0.4,0.2-0.7,0.3-1.1l0.1-0.4l0.2-0.5
							c0.5-1.4,0.9-2.9,0.8-4l0.1,0.2c-0.3-1.3,0.4-1.3,0.5-2.6c0.1,0,0.2-0.1,0.2-0.1c-0.1-0.3,0-0.7,0.1-1.1
							c0-0.2,0.1-0.4,0.2-0.6c0.1-0.3,0.2-0.5,0.3-0.8c0.4-1.1,0.7-2.3,0.6-2.9l0.5-0.1c0.1-1.1,0.2-2.2,0-3.2c0,0.4,0,0.8-0.1,1.2
							c-0.6,0-0.4-0.6-0.3-1.5c0.1-0.9,0.1-2.1-0.7-2.7c-0.5-0.9-1.7-1.2-2.8-1.1c-1.2,0.1-2.2,0.6-3,0.4c0,0-0.1,0-0.1,0.1
							c-0.4,0.3-0.1-0.1,0.1-0.3c0.1-0.1,0.2-0.3,0.1-0.3c-0.1,0-0.2,0-0.5,0.1c0.1-0.7,0.7-0.5,0.5-1c-0.7,0.2-1.3,0.2-1.9,0.2
							c-0.6,0-1.3,0.2-2.1,0.8l-0.2-0.5c-1,1.1-2,1.7-3,2.3c-0.2,0.2-0.5,0.3-0.7,0.5c-0.2,0.2-0.4,0.4-0.6,0.5
							c-0.3,0.3-0.5,0.6-0.5,1c-1,1.8-2.1,0.1-2.6,2.4l-1,0.3c-0.6,0.7,0.3,1-0.5,1.6c-0.3-0.3-1,0.8-1,0.1c-1.8,1.5-1.6,4.3-3.9,6
							c0.2,0.5,0,0.9-0.2,1.3c-0.2,0.4-0.4,0.9-0.3,1.2c-0.4-0.1-1.5,2.5-1.4,0.7c0-0.2,0.2-0.4,0.3-0.3l-0.3-0.4
							c-1.6,1-1,2.8-1.9,4.1c0.4-0.3,0.6-0.9,0.7-0.4l-0.8,1.2l-0.2-0.5l-1.2,1.7l0.6,0c-0.7,0.7-1.6,0.6-1.6,1.9
							c0.1,0.6,1.1-0.4,0.7,0.5c-1,0.9-2.5,2.2-3.5,3.1c0.5,0.3,0.2,0.5,0.1,0.9l-0.4-0.3c-0.1,0.4-0.3,0.6-0.5,0.6l6.6,2
							c0.3-0.1,0.3-0.1,0.6-0.2c0.1,0,0.1,0,0.2,0c0.1,0,0.2-0.1,0.4-0.1c0.1,0,0,0,0,0c0,0,0,0-0.1-0.1l0.3,0c-0.3,0-0.7,0-1-0.1
							c-0.2-0.2-0.3-0.4-0.2-0.5c0-0.1,0.2-0.2,0.3-0.2c0.2-0.1,0.4-0.2,0-1.1c-0.1,0.6-1.1,0-0.7-0.7l0.4,0.3
							c0-0.4-0.1-0.6,0.1-0.9c0.2,0.3,0.6,0.4,0.8-0.3c0.1,0.2,0.3,0.4,0.4,0.6c-0.1-0.5-0.3-1-0.4-1.5c0.4-0.4,0.6-1.1,0.9-1.7
							c0.1-0.3,0.2-0.6,0.4-0.9c0.1-0.2,0.3-0.4,0.5-0.4c0,0,1.1-2,0.6-2.8c0.3,0.6,0.9-0.5,1.3,0c-0.3-0.7,0-2.5,0.8-3l0,0.1
							c1.5-2.2,1-4.4,2.6-6.4c-0.6-0.1,0.2-1.2-0.6-1.2c0.3-2.6,3.2-3.6,1.4-5.3c0.3-1.1,1-1.1,1.3-1.6l0,0.3
							c0.6-2.1,0.8-2.7,1.4-4.2c0.1-0.8-0.9-1.3-0.2-2.6c0.2,0.6,0.4,0,0.5-0.5c0,0.3,0.1,0.5,0.6-0.1c-0.1-0.1-0.1-0.3-0.1-0.5
							c0,0,0.1,0,0.1,0c0.1-0.9,0-0.8-0.2-0.4c-0.1,0-0.1,0-0.3,0.1c0.8-0.7,0.7-2.5,1.4-2.4c0.6-2.6,0.4-4.6,0.8-6.8
							c0.4-0.1,0.6,0.5,0.6,1.1l0.3-1.5c0.5,0.2,0,0.9,0,1.4c1.3-1.5,0.2-3.9,1.6-5.8l-0.3-0.5l0.1-0.1c-0.2-0.1-0.4-0.6-0.4-0.9
							c0.5-0.2,1,0.3,1.3-0.7c0.7-0.7,0.4-2.4,0.5-3.5c-0.2,0.6-0.4,0.3-0.5,0c0.1-0.5,0.7-0.7,0.6-1.2l0.6,0.1
							c-0.6,0.1-0.3-1.5-0.5-1.8c0.5-0.2,0.2,0.9,0.5,1.1c0.5-2.1,0.2-1.1,0.7-3.2c-0.2-1.2-0.6,0.1-1-0.6c0.1-1,0-2.1,0.6-3.1
							l-0.6,0.2c0-1.9,0.4-3.1,1.2-4.1c-0.1-1.9-0.2-3.4-0.7-4.4c-0.4-1-1-1.5-1.5-1.6c-0.5-0.1-0.9-0.3-1.2-0.1
							c-0.3,0.1-0.5,0.3-0.6,0.7c-0.1,0.1-0.2,0.2-0.3,0.2C327.1,9,327,9,326.9,9.1c-0.2,0.1-0.3,0.2-0.4,0.3
							c-0.1,0.2-0.2,0.3-0.3,0.5c-0.1,0.2-0.1,0.3-0.1,0.3c-0.5,0.8-0.9,1.8-1.3,3.2c-0.3,1.2-0.5,2.2-0.6,3.3
							C324,18.9,323.9,21.3,323.3,24.6z"/>
					</g>
				</g>
			</g>
		</g>
	</g>
	<g>
		<g>
			<g>
				<g>
					<g>
						<path class="st0" d="M362.3,57.9l-0.4-0.2C362,57.8,362.1,57.9,362.3,57.9z"/>
						<path class="st0" d="M351.9,98.3C351.9,98.3,351.9,98.3,351.9,98.3C351.9,98.3,351.9,98.3,351.9,98.3z"/>
						<path class="st0" d="M349.4,61.5C349.4,61.4,349.3,61.4,349.4,61.5c0,0-0.1-0.1-0.1-0.1L349.4,61.5z"/>
						<path class="st0" d="M360.9,50.4c-1.5,0-2.7,0.1-3.9,0.3c-1.1,0.2-2.1,0.3-3,0.6c-1.8,0.6-3.5,1.4-4.7,3.5
							c-0.3,0.4-0.5,0.8-0.6,1.3l-0.2,0.8c0,0.1,0,0.3-0.1,0.4l-0.1,0.4c0.1,0.8,0.1,1.5,0.2,2.1c0.2,0.6,0.4,1.2,0.8,1.7
							c0.7,0.4,1.1,0.9,1.6,1.5c0.5,0.6,1.1,1.2,2.2,1.6c0,0.2-0.1,0.4-0.1,0.6c0.8,0.2,1.5,0.5,1.8,1l-0.2,0.1
							c1.2,0.3,2,0.9,2.5,1.1l-0.1,0.1c0.3,0.2,0.7,0.4,1,0.6l-0.3,0c0.9,0.5,1.1,0.5,1.5,0.8c0.3,0.2,0.6,0.5,0.8,0.8l0.3-0.5
							c0.7,1.5,2,1.1,2.4,2.7l-0.1,0.1c1.2,0.1,1.5,0.9,1.7,1.6c0.3,0.7,0.5,1.5,1.6,1.8c-0.3-0.1-0.2,0.3-0.3,0.3
							c0.6,0.6,1.2,1.3,2.2,0.7c0.3,0.5,0,0.6-0.4,0.9c0.4-0.3,0.9,0.1,1.2,0.5l-0.3-0.1c0.3,0.4,0.6,0.7,0.8,1.1l0.7-0.7
							c0.1,0.8-0.9,0.7-0.4,1.2l0.7-0.3c0.3,1-0.6,2-0.8,3c0.4,1.7,1,3.3,0.9,4.8c0,0.7-0.3,1.5-0.7,2.1c-0.4,0.6-1.1,1.1-1.9,1.3
							l-0.5-0.4c-0.3-0.3-0.2,0-0.2,0.4c0,0.4,0,0.8-0.3,0.5l-0.1,0.5c-0.2-0.1-0.4-0.1-0.4-0.4c-0.3,0.1-0.2,0.2-0.3,0.6l-0.6-0.3
							c-0.7,0.1-1.2,0.4-1.8,0.8c-0.6,0.3-1.2,0.7-2,0.7c-1-0.4-2.3-0.4-3.6-0.3c-1.4,0.1-2.8,0.2-3.9,0.2c-1.6,0.2-3.1-0.9-4.2-2
							c-1.1-1.2-1.9-2.4-3.3-2.8c0-0.1-0.3-0.1-0.4,0c-0.5-0.6-0.9-1.3-1.2-2c0,0-0.3-0.6-0.6-1.4c-0.3-0.8-0.7-1.8-1-2.8
							c-0.3-0.9-0.8-1.8-1.8-1.8c-0.5,0-1.1,0.2-1.9,0.9c-0.7,0.7-1.6,1.8-2.2,3.8l-0.2-0.1c-0.1,2.3,0.5,3.9,2,4.7
							c-0.4,0.4-0.3,0.8,0.1,1.2c0.3,0.4,0.8,0.7,0.8,1l-0.1,0c0.8,0.2,1,0.9,1.4,1.5c0.3,0.6,0.7,1.2,1.4,1.3
							c-0.1,0-0.3,0.3-0.6,0.1c0.8,0.5,1.9,1,1.6,1.6c1.9,1.2,4.5,2.7,6.1,2.1L350,98c0.9-0.4,1,0.2,1.9,0.1c0,0.1,0.1,0.2,0,0.2
							c1-0.5,2.3,0.5,3,0.3l0,0.4c0.5,0,1.1,0.1,1.6,0.1c-0.2,0-0.4-0.1-0.6-0.2c0.3-1.2,1.1,0.9,2.4,0.2c0.5,0.1,1.1-0.5,1.6-1.1
							c0.5-0.6,1-1.1,1.5-0.9c0.4-0.6-0.4,1,0.4,0.5c0.1,0.6-0.3,0.4-0.1,0.9c0.7-0.4,1.4,0.5,2.3-0.1l0.1,0.5
							c0.5-0.6,1.2-0.6,1.8-0.6c0.6,0,1.2,0,1.4-0.6c1.1-0.9,1.5,1,2.4-0.6c0.3,0.1,0.6,0.2,0.8,0.3c0.6-0.3,0-0.9,0.8-1.1
							c0.2,0.4,1-0.3,0.8,0.3c0.9-0.2,1.4-1.1,2-1.9c0.5-0.8,1.1-1.7,2.2-2.4c-0.2-0.4-0.1-0.9,0.1-1.3c0.1-0.4,0.3-0.8,0-1.1
							c0.4,0.1,0.8-2.3,1.1-0.7c0,0.1-0.1,0.3-0.2,0.3l0.4,0.3c0.3-0.3,0.5-0.6,0.6-0.9c0.1-0.3,0.1-0.7,0-1c-0.1-0.7-0.4-1.4-0.2-2
							c-0.2,0.4-0.2,0.9-0.5,0.5c0.1-0.4,0.1-0.8,0.1-1.2l0.4,0.3c0.1-0.6,0.2-1.2,0.2-1.9l-0.5,0.3c0.1-0.5,0.4-0.8,0.5-1.1
							c0.1-0.3,0.1-0.7-0.3-1.1c-0.5-0.3-0.5,0.9-0.8,0.1c0.2-1.2,0.2-2.9-0.2-4.2c-0.5,0.3-0.6,0-0.8-0.3l0.4-0.2
							c-1.2-1,0.8-1-0.3-2l0.4,0l-1.1,0.2c-1.4-0.6,0.6-1.1-1.3-1.6c0.4,0.4-0.8,0.8-1,0.1l0.5-0.1c-0.3-0.2-0.5-0.2-0.5-0.5
							c0.3,0,0.7-0.3,0.3-0.7l0.7,0l-1.3-0.3c0-0.9-1.2-1.5-0.9-2.2c0,0-0.7-1.5-1.6-1.3c0.6,0,0.1-0.8,0.7-1
							c-0.7,0-1.8-0.6-1.7-1.4l0.1,0c-0.9-1.8-2.7-1.7-3.5-3.3c-0.3,0.5-0.8-0.3-1.1,0.4c-0.4-0.1-0.7-0.4-1-0.7
							c-0.1-0.1-0.2-0.3-0.3-0.5c0-0.1,0-0.1,0-0.2c0-0.2-0.1-0.3-1.2,0.3c-0.4-0.1,0.2-0.5,0.2-0.6l0.2,0c-0.6-0.1-0.8-0.2-1-0.4
							c-0.5,0-2.2,0.1-2.2-0.2c0.8,0,0.6-0.1,0.4-0.2c0.2,0.1,0.5,0.1,0.8-0.1c-0.3,0-0.4,0-0.6-0.1c0.1,0,0.1,0,0.2,0
							c-0.5-0.2-0.7-0.1-0.7-0.1c-0.1,0-0.3,0-0.5,0c0.4-0.1,0.2-0.2,0.2-0.4c-0.1-0.1-0.1-0.2,0.7-0.2c-0.1-0.1-0.3-0.2-0.4-0.4
							c-0.6-0.7-1.2-1.4-0.9-2c0.7,0.3,1.1,0.6,1.2,0.8c0.1-0.1,0.1-0.2,0.2-0.3c0.9,0.5,0.3,0.4,0.4,0.5c1,0.2,0.8,0,0.7-0.3
							c-0.1-0.3,0-0.6,0.7-0.3c-0.1-0.2-0.2-0.3-0.3-0.5l0.1,0.1c-0.3-0.2-0.4-0.6-0.3-0.7c0.6,0.5,1.1,1.1,1.3,1.1
							c0.3,0.2,0.4,0.2,0.5,0c0.1-0.2,0.1-0.4,0.3-0.6c-0.2-0.1-0.3-0.4-0.3-0.6c0.2,0,0.5,0.5,0.6,0.3l0.2,0.7
							c-0.3-0.7,0.3-0.6,0.3-0.9c0.2,0.5-0.2,0.4-0.2,0.8c0.6,0,0.3,0,1,0.1c0.4-0.4,0-0.6,0.3-1.1c0.2,0,0.5-0.1,0.8-0.1
							c0.3,0,0.6,0.1,0.9,0.4l0-0.6c1.2,0,1.9,0.3,2.3,1.2c2.4-0.1,4,0,5-0.3c1-0.2,1.3-0.8,1.4-1.4c0-0.6-0.4-1.4-0.8-1.9
							c-0.4-0.6-0.8-0.9-0.8-0.9c-1.6-1.6-3.2-2.3-4.9-2.6c-0.2,0-0.4-0.1-0.7-0.1c-0.3,0-0.5-0.1-0.8-0.1c-0.7-0.1-1.4-0.2-2.1-0.2
							C364.1,50.2,362.5,50.2,360.9,50.4z"/>
					</g>
				</g>
			</g>
		</g>
	</g>
</g>
</svg>
