<?xml version="1.0" encoding="utf-8"?>
<!-- Generator: Adobe Illustrator 23.0.1, SVG Export Plug-In . SVG Version: 6.00 Build 0)  -->
<svg version="1.1" id="Layer_1" xmlns="http://www.w3.org/2000/svg" xmlns:xlink="http://www.w3.org/1999/xlink" x="0px" y="0px"
	 viewBox="0 0 621.5 169" style="enable-background:new 0 0 621.5 169;" xml:space="preserve">
<style type="text/css">
	.st0{fill:#424143;}
</style>
<g>
	<g>
		<g>
			<g>
				<g>
					<g>
						<path class="st0" d="M22,48.3l-0.5,0.7C21.7,49.1,21.9,48.9,22,48.3z"/>
						<path class="st0" d="M55.9,68c0-0.1,0-0.1,0-0.2C55.9,67.9,55.9,68,55.9,68z"/>
						<path class="st0" d="M3.3,77.2C3.3,77.2,3.3,77.2,3.3,77.2c0-0.1,0-0.2,0-0.3L3.3,77.2z"/>
						<path class="st0" d="M13.9,35.8c-0.9,2.6-1.7,4.8-2.5,6.9c-0.3,1-0.7,2-1,2.9c-0.3,0.9-0.6,1.7-0.9,2.5
							c-1.1,3.3-2.2,6.7-3.1,12.4c-1.4,5.3-2.3,11.2-3.2,16.6c0.8,2.8-1.3,7.1-0.7,10.3l-0.9,1.1c0.1,0.6,0.2,1.2,0.2,1.7
							c0,0.3,0,0.6-0.1,0.9c-0.1,0.3-0.2,0.5-0.3,0.7l-0.2-0.1c0.4,1.4-0.3,3.2-0.1,4l-0.2-0.1l-0.2,2l-0.3-0.4
							c0.2,2.9-0.1,5.9-0.4,8.8l0.9-0.2c-0.4,2.5-0.2,4.5,0.4,6.6c0.1,0.2,0.2,0.5,0.2,0.7c0.1,0.2,0.2,0.5,0.3,0.8
							c0.2,0.5,0.4,1,0.7,1.6c0.3,0.6,0.6,1.1,1,1.7c0.4,0.6,0.9,1.2,1.4,1.8l3.9,4.7l4.6-5c0.5-0.6,1.2-1.2,2-1.9l0.1,0.2
							c1.1-3.5,2.8-5.4,4.4-7.5c1.6-2.1,3.1-4.3,3.4-7.6c-0.1,0.8,0.6-0.1,0.7,0c0.2-0.7,0.5-1.4,0.7-2.1c0.1-0.3,0.2-0.7,0.3-1
							l0-0.1l0,0l0-0.1c0-0.1,0-0.1,0-0.2c-0.1-0.4-0.4-1-1.1-1.6c0.4-0.9,0.7-0.3,1.2,0.2c-0.6-0.6-0.4-1.7-0.1-2.5
							c0,0.2,0,0.5,0,0.7c0.2-0.7,0.5-1.5,0.8-2.3c-0.2-0.7-0.5-1.3-0.8-1.9c0.4-0.4,0.6,0.3,0.7,0.9c0.1,0.5,0.2,0.9,0.4,0.1
							l-0.3-2.3c0.5-0.7,1-0.3,1.3,0.5c0.3,0.8,0.5,2.1,0.6,3c0,0,0,0.1,0,0.2c0.1,0,0.1-0.1,0.2-0.2l0.1-0.1l0.1-0.1
							c0,0,0,0,0.1,0.1c0.1,0.2,0.2,0.4,0.3,0.6c0.1,0.4,0.3,0.6,0.4,0.9c0.3,0.6,0.6,1.3,0.9,2.4c0.2,0.5,0.3,1.2,0.5,1.8l0.1,0.3
							l0.1,0.7l0.2,1.3l0.3,1.5c0.1,0.6,0.2,1.3,0.4,1.9c0.5,2.6,1.2,5.2,2.1,7.4c0.9,2.3,2,4.2,3.5,5.8c0.1,0.4,0.2,0.9,0.3,1.3
							c-0.1,0.7,1.1,0.9,2.4,0.9c1.3,0,2.7-0.5,2.9,0.1c0.7-0.2,1.4-0.5,2-0.8c0.5,0.2,1.7,0,0.8,0.6c1.8-0.5,1.8-0.8,3-1.8
							c0.7,0,1.3-0.2,2-0.3c1.6-1,3-2.3,4.1-4c1.1-1.7,1.9-3.7,2.5-5.8c0.3-1.1,0.6-2.1,0.7-3.2c0.1-0.5,0.2-1.1,0.3-1.6
							c0.1-0.4,0.1-0.7,0.2-1.1c0.2-1.4,0.4-2.8,0.8-4.1c0.4-0.8,0.7-1.6,1-2.5c0.3-0.7,0.6-1.8,1-2.9c0.6-2.2,1.2-4.6,1.7-7
							c1-4.9,1.6-9.9,2.1-13.5c0.3-5.3,2.5-10.4,4.7-15.7c2.2-5.3,4.4-10.6,4.6-16.1c0.3-0.3,0.1-1.3-0.1-1.3
							c0.8-3.2,1.6-6.4,2.3-9.6c0,0,0.7-2.9,1.2-6.8c0.6-3.9,1.1-8.7,1-12.5c-0.1-3.8-0.8-6.4-2.3-6c-1.6,0.4-4,4-8.1,12.2l-0.2-0.3
							c-1.6,5-2.4,8.2-1.7,12c-1.8,0.2-1.1,4.2-1.9,5.2L64,33.4c0.6,3.4-2.6,6.1-2.2,9.4c-0.1-0.2-0.6-0.3-0.4-1
							c-0.3,2.2-0.7,5.3-1.8,5.2c-0.5,2.6-1.4,5.7-2.1,8.6c-0.6,3-1,5.7-0.7,7.6L56.7,63c0.6,2.2-0.5,2.5-0.5,4.8
							C56.1,67.9,56,68,55.9,68c0.5,2.4-1.4,6.2-1.4,8l-0.7-0.1l-0.9,4.2l0.5-1.5c1.7,1-2,2.9-1.6,6.2c-0.9,2.8,2.3,6.6,0.7,9.5
							c0.6,1.6-1.1-1.6-0.9,0.7c-1-0.1-0.4-1.2-1.3-0.7c0,2.3-1.6,3.3-1.5,5.9l-0.8-0.1c0,0.2,0.1,0.4,0.1,0.6c0,0.2,0,0.4,0,0.5
							c0,0.2,0,0.4-0.1,0.6c-0.1,0.4-0.3,0.7-0.6,1c-0.5,0.5-0.8,0.7-0.6,1.9c-0.2,1.1-0.8,0.7-1.2,0.2c-0.2-0.2-0.4-0.4-0.5-0.4
							c-0.2,0-0.3,0.3-0.5,1.1c-0.2-0.5-0.4-1-0.5-1.5c-0.2-0.1-0.3,0.5-0.4,0.9c-0.1,0.5-0.3,0.9-0.6,0.4c0.2-1-0.4-1.2,0.1-2
							c-0.1-1.1-0.4-0.8-0.8-1.1c-0.2-0.1-0.4-0.3-0.4-0.7c0-0.2,0-0.4,0.1-0.5c0-0.1,0.1-0.2,0.1-0.3c0-0.1,0.1-0.1,0.1-0.1
							l0.1-0.3c-0.2-0.1-0.3-0.1-0.4-0.2c-0.1-0.2-0.2-0.3-0.3-0.5c-0.2-0.4-0.3-0.8-0.4-1.2c-0.1-0.6-0.3-1.2-0.4-1.7
							c-0.2-0.6-0.4-1.1-0.6-1.4c0.3-0.2,0-2.4,0-4c-0.1-1.6,0-2.7,0.8-0.5c0.1,0.4,0.2,1.2,0,1.3c0.3,0.1,0.5,0.2,0.8,0.3
							c0.4-3.1-0.1-5.8-0.7-7.8c-0.6-2.1-1.4-3.8-1.8-6c0.1,1.6,0.5,3.3-0.2,2.8c-0.2-1.4-0.5-2.8-0.8-3.9c0.2-0.1,0.5-0.1,0.7-0.2
							c-0.4-2-1-3.6-1.6-4.9l-0.2,1.6c-0.7-2.3-0.5-4.6-2.1-4.7c-0.7,0,0.5,2.9-0.6,1.6c-0.3-0.9-0.7-1.9-1.4-3.1L33,67.1
							c-0.1-0.1-0.2-0.4-0.3-0.5c-0.2-0.2-0.3-0.4-0.5-0.6c-0.4-0.4-0.7-0.8-1.1-1.3c-0.6,0.6-1.2,1.1-1.8,1.7
							c-0.6,0.6-1.2,1.2-1.7,1.8c0.2,1.1-0.5,2-1.3,3.3l-0.1-1.1c-1.4,2.7-1.7,2.4-2.1,2c-0.2-0.2-0.4-0.4-0.7-0.2
							c-0.3,0.2-0.8,0.9-1.5,2.3l0.1-1.2c-0.1,1.2-0.2,2.3-0.3,3.5c-0.5,1.4-0.9,2.3-1.2,2.8c-0.3,0.4-0.6,0.5-0.8,0.6
							c-0.3,0.1-0.5,0.3-0.9,0.9c-0.3,0.6-0.7,1.8-1,3.7c0.5-1.1,0.8-0.9,0.9-0.2c0.1,0.8-0.1,2-0.8,3l-0.2-1.3
							c-0.6,1.5-0.5,2.3-1.1,3.1c0.1-1.2-0.6-1.3-1.5,1c0-0.7-0.1-1.4-0.1-2.2c-0.3,1.8-0.6,3.5-0.7,5.1c-0.1,0.2-0.3,0.4-0.4,0.6
							c-0.1,0.1-0.1,0.2-0.2,0.2l-0.1,0.2c-0.2,0.2-0.3,0.5-0.4,0.8c-0.3,0.5-0.5,1.1-0.7,1.6c-0.4,1.1-0.9,1.9-1.5,2.1
							c0,0-0.5,0.9-1,1.9c-0.2,0.5-0.5,1.1-0.6,1.6c-0.1,0.5-0.2,1,0,1.3c-0.2-1-1.5,0.8-2-0.2c0.3,1.3-0.8,4.2-2.2,4.6l0-0.2
							c-0.8,0.8-1.4,1.4-2,2.2l9.3,1.3c0.3-0.4,0.6-0.6,1-0.8c0.1-0.1,0.3-0.2,0.5-0.3l0.2-0.1c0.1,0,0,0,0,0l-0.1,0
							c-0.1-0.1-0.1-0.2-0.2-0.3c-0.1-0.1-0.2-0.3-0.3-0.5c-0.3-0.8-0.5-1.9,0-3.3c-0.9,0.2-0.3-1.8-1.5-1.4c-0.4-2.1,0.4-4,0.9-5.6
							c0.5-1.6,0.7-3-0.9-4.1c0.1-1.1,0.4-1.7,0.7-2.2c0.3-0.4,0.7-0.8,0.8-1.3l0.1,0.5c0.3-3.9,0.4-5,1-7.8c-0.1-1.5-1.7-2-0.8-4.5
							c0.5,1,0.6-0.1,0.7-1.1c0,0.6,0.2,0.9,0.9-0.3c-0.2-0.2-0.2-0.5-0.3-0.8c0.1,0,0.1,0,0.2,0c0.1-1.6-0.2-1.4-0.4-0.7
							c-0.1-0.1-0.2,0-0.5,0.2c1.2-1.5,0.9-4.6,2.1-4.6c0.8-4.9,0.5-8.6,1-12.7c0.7-0.3,0.9,0.7,0.9,2l0.5-2.9
							c0.8,0.2,0.1,1.8,0,2.7c2.1-3.1,0.3-7.3,2.4-11.1l-0.5-1l0.2-0.2c-0.3-0.1-0.6-1.1-0.6-1.7c0.4-0.2,0.8-0.1,1.2-0.2
							c0.2-0.1,0.3-0.2,0.5-0.4c0.1-0.2,0.2-0.5,0.3-0.9c1-1.2,0.8-4.2,1-6.4c-0.4,1-0.7,0.6-0.8,0c0.3-1,1.1-1.3,1-2.2l1,0.2
							c-1,0.1-0.2-2.8-0.5-3.3c0.9-0.4,0.2,1.7,0.6,2.1c1.1-4,0.5-2,1.5-6.1c-0.2-2.4-1,0.2-1.6-1.1c0.3-2,0.1-3.9,1-6.1l-1,0.5
							c0-3.7,0.3-5.8,1.3-8.3c-0.8-3.5-2.2-6.1-3.5-7.6c-1.4-1.5-2.7-2-3.5-2.1c-0.8,0-1.6,0-2,0.3C17.1,6.3,17,6.8,17,7.4
							c-0.2,0.9-0.3,1.7-0.3,2.5c0,0.2,0,0.4,0,0.6c0,0.2,0,0.3,0,0.5c0,0.3,0,0.5,0,0.5c-0.3,3.2-0.6,6.5-0.8,10.2
							C15.7,25.5,15.4,29.8,13.9,35.8z"/>
					</g>
				</g>
			</g>
		</g>
	</g>
	<g>
		<g>
			<g>
				<g>
					<g>
						<path class="st0" d="M87.1,85.2l-0.5,0.1C86.7,85.5,86.9,85.4,87.1,85.2z"/>
						<path class="st0" d="M93.9,79.4c0,0-0.1,0-0.1,0.1C93.8,79.4,93.9,79.4,93.9,79.4z"/>
						<path class="st0" d="M68.5,94.7C68.5,94.7,68.5,94.7,68.5,94.7c0-0.1,0-0.2,0-0.2L68.5,94.7z"/>
						<path class="st0" d="M80.3,75.3c-1.7,2.2-3,3.3-4.2,4.6c-1.2,1.3-2.3,2.7-3.4,5.4c-0.7,1.2-1.3,2.4-1.8,3.7l-0.4,1l-0.2,0.5
							l-0.3,0.8c-0.5,1.1-0.9,2.3-1.4,3.3c0.2,1.1-0.4,2.5-0.9,3.9c-0.6,1.4-1.2,2.9-0.9,3.8l-1.2,1.1c0.2,0.6,0.2,1.4-0.4,2.3
							l-0.2,0.1c0.4,0.8-0.3,2.2,0,2.6l-0.3,0.1c-0.1,0.4-0.1,0.8-0.1,1.2l-0.3,0c0.4,1.4,0.4,2.9,0.1,4.5l1-0.9
							c-0.5,1.8-0.1,2.5,0.1,3.2c0.3,0.6,0.6,1.2,0.5,2.8l-0.2,0.2c1.4,0.2,1.6,1.6,2.2,2.9c0.6,1.3,1.7,2.6,3.9,2.1
							c-0.5,0.1,0,0.5-0.2,0.7c0.8,0.1,1.7,0.1,2.4-0.1c0.7-0.3,1.3-0.8,1.6-1.7c1-0.1,0.6,0.5,0.5,1.2c0.1-0.4,0.4-0.7,0.8-1
							c0.4-0.3,0.8-0.5,1.2-0.6l-0.4,0.4c0.4-0.1,0.7-0.3,1.1-0.5c0.4-0.2,0.7-0.4,1.1-0.6l0-1.6c0.9-0.1-0.2,2,0.9,1.1l0.2-1.5
							c0.7-0.3,1.1,0,1.6,0.4c0.2,0.2,0.5,0.4,0.8,0.6c0.3,0.2,0.6,0.3,1,0.3c1.6-1,3.3-2.6,4.8-4.7c0.4-0.5,0.8-1,1.1-1.6l1.1-1.7
							c0.7-1.2,1.4-2.3,2-3.5c0.3-0.6,0.6-1.2,0.9-1.8c0.3-0.6,0.6-1.2,0.9-1.8c0.5-1.1,1.1-2.1,1.6-3.1c0.8-1.5,1.7-2.8,2.8-4
							l0.9,0.1c1.3,0.4-1.1-2.4,0.1-2.1l-0.3-0.9c0.3-0.1,0.7-0.4,0.8,0.1c0.3-0.6,0.1-0.7-0.1-1.3l1-0.4c0.8-1.1,1-2.4,1.2-3.7
							c0-0.3,0.1-0.6,0.1-1c0-0.1,0.1-0.4,0.1-0.6l0.1-0.7c0.1-0.4,0.2-0.8,0.3-1.3c0.1-0.5,0.3-1,0.5-1.6c0.8-1.2,1.3-2.9,1.6-4.7
							c0.2-1.7,0.2-3.6-0.2-5.2c-0.7-3.4-2.4-5.7-4-7c-0.6-0.4-1.3-0.8-2-1.2c-0.3-0.2-0.7-0.3-1.1-0.5c-0.4-0.1-0.8-0.3-1.1-0.4
							c-1.5-0.4-2.9-0.7-4.5-0.7c-1.6,0-3.3,0.3-5.1,1.2c-1.8,0.9-3.6,2.4-4.9,4.3c-0.3,0-0.6,0.9-0.5,1c-1,0.8-1.8,1.6-2.7,2.4
							c-0.6,0.6-1.2,1.1-1.8,1.7c0,0-1,1.1-2.2,2.6c-1.2,1.5-2.4,3.6-3,5.4c-0.6,1.9-0.5,3.6,0.9,4.1c1.5,0.5,4,0.1,8.7-1.2l0.2,0.3
							c2-1.4,3.1-2.3,3.1-4.5c0.7,0.5,1.1,0.2,1.4-0.2l0.2-0.3l0.1-0.2l0-0.1c0.1-0.1,0.1-0.2,0.3-0.1l0.1,0.1
							c-0.2-0.8,0.3-0.8,0.6-0.7c0.4,0.1,0.6,0.3,0.7-0.6c0,0.2,0.1,0.7,0.1,0.8c0.2-0.4,0.6-1.3,0.6,0c0.3-0.4,0.6-0.5,1-0.9
							c0.4-0.3,0.9-0.9,1.9-2.2l-0.3,0.5c0.6-0.9,0.8-0.9,0.9-0.8c0.1,0.1,0.1,0.3,0.6,0.1c-0.1,0.2-0.2,0.4-0.2,0.4
							c0.7-0.6,0.9-0.3,1,0.1c0.1,0.4,0,0.9,0.3,0.8L94.4,81c0.1,0.2,0.2,0.5,0.3,0.8l0.1-0.5c1.1-0.8,0.8-0.3,0.3,0.3
							c-0.4,0.6-1,1.1-0.3,1.1c-0.2,0.4,0.9,0.2,1.8,0.5c0.9,0.2,1.6,0.7,1,1.4c0.4,0.3,0,0.1-0.3,0.1c-0.4-0.1-0.8-0.1-0.5,0.3
							c-1,0-0.6-0.3-1.4-0.1c0.2,0.3-0.2,0.5-0.5,0.7c-0.3,0.2-0.6,0.4-0.4,0.9l-0.8-0.2c0.6,0.6,0,1.4-0.4,1.8
							c-0.5,0.5-0.9,1-0.5,1.7c0,1.7-2.5,0.1-1.7,2.2L90,92.1c-0.4,0.6,1,1,0.2,1.5c-0.6-0.3-0.9,0.7-1.3,0c-0.8,0.6-0.9,1.5-1,2.5
							c-0.1,0.5-0.2,1-0.5,1.4c-0.1,0.2-0.3,0.4-0.5,0.6c-0.1,0.1-0.2,0.2-0.4,0.3c-0.1,0.1-0.3,0.2-0.4,0.1
							c0.5,0.3,0.6,0.5,0.6,0.7c0,0.2,0,0.3,0.3,0.7c-0.4-0.3-0.5,0.6-1.1-0.7c-0.1-0.1,0-0.1,0.1,0l-0.5-0.6
							c-0.6-0.5-0.4-0.3-0.2,0.1c0.2,0.4,0.4,1.1,0.2,1.1c0.2,0.2,0.2,0,0.4,0.7c-0.1,0.1-0.2,0.1-0.3,0.2l-0.2-0.8
							c-0.1,0-0.2-0.1-0.3-0.2l0.3,1c-0.1-0.2-0.3-0.7-0.4-1.1c-0.1-0.3-0.1-0.4-0.1,0.6c0,1.1,0.4,1.5,0.2,2.1
							c-0.2-0.3-0.4-0.6-0.5-1c-0.1-0.4-0.2-0.8-0.3-0.9c-0.1,1.8-0.2,1.8-0.3,2.2l0.2-1.6c-0.6,2.5,0.5-3.6,0.1-1.6l0.2-1.2
							c-0.2,1.2-0.5,2.4-0.8,3.7c-0.5,1.9-0.4,1-0.2,0.2c0.1-0.7,0.3-1.4-0.6,1.2c0.2-0.4-1.1,4.1-1.2,3.4l0.6-1.9
							c-0.3,0.4-0.6,1.2-0.6,0.9c0.4-1,1-2.7,0.7-2.3c0.3-0.8,0.6-1.6,0.9-2.4c-0.5,1.2-1,2.3-1.6,3.5c0.3-1,0.1-0.8-0.1-0.8
							c-0.2,0-0.3,0,0.4-1.4c0,0,0.1-0.4,0-0.4c-0.1,0-0.4,0.2-1.4,1.5c1.2-1.6,1.5-2.4,2.8-4.2c-0.6,0.9-1.3,1.6-1.5,1.9
							c-0.3,0.2-0.2,0,0.5-0.9l0.2-0.2c0.7-1,0.2-0.5-0.2-0.2c-0.4,0.3-0.8,0.4,0.1-0.5c-1.4,1.1-0.6,0.3-2.3,1.7
							c-0.8,0.3,0.2-0.8,0.7-1.2c0.5-0.5,0.5-0.5-1.8,0.4c-0.1-0.4,1.3-1,1.6-1.2l0.2,0c-0.1-0.5-0.1-0.7,0.2-1.2
							c-0.3-0.2-2-0.3-1.3-1c0.6,0.3,0.6,0,0.7-0.2c0,0.2,0.3,0.2,0.8,0.1c-0.2-0.1-0.3-0.2-0.4-0.3c0.1,0,0.1,0,0.2,0
							c-0.1-0.4-0.3-0.4-0.4-0.3c-0.1,0-0.2-0.1-0.4-0.1c0.2,0,0.4-0.1,0.5-0.2c0.1-0.1,0.1-0.2,0.3-0.4c0.2-0.4,0.4-0.7,1-0.5
							c0.8-2.1,0.5-4.1,1.1-5.9c0.6,0.1,0.8,0.7,0.8,1.3l0.5-1.3c0.7,0.4,0,0.9,0,1.3c1.9-0.7,0.4-3.5,2.5-4.5l-0.4-0.7l0.2,0
							c-0.3-0.2-0.5-0.8-0.4-1.1c0.8,0.2,1.4,0.9,1.8,0.1c1-0.2,0.8-1.9,1-2.9c-0.4,0.4-0.6,0-0.7-0.3c0.2-0.4,1-0.2,0.9-0.7L90,81
							c-0.9-0.4-0.2-1.5-0.4-1.9c0.7,0.2,0.1,0.9,0.5,1.3c1-1.6,0.5-0.8,1.4-2.3c0-1.2-0.8-0.4-1.3-1.3c0.4-0.8,0.3-1.9,1.4-2.3
							l-0.9-0.3c0.5-1.7,1.2-2.4,2.6-2.7c0.7-3.4,1.1-5.7,1.3-7.3c0.1-0.8,0-1.4-0.3-1.8c-0.2-0.4-0.6-0.7-1-0.9
							c-1.1-0.2-2.5,0.2-3.5,0.6c-0.5,0.2-0.9,0.4-1.2,0.6c-0.3,0.2-0.5,0.3-0.5,0.3c-2.9,1.6-4.1,3.3-5.1,5.4
							C82.4,70.3,81.7,72.5,80.3,75.3z"/>
					</g>
				</g>
			</g>
		</g>
	</g>
	<g>
		<g>
			<g>
				<g>
					<g>
						<path class="st0" d="M124,90.6l-0.4,0.2C123.7,90.7,123.9,90.7,124,90.6z"/>
						<path class="st0" d="M122.2,75.2C122.2,75.2,122.2,75.2,122.2,75.2C122.2,75.2,122.2,75.2,122.2,75.2z"/>
						<path class="st0" d="M110.4,95.8L110.4,95.8C110.4,95.8,110.4,95.8,110.4,95.8L110.4,95.8z"/>
						<path class="st0" d="M113.4,86.2c-0.9,2.6-2.6,3-2.5,5.7c-0.4,1.2-0.3,2.6-0.5,3.8c1.1,0.9-0.4,1.5,0.4,2.5l-0.8,0
							c0.3,0.3,0.4,0.7,0,0.7l-0.2-0.1c0.4,0.5,0,0.8,0.2,1l-0.2-0.1l-0.1,0.4l-0.3-0.2c0.3,0.7,0.2,1.3-0.3,1.6l0.8,0.3
							c-0.7,0.3-0.6,0.7-0.6,1.1c0,0.3,0,0.7-0.7,0.8l-0.2-0.1c0.6,0.9,0.3,1.1-0.1,1.1l10.4,3.1c0.4-0.6,1.1-1.1-0.2-1.8
							c0.3,0.1,0.5-0.1,0.7-0.1c-0.3-0.5-0.4-1.2-2.1-1.2c0.1-0.5,0.6-0.3,1.3-0.4c-0.8,0-1.1-0.4-1.1-0.8l0.3,0.2l-0.2-1l-1.5,0.1
							c0.5-0.5,1.8,0,1.5-0.5l-1.2-0.1c0.4-0.8,2.2-0.9,3.2-1.4c0.6-1.3,0.3-2.9,0.4-4.5c0-0.4,0.1-0.8,0.1-1.2
							c0.1-0.4,0.2-0.7,0.4-1.1c0.3-0.7,0.8-1.3,1.6-1.7l0.9,0.3c1.2,0.6-1.3-1.6-0.2-1.1l-0.4-0.6c0.3,0,0.6,0,0.7,0.3
							c0.2-0.2,0-0.4-0.2-0.7l0.9,0.1c0.6-0.3,0.7-0.9,0.8-1.5c0.1-0.6,0.1-1.3,0.7-1.7c1.2-0.1,1.8-1,2.3-1.9
							c0.5-1,0.8-2.3,1.1-3.2c0.1-0.8,0.5-1.2,1.1-1.5c0.6-0.3,1.4-0.4,2.1-0.5c0.7-0.1,1.5-0.2,2-0.4c0.6-0.2,1-0.7,1.2-1.5
							c0.2,0.1,0.1-0.3,0-0.5l1.9-1c0,0,0.1-0.1,0.4-0.2c0.2-0.1,0.6-0.3,0.9-0.6c0.3-0.2,0.7-0.6,1.1-0.9c0.4-0.3,0.7-0.7,1-1.1
							c0.5-0.9,0.8-2,0.1-3.4c-0.6-1.3-2.1-3-5.7-4.4l-0.1-0.3c-1.7,0.1-2.7,0.4-2.9,2.2c-1-1.5-1.2,0.5-1.8,0.2l0-0.1
							c0,0.8-0.6,0.8-1.2,0.8c-0.6,0-1.1,0-1.1,0.8c-0.1-0.1-0.3-0.5-0.2-0.7c-0.4,0.6-0.9,1.4-1.6,0.6c-0.6,0.6-1.3,1.2-1.9,1.8
							c-0.6,0.7-1,1.4-0.8,2.3l-0.1-0.3c0.3,1.2-0.4,0.6-0.5,1.5c-0.1-0.1-0.2-0.1-0.2-0.1c0.3,1.2-1.2,1.4-1.2,2.1l-0.5-0.4l-0.7,1
							l0.4-0.2c1.3,1.4-1.5-0.1-1.2,1.4c-0.8,0.5,2,3.8,0.8,3.8c0.5,0.8-0.9-1.1-0.7-0.3c-0.8-0.6-0.3-0.6-1-0.9
							c0,0.7-1.4,0.2-1.3,1.2l-0.6-0.4c0.6,1.6-1.9,1-1.1,2.3c0,1.2-2.3-0.6-1.6,1.1l-1.1-0.2c-0.4,0.3,0.9,0.9,0.3,1.1
							c-0.6-0.3-0.8,0.3-1.2-0.2c-0.7,0.3-0.7,1-0.7,1.7c0,0.7-0.1,1.4-1.2,1.8c1,0.8,0,1.2,0.8,1.8c-0.5-0.2-0.6,1.4-1.4,0.2
							c-0.1-0.1,0-0.2,0.2-0.1l-0.7-0.4c-1.6,0.4,0.2,1.8-0.3,2.6c0.3-0.2,0.4-0.5,0.8-0.1l-0.4,0.7l-0.5-0.4
							c-0.3,0.3-0.5,0.7-0.7,1.1l0.8,0c-0.5,0.5-1.9,0.4-1,1.3c0.5,0.4,1.2-0.3,1.2,0.4c-0.4,0.3-0.8,0.7-1.2,1.2
							c-0.4,0.5-0.7,1-0.9,1.5c0.9,0,0.8,0.3,0.9,0.6l-0.8-0.1c0.9,1.3-1.7,0.2-1.1,1.4l-0.5-0.2l1.6,0.5c1.5,1.1-1.6,0.4,0.4,1.7
							c-0.1-0.4,1.7-0.1,1.3,0.4l-0.7-0.2c0.1,0.3,0.4,0.4,0.3,0.6c-0.4-0.2-1.1-0.1-1,0.3l-0.9-0.3c0.4,0.3,0.9,0.6,1.3,0.9
							c-0.8,0.6,0.3,1.7-0.8,2c0,0-0.4,1.5,0.7,1.7c-0.7-0.2-0.9,0.6-1.8,0.5c0,0,0.1,0,0.1,0.1l14.7,9l-1.3-5c-0.2-0.9,0-2.1,1-2.1
							l0,0.1c0.9-0.6,1-1.4,1.1-2.2c0.1-0.8,0.1-1.4,0.9-1.9c-0.8-0.3-0.1-0.8-1.2-1.1c-0.5-1.7,3.1-1.6,0-3.2c0-0.6,1-0.4,1.3-0.6
							l0.1,0.2c0.1-1.2,0.1-1.5,0.5-2.3c-0.2-0.5-1.7-1-1.2-1.6c0.6,0.4,0.5,0.1,0.6-0.2c0.1,0.2,0.3,0.3,0.8,0.1
							c-0.2-0.1-0.3-0.2-0.4-0.3c0.1,0,0.1,0,0.2,0c-0.1-0.5-0.3-0.5-0.5-0.3c-0.1,0-0.2-0.1-0.4,0c0.9-0.2,0.3-1.3,1.4-1.1
							c0.1-1.4-0.8-2.6-1-3.7c0.6,0,1,0.4,1.2,0.7l0-0.8c0.8,0.2,0.4,0.5,0.5,0.8c1.5-0.7-0.9-2.2,0.5-3l-0.6-0.3l0.1,0
							c-0.3-0.1-0.8-0.4-0.8-0.6c0.7,0,1.6,0.3,1.7-0.3c0.8-0.3-0.1-1.3-0.4-1.9c-0.2,0.3-0.5,0.1-0.8,0c0-0.3,0.7-0.3,0.5-0.6
							l1,0.1c-0.9,0-0.9-0.8-1.3-1c0.7-0.1,0.6,0.5,1.1,0.6c0.1-1.1,0-0.5,0.1-1.6c-0.7-0.7-0.9,0-1.7-0.4c-0.1-0.5-0.7-1.1-0.1-1.6
							l-0.9,0.1c-0.6-1-0.4-1.5,0.5-2.1c-1.6-1.9-3-2.9-4.2-3.4c-1.2-0.5-2.2-0.5-3-0.3c-0.8,0.2-1.3,0.6-1.7,0.9
							c-0.4,0.3-0.6,0.6-0.6,0.6C110.8,81.6,113.2,83.1,113.4,86.2z"/>
					</g>
				</g>
			</g>
		</g>
	</g>
	<g>
		<g>
			<g>
				<g>
					<g>
						<path class="st0" d="M167.7,57.7l-0.4,0.7C167.4,58.4,167.6,58.2,167.7,57.7z"/>
						<path class="st0" d="M165.3,88.3c0,0,0,0.1,0,0.1C165.3,88.3,165.3,88.3,165.3,88.3z"/>
						<path class="st0" d="M150.5,80.6C150.5,80.6,150.5,80.6,150.5,80.6c0-0.1,0-0.2,0-0.2L150.5,80.6z"/>
						<path class="st0" d="M157.3,48.7c-0.5,4.4-1.3,7-2,9.5c-0.7,2.3-1.6,5.2-2.1,9.6c-1,4.2-1.8,8.7-2.7,12.8
							c0.7,2.3-1.5,5.3-1.2,7.8l-1,0.6c0.1,0.9,0,1.9-0.6,2.5l-0.2-0.1c0.1,1.3-0.6,2.5-0.6,3.1l-0.2-0.1l-0.4,1.4l-0.2-0.3
							c-0.1,1.1-0.3,2.1-0.7,3.1c-0.3,1-0.8,1.9-1.3,2.7l0.9,0.2c-1.3,1.7-1.6,3-2,4.2c-0.4,1.3-0.8,2.5-2.2,3.8l-0.2-0.1
							c0,1.7-0.6,2.9-1.4,3.9c-0.8,1-1.8,1.7-2.5,2.6l11.4,1.5c0-0.4-0.1-0.8-0.3-1.2c-0.1-0.5-0.5-0.9-0.9-1.4
							c0.3,0.4,0.4-0.2,0.7-0.2c-0.2-0.8-0.3-1.7-0.5-2.4c-0.2-0.7-0.6-1.3-1.5-1.4c0.2-1.4,0.7-1.1,1.4-1.2
							c-0.4-0.1-0.6-0.4-0.7-0.9c-0.1-0.5,0-1.1,0.1-1.7l0.2,0.6c0.1-0.5,0.2-1.1,0.3-1.6c0.1-0.5,0.2-1.1,0.3-1.7
							c-0.5,0.1-1.1,0.1-1.6,0.2c1-1.6,1.8,0.1,2-1.7l-1.1-0.4c0.6-1.2,1.4-1.9,2.4-2.6c0.5-0.3,0.9-0.7,1.4-1
							c0.5-0.3,1-0.7,1.5-1.2c2.4-4.4,4.8-9.1,7.8-13.5c1.5-2.2,3.1-4.2,5-5.9c1.8-1.7,3.8-3.2,6-4l0.8,0.5c0.4,0.5,0.7-0.2,0.9-1
							c0.2-0.8,0.5-1.5,1-1.1l0.6-1c0.4,0.1,1,0.1,0.7,0.5c0.8-0.3,0.7-0.6,1.2-1.2l1.2,0.4c1.7-0.3,2.9-0.9,4.2-1.3l-6.4-5.3
							c0.1,0.3,0.3,0.6,0.3,0.9c0,0.3-0.1,0.8-0.5,1.2c-0.7,0.4-1.6,1.1-2.7,2c-1.1,0.9-2.5,2.1-4,3.3c-2.9,2.5-6.3,5.6-8.5,8.6
							c-0.7,1.1-1.5,2.3-2.3,3.6c-0.8,1.3-1.5,2.9-1.9,4.6c-0.7,2.5-0.6,5.3,0,7.6c0.6,2.4,1.5,4.5,2.6,6.4c2.2,3.7,5.1,6.5,8.5,7.9
							c0.1,0.3,1,0.5,1.1,0.3c2.3,1.7,4.7,3.3,7.1,4.7c0,0,2.2,1.3,5.3,2.6c3.1,1.3,7,2.7,10.4,3c1.7,0.2,3.2,0.1,4.2-0.2
							c1.1-0.4,1.5-0.9,1.4-1.7c-0.5-1.6-3.1-3.8-8.3-9l0.3-0.2c-3.4-2.2-5.5-3.5-8.7-3.6c0.5-1.7-2.8-1.9-3.2-2.9l0.2-0.1
							c-1.4-0.1-2.3-1.1-3-2c-0.8-1-1.5-2-2.7-2.2c0.2,0,0.5-0.4,0.9-0.1c-0.7-0.4-1.5-1-2-1.5c-0.5-0.5-0.8-1-0.4-1.4
							c-1.1-1-2.1-2.4-2.6-3.5c-0.1-0.1-0.1-0.3-0.2-0.4c-0.1-0.1-0.1-0.2-0.1-0.3c-0.1-0.2-0.2-0.4-0.3-0.6
							c-0.1-0.2-0.1-0.3-0.3-0.5c-0.1-0.2-0.1-0.3-0.3-0.5c-0.1-0.2-0.2-0.4-0.4-0.6l0.2,0.2c-0.2-0.2-0.3-0.4-0.3-0.6
							c0-0.2,0.1-0.3,0.1-0.4c0.2-0.3,0.4-0.5,0.6-1.2c0.2,0,0.3,0,0.3,0c0-0.8,0.7-1.6,1.5-2.3c0.8-0.7,1.8-1.3,2.1-1.9l0.5,0.5
							c0.8-0.7,1.7-1.4,2.6-2.1l-1.1,0.6c-0.8-1.8,2.8-0.5,4.2-3.1c1.1-0.6,1.5-2.2,1.9-3.8c0.4-1.5,0.7-3,1.9-3.7
							c0.1-1.5,0.4,1.8,1.1-0.1c0.8,0.6-0.1,1.1,0.8,1.2c0.2-0.5,0.5-0.9,0.9-1.2c0.3-0.4,0.7-0.7,1-1.1c0.7-0.8,1.4-1.7,1.4-3.4
							l0.8,0c-0.2-1.7-0.1-3.2-0.1-4.6l0-3.6l-4.4-0.1c-0.9,0-1.9-0.2-2.7-0.1c-0.8,0.1-1.6,0.3-2.1,0.9c-0.8,0.4-1.3,0.5-1.8,0.5
							c-0.4,0-0.8-0.1-1.2-0.2c-0.7-0.2-1.5-0.3-2.7,1.1c-0.6-0.1-1.1-0.2-1.7-0.3c-1.4,0.6-0.3,1.6-1.9,2c-0.3-0.6-2,0.7-1.5-0.4
							c-1.8,0.6-3.1,2-4.4,3.5c-1.3,1.5-2.7,3-5,4c0.2,1.6-1.9,2.7-1.7,3.9c-0.5-0.3-3,3.4-2.3,0.7c0.1-0.2,0.3-0.5,0.5-0.4
							l-0.4-0.7c-2.8,1.1-2.5,4.2-4.1,6.1c0.7-0.5,1.2-1.3,1.2-0.5l-1.5,1.9l-0.2-0.8c-0.8,0.9-1.6,1.8-2.3,2.7l0.9,0
							c-1.3,1.2-2.8,1.1-2.8,3.4c0.1,1.1,1.7-0.9,1,0.8c-1.6,1.7-4,4.5-5.4,7.2c0.9,0.1,0.6,0.8,0.4,1.7l-0.7-0.2
							c-0.2,3.4-2,0.5-2.3,4l-0.4-0.4l1.3,1.3c0.3,1.7-0.2,1.9-0.6,2.3c-0.4,0.3-0.8,0.8-0.1,2.7c0.2-1.3,1.7-0.3,1.2,1.2l-0.7-0.5
							c0,0.9,0.3,1.3,0,1.8c-0.3-0.6-1.1-0.5-1.1,1l-0.8-1c0.4,1,0.7,1.9,1.1,2.8c-0.4,1-0.4,2.4-0.3,3.6c0.1,1.2,0.3,2.3-0.2,2.9
							c0,0,0,0.5,0.1,1.1c0.1,0.7,0.4,1.6,0.7,2.4l5.1,13.7l6.6-12.1c0.4-0.8,0.7-1.6,0.5-2.1c0.2,1.1,1.6-0.6,1.9,0.3
							c-0.1-1.3,0.8-4.2,2.2-4.8l0,0.2c1.4-1.7,2.1-3.5,2.6-5.3c0.6-1.7,1-3.4,2.3-5c-0.9-0.2,0.4-1.9-0.9-1.8c0.5-4,4.8-5.9,2-8.4
							c0.4-1.7,1.5-1.7,1.9-2.5l0,0.5c0.8-3.3,1-4.2,1.8-6.5c0-1.3-1.5-1.9-0.5-3.9c0.4,0.9,0.6,0,0.8-0.8c0,0.5,0.1,0.8,0.9-0.2
							c-0.2-0.2-0.2-0.5-0.3-0.7c0.1,0,0.1,0,0.2,0c0.1-1.4-0.1-1.2-0.4-0.6c-0.1-0.1-0.2,0-0.5,0.1c1.2-1.2,0.9-3.8,2.1-3.7
							c0.7-4.1,0.3-7.2,0.5-10.6c0.6-0.3,1,0.6,1,1.6l0.3-2.4c0.8,0.2,0.2,1.5,0.2,2.2c1.9-2.6-0.1-6,1.6-9.4l-0.6-0.8l0.1-0.2
							c-0.3,0-0.7-0.9-0.8-1.4c0.8-0.4,1.6,0.2,1.8-1.5c0.8-1.3,0-3.8-0.3-5.6c-0.2,0.9-0.6,0.6-0.8,0.2c0-0.8,0.8-1.3,0.5-1.9l1,0
							c-0.9,0.3-0.8-2.2-1.2-2.5c0.7-0.4,0.5,1.3,1.1,1.5c0.1-3.3,0.1-1.6,0.2-4.9c-0.6-1.8-0.9,0.2-1.7-0.6
							c-0.1-1.5-0.6-3.1,0.2-4.8l-0.9,0.5c-0.4-2.9,0-4.7,1.2-6.4c-0.7-5.5-0.9-8.9-1.3-10.9c-0.5-1.9-1.4-2.2-2.4-1.8
							c-0.5,0.3-1.1,0.7-1.6,1.3c-0.3,0.3-0.5,0.6-0.8,0.9c-0.2,0.3-0.5,0.7-0.7,1c-0.4,0.7-0.8,1.3-1,1.8c-0.2,0.5-0.3,0.8-0.3,0.8
							c-2.3,4.6-2.6,8.3-2.6,12.1C156.8,39.8,157.3,43.6,157.3,48.7z"/>
					</g>
				</g>
			</g>
		</g>
	</g>
	<g>
		<g>
			<g>
				<g>
					<g>
						<path class="st0" d="M271.6,34.2l-0.5,0.2C271.2,34.5,271.4,34.4,271.6,34.2z"/>
						<path class="st0" d="M261.7,114C261.7,114,261.8,114,261.7,114C261.7,114,261.7,114,261.7,114z"/>
						<path class="st0" d="M252.8,43.3C252.8,43.3,252.8,43.3,252.8,43.3c0-0.1,0-0.1,0-0.2L252.8,43.3z"/>
						<path class="st0" d="M264.8,24c-0.4,0.6-0.8,1-1.1,1.4c-0.3,0.4-0.8,0.9-1.1,1.3c-0.8,0.8-1.5,1.5-2.1,2.3
							c-1.3,1.5-2.6,3.1-3.8,6c-0.8,1.3-1.5,2.7-2.1,4.1c-0.6,1.4-1.2,2.8-1.7,4.2c0.5,1.8-1.7,3.5-1.4,5.4l-0.9,0.3
							c0.1,0.7,0.1,1.4-0.5,1.7l-0.2-0.1c0.2,1-0.5,1.7-0.4,2.2l-0.2-0.1l-0.3,1l-0.2-0.3c0,1.6-0.6,3-1.3,4.1l0.9,0.2
							c-2,2.2-0.7,3.9-2.7,5.8l-0.2-0.1c1.1,3.8-3.3,4.2-2.3,8.1c-0.1-0.5-0.5,0-0.7-0.1c-0.3,1.5-0.7,3.1,1,3.7
							c-0.4,1-0.8,0.7-1.5,0.6c0.7,0.2,0.7,1.2,0.5,2.1l-0.2-0.5l-0.5,2.4l1.5,0c-0.8,1.1-1.8-0.2-1.8,1.1l1.2,0.3
							c-0.8,1.6-2.8,2.1-4.2,3.6c-0.7,1.7-1.1,3.5-1.4,5.4c-0.3,1.9-0.6,3.7-0.8,5.6c-0.3,1.9-0.5,3.8-0.9,5.7
							c-0.4,1.9-0.8,3.9-1.4,6l-0.9,0.4c-0.7,0.1-0.2,0.7,0.4,1.4c0.5,0.6,1.2,1.2,0.6,1.5c0.2,0.3,0.5,0.7,0.8,1
							c-0.2,0.3-0.3,1.1-0.7,0.6c0.2,1.1,0.4,1.1,1.1,1.7c-0.1,0.5-0.2,1-0.3,1.5c0.8,2.4,2.6,4.2,4.5,5.3c2,1.1,3.9,1.7,5.8,2.4
							c1,0.8,2.4,1.3,3.9,1.6c0.7,0.2,1.5,0.2,2.3,0.3c0.7,0,1.4,0,2.1,0c2.9-0.1,5.7-0.8,7.8-1.3c2.8-1.1,6-0.6,9.3-0.4
							c3.3,0.3,6.6,0.3,9.2-1.7c0.2,0.1,0.6-0.4,0.6-0.6c0.9-0.2,1.8-0.5,2.6-0.7c0.9-0.2,1.8-0.5,2.6-0.8c0,0,1.6-0.5,3.5-1.5
							c2-0.9,4.3-2.3,5.8-3.8c1.5-1.5,2.3-3,1.2-4.2c-1-1.2-3.8-1.8-9-2.5l0-0.3c-2.7,0.4-4.2,0.9-5.4,2.8c-0.9-1.6-2.1,0.5-2.9,0.2
							l0-0.2c-1.1,1.8-3.5-0.1-4.6,1.4c0-0.2-0.1-0.6,0.3-0.7c-1,0.5-2.4,1.2-2.7,0.2c-2.5,0.8-6.2,0.9-7.8,2.7l0.1-0.3
							c-0.9,1.2-1.2,0.3-2.3,0.9c-0.1-0.1-0.2-0.2-0.1-0.3c-1,1.2-3.1,0.3-4,0.8l-0.1-0.7c-0.7,0.1-1.4,0.1-2.1,0.1l0.8,0.2
							c-0.3,1.9-1.6-1.2-3.2-0.1c-0.4-0.1-0.7,0.1-1.1,0.4c-0.4,0.3-0.8,0.7-1.2,1.1c-0.8,0.8-1.7,1.5-2.4,0.9
							c-0.9,0.7,0.9-1.3-0.2-0.8c0.2-1,0.6-0.5,0.5-1.3c-0.5,0.1-0.8-0.2-1.1-0.6c-0.3-0.3-0.5-0.6-1.1-0.5l0.3-0.7
							c-0.8,0.4-1.2-0.1-1.3-0.6c-0.1-0.4-0.1-0.8-0.8-0.6c-0.5-0.2-0.1-0.7,0.3-1c0.2-0.2,0.3-0.3,0.4-0.4c0-0.1-0.1-0.2-0.6-0.3
							c0.3-0.2,0.6-0.4,0.9-0.6c0.1-0.4-1.3-0.1-0.9-0.7c0.7,0,0.5-0.8,1.1-0.5c0.5-0.7,0.1-1.4-0.1-2.3c-0.2-0.9-0.2-2,0.9-3
							c-1.2-0.8-0.1-1.8-1-2.5c0.5,0.1,0.7-2.5,1.5-0.8c0.1,0.1,0,0.4-0.2,0.3l0.7,0.3c1.7-1.1-0.1-2.8,0.5-4.2
							c-0.4,0.4-0.4,1-0.8,0.4l0.5-1.3l0.5,0.5l0.9-1.9l-0.8,0.1c0.7-0.9,2-0.9,1.3-2.3c-0.5-0.7-1.3,0.6-1.2-0.5
							c0.9-1.2,2.3-2.9,3-4.5c-0.9-0.1-0.7-0.5-0.8-1.1l0.7,0.2c-0.5-2.1,1.8-0.1,1.5-2.1l0.5,0.3l-1.4-0.9c-0.9-2,1.8-0.4,0.4-2.8
							c-0.1,0.7-1.7-0.2-1.1-1l0.6,0.4c0-0.5-0.2-0.8,0-1c0.3,0.4,1,0.5,1.1-0.2l0.7,0.8l-0.8-1.7c1.1-0.7,0.7-2.7,1.8-2.7
							c0,0,1.3-2,0.4-2.9c0.5,0.7,1.2-0.4,1.9,0.2c-0.6-0.8-0.6-2.7,0.5-3l0,0.2c1.7-2.1,0.5-4.5,2.3-6.3c-0.9-0.2,0.1-1.2-1.1-1.3
							c-0.1-2.7,3.8-3.1,1-5.3c0.3-1.1,1.3-0.8,1.7-1.3l0.1,0.3c0.6-2,0.8-2.5,1.5-3.9c0-0.8-1.4-1.7-0.4-2.7
							c0.4,0.7,0.5,0.1,0.8-0.3c-0.1,0.3,0.1,0.5,0.8,0.1c-0.1-0.2-0.2-0.4-0.2-0.5c0,0,0.1,0,0.2,0.1c0.2-0.9-0.1-0.8-0.3-0.5
							c-0.1-0.1-0.2-0.1-0.4-0.1c1.1-0.4,1.1-2.2,2.1-1.8c0.9-2.4,0.8-4.5,1.5-6.6c0.6,0.1,0.8,0.8,0.7,1.4l0.6-1.4
							c0.7,0.4,0,1-0.1,1.5c2-0.9,0.7-3.9,2.8-5.1l-0.3-0.7l0.2-0.1c-0.3-0.2-0.5-0.8-0.4-1.1c0.8,0.1,1.4,0.9,1.9,0
							c0.5-0.2,0.7-0.7,0.9-1.4c0.2-0.7,0.3-1.5,0.4-2.1c-0.4,0.5-0.7,0.1-0.7-0.3c0.3-0.5,1-0.4,1-0.9L275,29
							c-0.9-0.3-0.2-1.7-0.4-2.1c0.8,0.1,0.1,1,0.5,1.4c1-1.9,0.5-1,1.5-2.9c-0.1-1.3-0.9-0.3-1.4-1.2c0.3-1,0.2-2.2,1.3-2.8
							l-0.9-0.1c0.4-2,1.1-2.9,2.5-3.4c0.4-3.8,0.8-6.2,1.5-8c0.4-1,0.2-1.4,0-1.9c-0.2-0.5-0.5-0.8-0.9-1c-0.3,0-0.7,0-1.1,0
							c-0.2,0-0.4,0.1-0.6,0.1c-0.2,0.1-0.4,0.1-0.6,0.2c-0.7,0.2-1.6,0.6-2.1,0.9c-0.6,0.3-1.1,0.7-1.4,0.9
							c-0.3,0.2-0.5,0.4-0.5,0.4c-1.6,1.2-2.6,2.3-3.3,3.4c-0.8,1.1-1.2,2.2-1.7,3.4C266.5,18.6,266.1,21.2,264.8,24z"/>
					</g>
				</g>
			</g>
		</g>
	</g>
	<g>
		<g>
			<g>
				<g>
					<g>
						<path class="st0" d="M270,60.4l0.3,0.3C270.2,60.5,270.1,60.4,270,60.4z"/>
						<path class="st0" d="M292.4,48C292.4,48,292.4,48,292.4,48C292.3,48,292.4,48,292.4,48z"/>
						<path class="st0" d="M279.1,69.2L279.1,69.2C279.1,69.3,279.1,69.3,279.1,69.2L279.1,69.2z"/>
						<path class="st0" d="M274.1,70.8c1.4-0.3,2.5,1.1,3.4-0.2c0.7-0.2,1.1-0.9,1.6-1.4c-0.3-1.3,0.8-0.4,0.6-1.6l0.5,0.6
							c-0.1-0.4,0-0.7,0.3-0.4l0.1,0.2c-0.1-0.6,0.3-0.4,0.2-0.7l0.1,0.2l0.2-0.2l0.1,0.3c0-0.7,0.3-0.9,0.7-0.8l-0.4-0.8
							c1,0.6,0.4-1.2,1.5-0.4l0.1,0.2c-0.4-2.4,1.8,0.9,1.4-1.5c0,0.3,0.3,0.4,0.3,0.6c0.2-0.4,0.5-0.7-0.4-2.2
							c0.2-0.1,0.4,0.4,0.8,1c-0.4-0.7-0.3-1.1-0.2-1.2l0.1,0.3l0.4-0.5l-0.8-1.2c0.5,0.2,0.9,1.5,1,1.1l-0.6-1.1
							c0.5,0,1.6,1.5,2.4,2.1c1.8-0.4,1.9-3.9,4.3-2.9l0.5,0.8c0.7,1.1-0.6-1.9,0.1-0.9l-0.1-0.6c0.2,0.2,0.4,0.3,0.4,0.6
							c0.2,0,0.1-0.2,0-0.6l0.6,0.6c0.9,0.2,0.6-1.4,1.4-1.5c1.6,1,2.2-1.2,2.6-2.4c0.1-2.3,4.2,1.3,4.1-1.4c0.1,0.1,0-0.3-0.1-0.4
							l1.2-0.5c0,0,0.3-0.2,0.7-0.6c0.3-0.4,0.7-1,0.7-1.8c0.1-1.6-1.2-3.8-6.1-7.1l-0.1-0.3c-0.9-0.2-1.3-0.1-0.9,1.3
							c-1-1.4-0.5,0.1-1-0.3l-0.1-0.1c0.4,1.4-1.3-0.5-0.9,0.7c-0.1-0.1-0.3-0.5-0.3-0.6c-0.1,0.3-0.2,0.9-0.8,0
							c-0.4,0.6-1.4,0.6-0.9,2.3l-0.1-0.3c0.4,1.1-0.2,0.3-0.1,0.9c-0.1-0.1-0.1-0.2-0.2-0.2c0.4,1.1-0.6,0.5-0.5,1.1l-0.4-0.6
							l-0.4,0.4l0.2,0c0.9,1.7-0.9-0.8-0.6,0.4c-0.4,0,1.4,3.7,0.6,3.1c0.3,0.9-0.6-1.3-0.5-0.6c-0.5-0.8-0.2-0.6-0.7-1.2
							c0,0.5-0.9-0.7-0.8,0.1l-0.4-0.7c0.3,1.4-1.2-0.5-0.8,0.8c-0.1,0.8-1.4-1.8-1-0.3l-0.7-0.8c-0.2-0.1,0.5,1.2,0.1,0.8
							c-0.3-0.6-0.5-0.3-0.7-0.9c-0.9-0.7-0.1,1.7-1.5,0.5c0.5,1.2-0.1,0.7,0.2,1.6c-0.3-0.5-0.6,0.2-0.9-1c0-0.1,0-0.1,0.1,0.1
							l-0.3-0.7c-1-1.1-0.2,1-0.6,1c0.2,0.2,0.3,0,0.5,0.5l-0.3,0.1l-0.2-0.6l-0.6-0.1l0.4,0.7c-0.4-0.2-1.1-1.4-0.8-0.3
							c0.2,0.6,0.7,0.8,0.6,1.2c-0.5-0.3-1.3-0.8-1.8-0.8c0.5,0.8,0.3,0.8,0.3,1l-0.4-0.7c0.1,1.1-0.9-1.4-0.9-0.5l-0.2-0.5l0.7,1.5
							c0.4,1.5-0.9-1.3-0.3,0.7c0.1-0.2,0.9,1.5,0.5,1.3L280,54c0,0.2,0.1,0.5-0.1,0.4c-0.1-0.4-0.5-1-0.6-0.8l-0.3-0.9l0.3,1.4
							c-0.6-0.6-0.5,0.5-1.1-0.4c0,0-0.7-0.2-0.3,0.9c-0.2-0.7-0.6-0.8-0.9-1.6c0.3,0.8,0.2,1.6-0.4,0.9l0-0.1
							c-1-0.5-0.4,1.6-1.4,0.9c0.4,0.8,0,0.5,0.5,1.5c0,1.3-2-1.6-0.6,1.7c-0.1,0.3-0.7-0.6-0.9-0.7l0-0.2c-0.3,0.5-0.4,0.6-0.8,0.7
							c0,0.4,0.7,1.8,0.3,1.7c-0.2-0.6-0.3-0.5-0.4-0.4c0-0.1-0.1-0.3-0.4-0.7c0.1,0.2,0.1,0.3,0.1,0.4c0,0,0-0.1-0.1-0.1
							c-0.1,0.3,0.1,0.5,0.2,0.5c0,0.1,0.1,0.2,0.2,0.3c-0.6-0.6-0.5,0.3-1-0.6c-0.4,0.5-0.3,1.7-0.5,2.4c-0.3-0.5-0.5-1-0.4-1.3
							l-0.2,0.4c-0.4-0.7,0-0.5,0-0.7c-1-1-0.2,1.6-1.2,0.8l0.2,0.6l-0.1-0.1c0.2,0.3,0.3,0.8,0.3,0.9c-0.4-0.6-0.8-1.5-1-1.3
							c-0.5-0.5-0.3,0.6-0.4,1c0.2,0,0.3,0.4,0.4,0.7c-0.1,0.1-0.5-0.5-0.4-0.2l-0.5-0.9c0.5,0.8,0.2,1,0.3,1.4
							c-0.4-0.6-0.1-0.6-0.3-1.1c-0.4,0.3-0.2,0.2-0.6,0.5c0.1,0.8,0.5,0.8,0.8,1.6c-0.1,0.3,0,1-0.5,0.6l0.5,0.7
							c-0.1,0.8-0.4,0.8-1,0.2c0.2,3.9,1.2,6.1,2.2,7.3c0.9,1.2,1.8,1.5,1.8,1.5C273.7,74.6,273.1,72.1,274.1,70.8z"/>
					</g>
				</g>
			</g>
		</g>
	</g>
	<g>
		<g>
			<g>
				<g>
					<g>
						<path class="st0" d="M278.6,15.4l0.3,0.2C278.8,15.5,278.7,15.4,278.6,15.4z"/>
						<path class="st0" d="M299.9,3C299.9,3,299.9,3,299.9,3C299.9,3,299.9,3,299.9,3z"/>
						<path class="st0" d="M288.6,23.1L288.6,23.1C288.6,23.1,288.6,23.2,288.6,23.1L288.6,23.1z"/>
						<path class="st0" d="M284.5,24.9c1.2-0.4,2.4,0.8,2.9-0.4c0.5-0.2,0.8-0.9,1.1-1.3c-0.5-1.2,0.6-0.4,0.2-1.5l0.5,0.5
							c-0.1-0.4-0.2-0.7,0.2-0.4l0.1,0.2c-0.2-0.6,0.2-0.4,0.1-0.7l0.1,0.2l0.1-0.2l0.1,0.3c-0.1-0.7,0.1-0.8,0.5-0.7l-0.5-0.7
							c1,0.6,0.2-1.1,1.2-0.4l0.1,0.2c-0.7-2.4,1.7,0.9,1.1-1.4c0.1,0.3,0.3,0.4,0.4,0.6c0.1-0.4,0.3-0.7-0.5-2.2
							c0.2-0.1,0.4,0.4,0.8,1c-0.4-0.7-0.4-1-0.2-1.2l0.1,0.3l0.3-0.5l-0.8-1.2c0.4,0.2,0.9,1.5,1,1.1l-0.6-1c0.4,0,1.5,1.5,2.2,2.1
							c1.5-0.2,1.5-3.7,3.7-2.4l0.5,0.8c0.6,1.2-0.5-1.9,0.1-0.8l-0.1-0.6c0.1,0.2,0.3,0.4,0.4,0.7c0.2,0,0.1-0.2,0-0.6l0.5,0.7
							c0.8,0.3,0.6-1.3,1.3-1.3c1.4,1.2,2-0.8,2.4-1.9c0.2-2.3,3.6,2,3.8-0.6c0.1,0.2,0-0.3,0-0.4l1.1-0.3c0,0,1.3-0.4,1.5-1.9
							c0.3-1.5-0.5-4-4.5-8.2l-0.1-0.3c-0.8-0.4-1.3-0.4-1.1,1.1c-0.8-1.6-0.5,0-0.9-0.4l0-0.1c0.2,1.4-1.2-0.7-1,0.5
							c0-0.1-0.2-0.6-0.2-0.6c-0.1,0.3-0.3,0.8-0.8-0.1C301,1,300,1,300.3,2.6l-0.1-0.3c0.2,1.1-0.2,0.3-0.2,0.9
							c-0.1-0.1-0.1-0.2-0.1-0.2c0.2,1.1-0.6,0.5-0.6,1L299,3.4l-0.4,0.4l0.2,0.1c0.7,1.7-0.8-0.9-0.7,0.3c-0.4-0.1,1,3.8,0.3,3.2
							c0.2,0.9-0.5-1.4-0.4-0.6c-0.4-0.9-0.2-0.6-0.6-1.3c0,0.5-0.8-0.7-0.8,0l-0.3-0.7c0.2,1.4-1.1-0.6-0.8,0.7
							c-0.1,0.7-1.2-1.9-1-0.4l-0.6-0.9c-0.2-0.1,0.4,1.2,0,0.8c-0.3-0.6-0.5-0.4-0.6-1c-0.9-0.7-0.2,1.7-1.5,0.5
							c0.5,1.2-0.2,0.7,0.2,1.6c-0.3-0.5-0.6,0.2-0.8-1c0-0.1,0-0.1,0.1,0.1l-0.3-0.7c-1-1.1-0.2,1-0.6,1c0.2,0.2,0.3,0,0.5,0.5
							L290.7,6l-0.2-0.6l-0.6-0.1l0.4,0.7c-0.4-0.2-1.1-1.4-0.8-0.3c0.2,0.6,0.7,0.8,0.6,1.2c-0.5-0.3-1.3-0.8-1.8-0.8
							c0.5,0.8,0.4,0.8,0.3,1l-0.4-0.7c0.1,1.1-1-1.4-0.9-0.4L287,5.5l0.7,1.5c0.4,1.5-1-1.3-0.3,0.7c0.1-0.2,0.9,1.4,0.6,1.2
							l-0.3-0.7c0,0.2,0.1,0.5,0,0.4c-0.1-0.4-0.5-1-0.6-0.8L286.6,7l0.4,1.3c-0.6-0.6-0.5,0.5-1.1-0.3c0,0-0.7-0.2-0.2,0.9
							c-0.3-0.7-0.7-0.7-1-1.5c0.3,0.8,0.3,1.5-0.3,0.9l0-0.1c-1-0.4-0.3,1.6-1.3,1c0.5,0.7,0,0.5,0.7,1.4c0.1,1.2-2.1-1.4-0.4,1.7
							c-0.1,0.3-0.7-0.5-0.9-0.6l-0.1-0.2c-0.2,0.5-0.3,0.6-0.7,0.7c0,0.4,0.9,1.7,0.5,1.6c-0.3-0.6-0.3-0.4-0.4-0.4
							c0-0.1-0.1-0.3-0.5-0.6c0.1,0.2,0.1,0.3,0.2,0.4c0,0-0.1-0.1-0.1-0.1c0,0.3,0.1,0.4,0.2,0.5c0.1,0.1,0.1,0.2,0.3,0.3
							c-0.6-0.6-0.4,0.4-1.1-0.5c-0.3,0.6,0,1.7-0.1,2.4c-0.4-0.4-0.6-0.9-0.6-1.2l-0.2,0.4c-0.5-0.7-0.1-0.5-0.1-0.7
							c-1.1-0.8,0.1,1.6-1,0.9l0.3,0.6l-0.1-0.1c0.2,0.3,0.4,0.7,0.4,0.8c-0.5-0.5-1-1.3-1.2-1.1c-0.6-0.4-0.2,0.6-0.2,1.1
							c0.2,0,0.4,0.4,0.5,0.6c-0.1,0.1-0.6-0.4-0.5-0.1l-0.6-0.8c0.6,0.7,0.4,1,0.6,1.3c-0.5-0.5-0.2-0.6-0.6-1
							c-0.3,0.4-0.2,0.2-0.5,0.6c0.3,0.7,0.6,0.7,1,1.4c-0.1,0.3,0.2,0.9-0.4,0.7l0.6,0.6c0.1,0.8-0.1,0.9-0.9,0.4
							c1.1,3.7,2.6,5.5,3.7,6.6c1.2,1,2,1.2,2,1.2C285.1,28.5,283.9,26.2,284.5,24.9z"/>
					</g>
				</g>
			</g>
		</g>
	</g>
	<g>
		<g>
			<g>
				<g>
					<g>
						<g>
							<path class="st0" d="M310,63.3l-0.1,0.4C310,63.6,310.1,63.4,310,63.3z"/>
							<path class="st0" d="M347.9,98.4C347.9,98.4,347.9,98.4,347.9,98.4C347.9,98.4,347.9,98.4,347.9,98.4z"/>
							<path class="st0" d="M305.3,77.1L305.3,77.1c0,0-0.1,0-0.1,0L305.3,77.1z"/>
							<path class="st0" d="M299.9,68.6c0.6,1,0.7,2,0.9,2.9c0.2,0.9,0.5,1.7,1.6,2.6c0.7,1.1,1.8,2.1,2.8,3.1
								c1.4-0.2,1.1,1.5,2.4,1.5l-0.4,0.7c0.5,0,0.9,0.1,0.7,0.6l-0.2,0.1c0.7,0,0.7,0.6,1.1,0.6l-0.2,0.1l0.4,0.4l-0.3,0.1
								c1,0.3,1.5,0.8,1.8,1.6l0.6-0.6c0.4,2,2,0.9,2.1,2.7l-0.2,0.1c2.8-0.5,0.7,3,3.5,2.5c-0.3,0.1-0.2,0.4-0.4,0.5
								c0.7,0.3,1.4,0.8,2.6-0.5c0.4,0.4,0,0.7-0.4,1.3c0.5-0.6,1.1-0.5,1.4-0.2l-0.3,0.1l1.1,0.6l0.8-1.3c0.2,0.7-1,1.4-0.3,1.6
								l0.8-0.9c0.5,0.7-0.3,2.5-0.2,3.7c2.5,2.7,7.4,2.7,8.8,6.3l-0.4,0.8c-0.7,1.1,1.9-1,1.3,0l0.7-0.3c-0.1,0.3,0,0.6-0.3,0.7
								c0.3,0.3,0.4,0.1,0.8-0.1l-0.2,0.9c0.8,1.3,2.6,0.7,3.6,1.9c0.5,2.4,4,3,6.1,3.4c3.3-0.1,2.7,6,6.2,5.7c0,0.2,0.4,0,0.5-0.1
								l1.8,1.6c0,0,2.3,1.8,4.4,2c2.2,0.1,4.5-1.4,4.2-8.6l0.2-0.2c-0.7-1.4-1.3-2.1-2.9-1.5c0.9-1.5-0.8-0.8-0.7-1.5l0.1-0.1
								c-1.5,0.6-0.7-1.9-2.1-1.4c0.1-0.1,0.4-0.5,0.6-0.4c-0.6-0.2-1.5-0.3-0.9-1.2c-1.3-0.6-2.6-2.1-4.3-1.3l0.2-0.2
								c-1.1,0.6-0.6-0.2-1.4-0.1c0.1-0.1,0.1-0.2,0.1-0.3c-1.1,0.6-1.4-0.8-2.1-0.7l0.4-0.6l-1-0.5l0.3,0.4c-1.2,1.5,0-1.4-1.3-0.9
								c-0.5-0.6-3.5,2.3-3.6,1.1c-0.8,0.5,1.1-1,0.3-0.7c0.6-0.8,0.6-0.4,0.9-1.1c-0.7,0.1-0.1-1.3-1.1-1.2l0.4-0.6
								c-1.5,0.6-0.7-1.8-2-1c-1.1,0,0.9-2.2-0.8-1.5l0.3-1c-0.2-0.4-1,0.9-1,0.2c0.4-0.5-0.1-0.7,0.4-1.1c-0.2-1.4-2.5,0-2.5-2.2
								c-1,0.8-1-0.2-1.8,0.5c0.3-0.5-1-0.9,0.3-1.4c0.1,0,0.2,0,0,0.2l0.5-0.5c0.3-1.6-1.5-0.2-2-0.8c0,0.3,0.3,0.5-0.2,0.7
								l-0.5-0.5l0.5-0.4l-0.5-0.9l-0.4,0.7c-0.1-0.6,0.6-1.8-0.5-1.2c-0.6,0.3-0.3,1.1-0.9,1c-0.2-0.8-0.4-2.1-0.9-2.8
								c-0.5,0.7-0.7,0.6-1,0.5l0.5-0.6c-1.4,0.2,0.8-1.5-0.3-1.4l0.4-0.4l-1.2,1.1c-1.6,0.6,0.7-1.5-1.3-0.5c0.3,0.1-1,1.4-1.1,0.8
								l0.6-0.5c-0.3,0-0.5,0.1-0.6-0.1c0.4-0.2,0.8-0.7,0.4-0.9l0.8-0.5l-1.4,0.6c0.2-0.9-1.1-0.7-0.5-1.6c0,0-0.4-1.1-1.4-0.4
								c0.6-0.4,0.4-1,1.1-1.4c-0.8,0.4-1.8,0.3-1.4-0.6l0.1,0c-0.2-1.4-2.4-0.7-2.1-2c-0.6,0.6-0.6,0-1.4,0.8
								c-1.5-0.1,0.6-2.9-2.4-1.1c-0.5-0.3,0.3-1,0.3-1.3l0.2,0c-0.8-0.6-1-0.8-1.4-1.5c-0.5-0.1-1.9,0.8-1.9,0
								c0.7-0.2,0.4-0.4,0.2-0.6c0.2,0.1,0.4,0,0.6-0.6c-0.2,0.1-0.3,0.1-0.5,0.1c0,0,0.1-0.1,0.1-0.1c-0.4-0.2-0.6,0-0.5,0.2
								c-0.1,0.1-0.2,0.1-0.3,0.3c0.4-0.8-0.8-1,0.1-1.7c-1-0.9-2.4-1-3.4-1.6c0.4-0.4,0.9-0.5,1.3-0.4l-0.6-0.5
								c0.7-0.5,0.6,0.1,0.9,0.2c0.5-1.6-2.2-0.7-1.9-2.3l-0.7,0.2l0-0.1c-0.3,0.2-0.8,0.3-1,0.3c0.5-0.6,1.3-1,0.9-1.4
								c0.2-0.8-1.1-0.8-1.8-0.9c0.1,0.3-0.2,0.5-0.5,0.6c-0.2-0.2,0.2-0.8-0.2-0.7l0.7-0.7c-0.6,0.7-1.2,0.1-1.6,0.3
								c0.4-0.6,0.7-0.1,1.2-0.4c-0.9-0.8-0.4-0.4-1.3-1.2c-1,0.1-0.6,0.7-1.4,1.1c-0.5-0.2-1.3-0.1-1.4-0.9l-0.4,0.8
								c-0.6-0.1-1-0.2-1.2-0.5c-0.3-0.2-0.4-0.6-0.4-1.2c-0.6,0.1-1.2,0.2-1.7,0.5c-0.5,0.2-0.9,0.4-1.3,0.7
								c-0.7,0.6-1.1,1.1-1.4,1.7c-0.2,0.6-0.5,1.1-0.6,1.6c-0.1,0.5-0.1,0.9-0.1,1.3c-0.1,0.8-0.3,1.3-0.4,1.6
								c-0.1,0.1-0.1,0.3-0.1,0.4c0,0.1,0,0.1,0,0.1C295.3,68.5,297.6,67,299.9,68.6z"/>
						</g>
					</g>
				</g>
			</g>
		</g>
		<g>
			<g>
				<g>
					<g>
						<g>
							<path class="st0" d="M339.1,71.7l-0.4,0C338.9,71.7,339,71.8,339.1,71.7z"/>
							<path class="st0" d="M311.4,109.9C311.5,109.9,311.5,109.9,311.4,109.9C311.5,109.9,311.5,109.9,311.4,109.9z"/>
							<path class="st0" d="M325.1,70.9L325.1,70.9C325.1,70.8,325.1,70.8,325.1,70.9L325.1,70.9z"/>
							<path class="st0" d="M331,63.8c-1.7,1.8-3.4,1.4-4.2,3.8c-0.8,0.9-1.2,2.2-1.7,3.2c0.8,1.2-0.9,1.3-0.4,2.4l-0.8-0.2
								c0.2,0.4,0.2,0.8-0.2,0.7l-0.2-0.1c0.3,0.6-0.2,0.7-0.1,1l-0.2-0.1l-0.2,0.4l-0.2-0.2c0.1,0.8-0.2,1.3-0.7,1.6l0.8,0.5
								c-1.5,0.3-0.2,1.8-1.8,1.9l-0.2-0.1c1.1,2.5-2.5,0.7-1.5,3.2c-0.1-0.3-0.4-0.2-0.6-0.4c-0.2,0.7-0.5,1.3,0.9,2.3
								c-0.3,0.4-0.7,0-1.2-0.4c0.6,0.5,0.6,1,0.5,1.3l-0.1-0.3l-0.4,1l1.3,0.7c-0.7,0.2-1.5-1-1.5-0.3l1,0.7
								c-0.6,0.5-2.4-0.3-3.5-0.2c-2.2,2.1-1.8,6.6-5.2,7.6l-0.8-0.4c-1.1-0.8,1.1,1.8,0,1.2l0.3,0.6c-0.2-0.1-0.6-0.1-0.7-0.4
								c-0.2,0.2-0.1,0.4,0.1,0.8l-0.9-0.2c-1.2,0.6-0.6,2.4-1.6,3.2c-2.3,0.2-2.8,3.5-3,5.4c0.2,3-5.7,2.2-5.2,5.5
								c-0.2,0,0,0.4,0.2,0.5l-1.4,1.7c0,0-0.4,0.5-0.8,1.3c-0.4,0.8-0.8,1.9-0.7,2.9c0.1,2.1,2,4,8.7,3.7l0.2,0.2
								c1.2-0.6,1.8-1.1,1-2.6c1.5,0.9,0.7-0.7,1.3-0.6l0.1,0.1c-0.7-1.4,1.8-0.6,1.2-1.8c0.1,0.1,0.5,0.4,0.4,0.5
								c0.1-0.5,0.2-1.3,1.1-0.8c0.5-1.1,1.8-2.2,1-3.8l0.2,0.2c-0.6-1,0.2-0.6,0-1.3c0.1,0.1,0.2,0.1,0.2,0.1
								c-0.6-1,0.7-1.2,0.5-1.8l0.6,0.4l0.4-0.9l-0.3,0.2c-1.4-1.2,1.4,0.1,0.8-1.2c0.6-0.4-2.4-3.4-1.2-3.4c-0.5-0.8,1,1.1,0.7,0.3
								c0.8,0.6,0.4,0.6,1.1,0.9c-0.1-0.7,1.3,0,1.1-0.9l0.6,0.4c-0.7-1.5,1.7-0.5,0.9-1.8c0-1,2.1,0.9,1.4-0.6l1,0.4
								c0.3-0.2-0.9-1-0.2-1c0.5,0.4,0.7-0.1,1.1,0.5c1.3-0.1-0.1-2.3,2-2.2c-0.9-1,0.1-1-0.5-1.7c0.5,0.3,0.8-0.9,1.3,0.4
								c0,0.1,0,0.2-0.2,0l0.6,0.5c1.5,0.3,0.1-1.4,0.7-1.8c-0.3,0-0.4,0.3-0.7-0.2l0.5-0.4l0.4,0.5l0.8-0.5l-0.7-0.4
								c0.6-0.1,1.8,0.6,1.2-0.5c-0.4-0.6-1.1-0.3-1-0.8c0.8-0.2,2-0.4,2.6-0.9c-0.7-0.5-0.6-0.6-0.6-0.9l0.6,0.4
								c-0.4-1.3,1.5,0.8,1.3-0.4l0.4,0.4l-1.2-1.1c-0.8-1.5,1.5,0.6,0.3-1.3c-0.1,0.3-1.4-0.9-0.9-1l0.5,0.5c0-0.3-0.2-0.5,0-0.5
								c0.2,0.3,0.8,0.7,0.9,0.4l0.6,0.7l-0.7-1.3c0.9,0.1,0.6-1.1,1.5-0.6c0,0,1-0.5,0.2-1.4c0.5,0.6,1,0.3,1.6,0.9
								c-0.5-0.7-0.6-1.7,0.3-1.4l0,0.1c1.4-0.4,0.2-2.3,1.7-2.5c-0.7-0.5,0-0.6-1-1.2c-0.3-1.5,3-0.2,0.4-2.6c0.1-0.5,1,0,1.3-0.1
								l0.1,0.2c0.3-0.9,0.4-1.1,0.9-1.6c-0.1-0.5-1.4-1.4-0.7-1.7c0.4,0.5,0.5,0.3,0.6,0.1c0,0.2,0.2,0.4,0.7,0.4
								c-0.1-0.1-0.2-0.3-0.3-0.4c0,0,0.1,0,0.1,0.1c0-0.4-0.2-0.5-0.4-0.4c-0.1-0.1-0.2-0.1-0.4-0.2c0.9,0.2,0.6-0.9,1.5-0.3
								c0.4-1.1-0.1-2.4,0.1-3.4c0.5,0.2,0.8,0.7,0.9,1.1l0.2-0.7c0.7,0.5,0.2,0.6,0.2,0.9c1.6,0.1-0.2-2.1,1.3-2.2l-0.4-0.5l0.1,0
								c-0.3-0.2-0.6-0.6-0.6-0.8c0.7,0.3,1.4,0.9,1.6,0.5c0.8,0.1,0.3-1.1,0.2-1.7c-0.2,0.2-0.5-0.1-0.7-0.4
								c0.1-0.2,0.8,0.1,0.6-0.3l0.8,0.5c-0.8-0.4-0.5-1-0.8-1.3c0.7,0.3,0.3,0.6,0.8,1c0.4-0.8,0.2-0.4,0.6-1.3
								c-0.4-0.8-0.8-0.4-1.4-1.1c0.1-0.5-0.3-1.2,0.5-1.3l-0.8-0.3c-0.1-1,0.2-1.4,1.2-1.4c-1.5-4.4-3.4-5.8-4.9-6.2
								c-1.5-0.4-2.7,0.3-2.7,0.3C330.4,58.8,331.9,61.1,331,63.8z"/>
						</g>
					</g>
				</g>
			</g>
		</g>
	</g>
	<g>
		<g>
			<g>
				<g>
					<g>
						<path class="st0" d="M366.9,99.3c0,0.3-0.1,0.7-0.1,1C367,100.1,367,99.7,366.9,99.3z"/>
						<path class="st0" d="M436.6,95.3c0-0.1,0.1-0.1,0.1-0.2C436.6,95.2,436.6,95.2,436.6,95.3z"/>
						<path class="st0" d="M395.3,83C395.3,83,395.3,83,395.3,83c0,0.2-0.1,0.4-0.1,0.5L395.3,83z"/>
						<path class="st0" d="M355.1,94.1c-0.2,0.8-0.2,1.5-0.4,2.2c-0.1,0.4-0.1,0.7-0.2,1.1c0,0.3,0,0.7-0.1,1c0,0.7-0.1,1.3-0.1,2
							c0,0.6,0,1.2,0.1,1.8c0.2,2.3,0.5,4.3,1.1,6c0.6,1.8,1.4,3.2,2.4,4.4c1,1.2,2.4,2.2,3.9,2.8c1.5,0.6,3,0.8,4.6,0.8
							c1.5-0.1,3.1-0.4,4.9-1.2c1.8-0.8,3.8-2.2,5.8-4.1c1-1,2.1-2.1,3.1-3.3c0.5-0.6,1.1-1.2,1.6-1.9c0.3-0.3,0.5-0.7,0.8-1
							c0.2-0.3,0.5-0.6,0.7-1c0.3-0.4,0.7-0.9,1-1.3l0.9-1.2c0.6-0.8,1.1-1.6,1.6-2.4c1.1-1.6,2.1-3.2,3-4.9c1-1.7,1.9-3.4,2.7-5.1
							c0.9-1.8,1.7-3.5,2.5-5.7c0-0.4,0.1-0.9,0.2-1.5L400,52l-16.9,22.4c-1.1,1.4-1.7,2.6-2.4,3.8c-0.6,1.1-1.2,2.3-1.7,3.4
							c-1,2.2-1.9,4.4-2,6.4c-0.4,0.4-0.8,0.9-1.2,1.3c-0.1,1.5-0.3,3.2-1,4.5l-0.2-0.1c0,2.2-0.8,4.5-0.7,5.6l-0.2-0.1l-0.2,1.3
							l-0.1,0.7l-0.1,1.1l-0.2-0.8c-0.2,3.1-0.2,6.2,0.1,9c0.3,2.8,0.9,5.3,1.9,7.3l0.5-1c0.3,0.7,0.5,1.3,0.9,1.8
							c0.2,0.3,0.3,0.5,0.5,0.8c0.2,0.2,0.4,0.5,0.6,0.7c0.4,0.4,0.8,0.8,1.2,1.2c0.5,0.3,0.9,0.6,1.4,0.8c0.2,0.1,0.5,0.2,0.7,0.3
							c0.2,0.1,0.5,0.1,0.7,0.2c0.5,0.1,1,0.2,1.4,0.2c0.9,0.2,1.9,0,2.7-0.1c2.3-0.4,4.4-1.3,7.4-3l0,0.3c2.2-2.5,3.9-4.8,5.6-6.9
							c0.4-0.5,0.8-1,1.2-1.4c0.3-0.3,0.5-0.6,0.8-0.9c0.5-0.6,1.1-1.2,1.6-1.8c0.5-0.6,1.1-1.2,1.6-1.8l0.2-0.2
							c0.1-0.1,0.2-0.2,0.1-0.2c0,0,0.1-0.1,0.1-0.1c0.1-0.1,0.1-0.1,0.2-0.2c0.2-0.3,0.3-0.7,0.4-1.9c0,0.6,0.2,0.5,0.3,0.8
							c0.2-0.5,0.4-1.1,0.6-1.9c0.2-0.9,0.4-2.1,0.5-4c0.6-1.1,0.4,0.4,0.3,1.8c0.2-1.7,0.8-3.4,1.4-4.4l-0.4,1.2c0.5-1,1-2,1.7-3
							c0.3-1.4,0.6-2.8,0.8-4.1c0.4-0.1,0.1,1.2-0.2,2.3c-0.3,1.1-0.5,1.9,0.2,0.7l1.3-4.2c0.7-0.6,0.9,0.6,0.7,2.4
							c-0.1,0.9-0.3,2-0.5,3.1c-0.3,1.1-0.4,2.1-0.9,3.4c0,0.1-0.1,0.2-0.1,0.3c0,1.2-0.1,1.9,0,2.5c0,0.6,0.1,1.2,0,1.9
							c-0.1,0.7-0.2,1.7-0.5,2.8c-0.1,0.6-0.3,1.2-0.5,1.8c-0.4,1.1-0.7,2.2-1.1,3.3l9.6,2.6c0.9-3.7,2.2-7.3,4-10.6l1.1-0.3
							c0.7,0.1,0.6-1,0.5-2.2c-0.1-1.2-0.1-2.4,0.6-2.5l0.2-1.9c0.4-0.4,1.1-1.2,1-0.3c0.8-1.6,0.4-1.2,0.3-1.9c0.3,0,0.6,0,0.9,0.1
							c0.6-0.4,0.7-1.1,1.2-2.3c0.4-1.1,1.3-2.6,2.2-3.1c0.1,0,0.1,0,0.2,0c0.1,0.2,0.1,0.3,0.2,0.4c0.1,0.2,0.1,0.6,0.1,0.8
							c0.1,0.5,0.1,1,0.1,1.4c0,0.8,0,1.3,0,1.9c0.1,0.6,0.1,1.3,0.2,1.9c0,0.2,0,0.4,0,0.6l0,0.3c0,0.1,0,0.1,0,0.2l-0.1,0.5
							c-0.1,1.4-0.3,2.7-0.3,4.2l-0.4,10.4l7.9-5.1c1.3-0.9,2.6-1.7,3.4-2.6c2.7-2.8,4.6-5.5,6.6-8.3c1.9-2.7,3.8-5.4,5.7-8.1
							c1.9-2.6,3.7-5.2,5.5-7.6c1.7-2.4,3.5-4.5,4.8-6l-10.7-4.3c0.1,0.5,0.1,1.1,0.2,1.6c0.1,0.6,0.1,1.1,0.2,1.7
							c-0.2,0.3,0.1,1.3,0.3,1.4c-0.4,3.5-1.5,7.2-2.6,10.9c0,0-0.3,0.9-0.7,2.3c-0.5,1.5-1.1,3.5-1.8,5.9c-0.7,2.4-1.4,5.2-2,8.1
							c-0.1,0.7-0.2,1.5-0.3,2.2c-0.1,0.7-0.2,1.4-0.2,2.1c-0.1,1.5-0.2,2.9-0.1,4.5c0.1,0.8,0.2,1.6,0.4,2.5c0.3,0.9,0.6,2,1.7,3.2
							c0.5,0.6,1.3,1.2,2.1,1.5c0.4,0.2,0.8,0.3,1.2,0.3c0.4,0.1,0.7,0.1,1,0c1.2-0.1,1.9-0.5,2.4-0.8c1-0.6,1.3-1.2,1.4-1.6
							c0.1-0.4-0.1-0.7-0.4-0.9c-0.4-0.2-1-0.3-1.9-0.4c-0.4-0.1-1-0.1-1.4-0.4c-0.4-0.3-0.4-0.7-0.4-1.2c0.1-1,0.7-2.5,1.6-4.3
							c0.5-0.9,0.9-1.9,1.5-3c0.6-1.1,1.1-2.2,1.8-3.4l0.2,0.3c2.4-5.9,4.1-10,4-15c2-0.2,1.7-5.6,2.6-7.1l0.1,0.2
							c-0.1-0.9,0-1.9,0.1-2.8c0.1-0.9,0.3-1.9,0.5-2.8c0.2-0.9,0.4-1.9,0.5-2.9c0.1-1,0.1-2,0.1-3l-0.6-12.4l-8.6,8.7
							c-0.7,0.7-1.3,1.5-1.8,2.3c0-0.2-0.3-0.6,0.5-1.5c-2.5,2.8-4.4,6.6-5.4,6.3c-2,3.3-4,7-5.8,10.3c-1.7,3.4-3.2,6.3-3.6,8.5
							l-0.1-0.4c-0.2,1.3-0.6,1.9-1.1,2.5c-0.2,0.3-0.5,0.5-0.8,0.9c-0.3,0.3-0.5,0.8-0.8,1.3c-0.2,0-0.3,0.1-0.4,0
							c-0.1,0.3-0.3,0.6-0.4,0.9c-0.2,0.3-0.4,0.5-0.7,0.8c-0.5,0.6-1.1,0.8-1.7,1.2l5.8,4.1c0.1-0.7,0.3-1.6,0.4-2.3
							c0.1-0.4,0.1-0.7,0.2-1.1c0-0.2,0-0.3,0-0.5c0-0.2,0-0.4,0-0.6l0.7-0.1c0.5-2.8,1-5.6,1.3-8.2c-0.2,1-0.4,2.1-0.6,3.1
							c-0.9-0.3-0.3-1.7,0.3-4c0.7-2.2,1.3-5.3,0.6-7.2c0-2.4-1.2-3.3-2.2-4.1c-1-0.8-1.8-1.9-2.7-4c-1.5-0.6,1.7-0.1-0.5-1.7
							c0.3-1.1,1.2,0.4,1-0.9c-0.3-0.2-0.5-0.4-0.8-0.7l-0.2-0.2c-0.1,0-0.1,0-0.2,0c-0.1,0-0.2,0-0.4,0c-0.5-0.1-0.9-0.2-1.3-0.4
							c-1.1,0.5-2.3,1-3.9,2.6l0-1c-2.1,2.4-3.7,3.6-5.4,5c-0.8,0.6-1.6,1.4-2.3,2.3c-0.4,0.4-0.7,0.9-1,1.4
							c-0.3,0.5-0.6,1.1-0.8,1.7c-0.8,1.5-1.4,2.3-2,2.9c-0.5,0.6-1,0.9-1.4,1.2c-0.5,0.3-0.9,0.8-1.4,1.5c-0.3,0.4-0.5,0.9-0.8,1.5
							c-0.1,0.3-0.2,0.7-0.4,1.1c-0.1,0.2-0.1,0.4-0.2,0.6c0,0.1-0.1,0.3-0.1,0.5c-0.6,0.4-1.2,0.9-1.8,1.3c-1,1.9,0.5,1.9-0.8,3.8
							c-0.6-0.4-1.6,2.5-1.7,1c-0.6,1-1.1,2.1-1.5,3.2c-0.4,1.1-0.6,2.3-0.9,3.5c-0.5,2.5-1,5-2,7.9l12,3.2c0.2-0.3,0.3-0.6,0.5-1
							l0.3-0.5l0.1-0.1l0.1-0.2l0.3-0.5c-0.1-0.3-0.1-0.7,0-1c0-0.4,0.1-0.8,0.2-1.3c0.2-0.9,0.5-1.8,0.8-2.7
							c0.6-1.8,1.2-3.6,0.9-4.2c0.4-0.2,1.4-2.8,2.1-4.7c0.4-0.9,0.7-1.7,0.9-1.9c0.2-0.2,0.3,0,0.2,1.3c0,0.4-0.4,1.4-0.7,1.5
							c0.2,0.1,0.5,0.2,0.7,0.3c2.1-3.6,2.8-6.6,3-8.8c0.2-2.3,0-3.9,0.6-6.3c-0.1,0.4-0.3,0.8-0.4,1.2c-0.1,0.4-0.2,0.8-0.3,1.1
							c-0.2,0.6-0.4,0.9-0.6,0.6c0.4-1.5,0.6-2.9,0.8-4.2l0.7-0.1c0.4-2.2,0.6-4.1,0.7-5.9l-0.9,1.8c0.5-3,1.7-5.5,0.1-6.2
							c-0.4-0.1-0.5,0.7-0.7,1.4c-0.1,0.6-0.3,1.1-0.5,0.1c0.1-2.2,0-5-0.8-8.6l-0.6-0.1c-0.1,0-0.2,0-0.3,0l-0.4,0
							c-0.5,0.1-1,0.1-1.5,0.2c-0.4,0.1-0.9,0.1-1.3,0.2c-0.4,0.1-0.8,0.1-1.1,0.2c0,0.5-0.3,0.8-0.7,1c-0.4,0.3-0.9,0.5-1.4,0.8
							l0.2-1c-1.9,1.3-2,0.9-2.1,0.3c0-0.3-0.1-0.6-0.3-0.7c-0.2,0-0.7,0.1-1.5,0.8l0.5-1c-0.5,1-1,2.1-1.5,3.2
							c-1.7,2.3-1.9,2-2.1,1.7c-0.3-0.3-0.7-0.6-2.6,3.2c1.3-1.6,0.1,2.7-1.3,3.8l0.6-2c-0.4,0.6-0.8,1.3-1.1,1.7
							c-0.3,0.5-0.5,0.8-0.8,1.1c0.3-0.8,0.4-1.4,0.3-1.6c-0.1-0.2-0.6,0.1-1.3,1.2c0.4-1,0.7-2.1,1.1-3.1c-1.1,2.1-2.1,4.3-3.1,6.7
							c-1.2,1-2.8,3.8-4.1,6.1c-1.3,2.3-2.5,4.1-3.3,4.4c0,0-0.3,0.5-0.9,1.3c-0.5,0.8-1.3,1.9-2,3.1c-0.4,0.6-0.8,1.2-1.1,1.8
							c-0.2,0.4-0.3,0.5-0.4,0.6c-0.1,0.2-0.2,0.3-0.2,0.5c-0.3,0.6-0.4,1.2-0.4,1.6c0-1.3-1.9,1-2.1-0.2c0,0.4-0.2,0.9-0.4,1.5
							c-0.1,0.3-0.2,0.6-0.4,0.9c0,0.1-0.1,0.2-0.1,0.2l0,0.1c0,0,0,0.1,0,0.1c-0.1,0.3-0.3,0.6-0.6,0.2l0-0.1
							c-0.4-0.1-0.4,0.2-0.8,0.7c-0.2,0.3-0.6,0.6-0.9,0.5c-0.3-0.1-0.4-0.5-0.1-1.1c-0.9,1-0.5-0.2-1.6,0.9
							c-0.3-0.3-0.3-0.9-0.2-1.4c0.1-0.5,0.4-0.9,0.6-1.3c0,0,0.1-0.2,0.1-0.3c0-0.1,0.1-0.2,0.1-0.3c0.1-0.2,0.1-0.5,0.2-0.7
							c0.1-0.4,0.1-0.9,0.1-1.3c0-0.8-0.3-1.5-1.1-2.2c0.4-2.5,1.5-2.7,2.1-3.9l0,0.6c0.5-2.3,0.9-3.8,1.4-5
							c0.4-1.3,0.9-2.4,1.6-3.8c0.2-0.7,0-1.3-0.1-2c-0.1-0.6,0.1-1.5,0.6-2l-6.2-3.5c0,0.1-0.1,0.2-0.2,0.3c-0.4-0.8-0.5-0.1-0.9,1
							c0.2-0.7,0-0.9-0.9,0.2c0.1,0.3,0.1,0.6,0,0.9c-0.1,0-0.1,0-0.2,0c-0.6,1.8-0.3,1.6,0.2,0.9c0.1,0.1,0.2,0.1,0.5-0.1
							c-1.6,1.4-2.7,5.1-3.8,4.8c-1.4,2.7-2.6,5-3.7,7.2c-0.5,1.1-1.2,2.3-1.5,3c-0.3,0.7-0.7,1.4-1.3,2.2c-0.5-0.3-0.2-1.4,0.1-2.1
							c-0.3,0.5-0.7,1.1-1.1,1.6c-0.2-1,0.5-1.3,0.7-1.8c-0.5,0.1-0.8,0.3-1.1,0.6c-0.3,0.4-0.6,0.9-1,1.5c-0.4,0.6-0.9,1.2-1.5,1.6
							c-0.5,0.4-1.2,0.4-1.5-0.4c-0.3,0.3-0.6,0.6-1,0.8c0-0.1,0-0.2,0-0.3c-0.3,0.6-1.2,0.8-1.5,0.5c0.6-1.4,1.7-2.4,1.4-3.4
							c0.3-0.8,0.2-1.2-0.1-1.7c-0.2-0.5-0.5-1.1-0.6-1.7c-0.3,0.7-0.7,0.7-0.9,0.3c0.1-0.4,0.3-0.7,0.5-1c0.2-0.3,0.4-0.5,0.3-0.8
							l1,0.1c-0.5,0-0.6-0.4-0.6-1c0.1-0.9,0.3-1.9,0.3-2.2c0.9-0.4-0.1,1.9,0.4,2.4c0.7-2.2,1-2.7,1.2-3.3c0.2-0.5,0.4-1.1,1.5-3.2
							c0.6-2.6-1,0-1.2-1.5c0.9-2.1,1.7-4.4,3.8-6.1l-1.2,0.1c2.2-3.8,4.6-5.6,7.4-6.2c2.9-2.6,6.4-3.5,9.2-3.3c0.3,0,0.7,0,1,0.1
							c0.3,0.1,0.6,0.1,0.9,0.2c0.3,0.1,0.6,0.1,0.9,0.1c0.3,0.1,0.5,0.1,0.8,0.2c0.5,0.1,1,0.2,1.4,0.4c0.4,0.1,0.8,0.2,1.1,0.3
							c1.5,0.4,2.1,0.3,2.5,0c0.4-0.3,0.4-0.9,0.2-1.6c-0.2-0.4-0.4-0.9-0.8-1.3c-0.3-0.5-0.7-1-1.2-1.5c-0.5-0.5-1-1-1.7-1.5
							c-0.7-0.5-1.3-0.9-2-1.3c-0.7-0.4-1.5-0.7-2.1-0.9c-0.7-0.3-1.4-0.4-1.9-0.6c-0.6-0.1-1-0.2-1.3-0.3c-0.3,0-0.5-0.1-0.5-0.1
							c-1.4-0.2-2.8-0.2-4.2-0.1c-1.3,0.2-2.6,0.4-3.7,0.8c-1.2,0.3-2.2,0.8-3.2,1.2c-0.9,0.5-1.9,1-2.7,1.6
							c-3.3,2.2-5.5,4.8-7.4,7.5c-1.9,2.7-3.4,5.7-4.8,9c-0.7,1.7-1.3,3.4-2,5.4c-0.2,0.5-0.3,1-0.4,1.5c-0.1,0.2-0.1,0.5-0.2,0.8
							l-0.1,0.2l-0.1,0.3l-0.1,0.6c-0.2,0.8-0.4,1.6-0.6,2.4C355.4,92.4,355.2,93.2,355.1,94.1z"/>
					</g>
				</g>
			</g>
		</g>
	</g>
	<g>
		<g>
			<g>
				<g>
					<g>
						<path class="st0" d="M475.2,100.8l-0.5,0.7C474.9,101.4,475.1,101.3,475.2,100.8z"/>
						<path class="st0" d="M513.7,76.4c0,0.1,0,0.1,0.1,0.2C513.7,76.5,513.7,76.4,513.7,76.4z"/>
						<path class="st0" d="M456.5,125.1C456.5,125.1,456.5,125.1,456.5,125.1c0-0.1,0-0.2,0-0.2L456.5,125.1z"/>
						<path class="st0" d="M465.8,90.2c-1,4.7-2,7.5-3,10.4c-1,2.9-1.8,5.7-2.8,10.4c-0.3,1.1-0.7,2.2-1,3.3c-0.4,1.2-0.7,2.5-1,3.8
							c-0.5,2.4-1.1,4.8-1.6,7.1c0.7,2.5-1.6,5.7-1.4,8.4c-0.3,0.2-0.7,0.5-1,0.7c0.1,0.9,0,2-0.7,2.6l-0.2-0.1
							c0,0.7-0.2,1.3-0.3,1.9c-0.2,0.5-0.4,1-0.4,1.3l-0.2-0.1c-0.2,0.5-0.3,0.9-0.5,1.4l-0.2-0.3c-0.3,2.1-1.3,4-2.5,5.2l0.8,0.4
							c-0.3,0.3-0.6,0.5-0.9,0.8c-0.3,0.2-0.5,0.5-0.6,0.7c-0.4,0.4-0.7,0.8-0.9,1.2l10,3.7c-0.1-0.6-0.3-1.2-0.4-1.8
							c0-0.7,0.1-1.4,0.5-2.3l0.2,0.1c-0.5-1.1-0.6-2.1-0.4-3c0.1-0.5,0.2-0.9,0.4-1.3c0.2-0.4,0.4-0.9,0.6-1.3
							c0.8-1.7,1.8-3.3,1.6-6.1c0,0.7,0.5-0.1,0.7,0c0.6-2.3,1.5-4.7-0.1-5.4c0.7-1.6,1.1-1.1,1.8-1c-0.7-0.3-0.4-1.8,0.1-3.1l0,0.7
							l1.4-3.8l-1.7,0.1c1.3-1.8,1.8,0.3,2.4-1.8l-1.1-0.5c1.5-2.6,3.8-3.5,5.8-6c0.3-0.7,0.7-1.5,0.9-2.2c0.3-0.7,0.5-1.4,0.8-2.1
							c0.5-1.4,1-2.9,1.4-4.3c0.9-2.9,1.7-5.8,2.6-8.6c1.8-5.6,4.1-11,7.8-14.8l1,0.1c0.6,0.3,0.6-0.6,0.5-1.5c0-0.9,0-1.8,0.6-1.6
							l0.2-1.3c0.4-0.1,1-0.5,0.9,0.1c0.7-0.8,0.5-1,0.7-1.9c0.5-0.1,0.9-0.3,1.4-0.4c0.8-0.7,1.5-1.5,2.1-2.3
							c0.7-0.8,1.2-1.6,1.8-2.4c0.3-0.4,0.6-0.8,0.9-1.2l0.5-0.6c0.2-0.2,0.3-0.4,0.5-0.5c0.6-0.7,1.2-1.2,1.9-1.5
							c1-0.1,2-0.2,2.5-0.1c0.2,0,0.5,0,0.7,0.1c0.3,0.1,0.5,0.1,0.8,0.3c0.7,0.4,1.6,1.3,2.4,2.5c0.7,1.2,1.3,2.6,1.7,3.8
							c0.3,0.9,0.5,1.8,0.5,2.8c0,0.5,0,1-0.1,1.4c-0.1,0.4-0.1,0.9-0.3,1.3c-0.6,1.8-1.7,3.5-3,5.2c-2.7,3.4-6,6.3-8.1,10.1
							c-0.3,0.1-0.5,0.9-0.4,1c-1.9,1.8-3.9,3.5-6,5.1c0,0-0.5,0.4-1.2,1c-0.8,0.6-1.9,1.4-3.1,2.3c-2.5,1.8-5.6,3.9-8,5.4
							c-1.2,0.8-2.2,1.5-2.8,2.1c-0.6,0.6-0.9,1.3-0.5,2c0.4,0.7,1.4,1.4,3.6,1.8c2.2,0.4,5.4,0.4,9.8-0.5l-0.1,0.4
							c2.4-1,4.2-1.9,5.7-3c1.5-1.1,2.6-2.4,3.5-4c1.6,1,3.2-2.5,4.4-2.9l0,0.2c0.7-1.5,1.9-2.4,3.2-3.3c1.3-0.9,2.6-1.9,3.1-3.4
							c0,0.2,0.4,0.5-0.1,1.1c1.3-1.8,2.7-4.4,3.7-4c1.5-2.2,3.2-5,4.5-7.9c1.2-2.9,1.8-6,1.2-8.1l0.2,0.3c-0.2-0.6-0.3-1.1-0.3-1.5
							c0-0.4,0-0.7,0-1.1c0.1-0.7,0.2-1.4-0.1-2.6c0.1-0.1,0.2-0.3,0.3-0.3c-0.6-1.1-0.8-2.7-1-4.3c-0.3-1.6-0.7-3.1-1.2-3.9
							l0.6-0.4c-0.6-1.5-1.5-2.9-2.5-4.3c0.3,0.5,0.7,1.1,0.9,1.7c-1,0.2-1.1-0.7-1.7-2c-0.5-1.2-1.6-3-3.7-3.5
							c-0.8-0.5-1.8-0.7-2.8-0.7c-1,0.1-2,0.4-2.9,0.8c-1.8,0.8-3,1.9-4.5,2c-0.5,0.7-0.3,0.2-0.3-0.2c0.1-0.4,0.1-0.9-0.8-0.1
							c-0.5-0.9,0.8-1-0.1-1.5c-1,0.7-1.9,0.9-2.9,1.3c-0.5,0.2-1,0.4-1.4,0.7c-0.5,0.3-0.9,0.7-1.3,1.3l-0.6-0.5
							c-0.2,0.4-0.4,0.8-0.7,1.1c-0.2,0.3-0.5,0.6-0.8,0.9c-0.5,0.5-1.2,0.9-1.7,1.3c-1.1,0.8-2.2,1.6-2.4,2.8
							c-1.6,2.9-3.2,0.2-4.1,3.9c-0.5,0.2-1.1,0.3-1.6,0.5c-1,1.1,0.4,1.6-0.9,2.7c-0.5-0.5-1.6,1.5-1.6,0.3
							c-0.7,0.7-1.2,1.4-1.7,2.3c-0.4,0.9-0.8,1.8-1.2,2.8c-0.7,1.9-1.6,3.9-3.4,5.7c0.7,1.5-1,3.4-0.4,4.4c-0.6-0.1-1.9,4.4-2,1.4
							c0-0.3,0.2-0.6,0.4-0.5l-0.6-0.6c-2.4,2-1.2,4.8-2.3,7.2c0.5-0.6,0.8-1.6,1.1-0.8l-1,2.2l-0.4-0.7l-1.6,3.3l0.9-0.2
							c-1,1.5-2.5,1.6-2.1,3.9c0.3,1.1,1.6-1.2,1.2,0.6c-0.3,0.5-0.7,1.1-1.1,1.7c-0.2,0.3-0.4,0.6-0.6,0.9
							c-0.2,0.3-0.4,0.6-0.6,0.9c-0.8,1.2-1.6,2.5-2.3,3.7c0.9,0.1,0.6,0.8,0.4,1.6l-0.7-0.2c-0.3,3.3-2,0.3-2.5,3.5l-0.4-0.5
							l1.1,1.4c0.2,3.2-2.1,0.7-1.5,4.5c0.4-1.2,1.8,0.1,0.9,1.4l-0.5-0.7c-0.2,0.9,0,1.2-0.4,1.7c-0.2-0.6-0.9-0.7-1.3,0.6
							l-0.5-1.2l0.3,2.8c-1.5,1.5-1.6,4.7-2.8,5.1c0,0-0.5,0.9-0.8,2.1c-0.3,1.2-0.6,2.5-0.1,3.1c-0.5-1-1.3,1.3-2,0.4
							c0.1,0.3,0.2,0.8,0.2,1.3c0.1,0.5,0.1,1.2,0,1.8c-0.1,1.2-0.3,2.4-0.8,3.1l-0.1-0.3c-0.9,2.9-0.3,5.7,0.2,8.3l3.2,14.7
							l8.4-10.4c0.7-0.9,1.5-1.7,2.2-2.6c0.3-0.4,0.7-0.8,1.1-1.2c0.4-0.4,0.8-0.8,1.2-1.2c-0.8-0.3,1-2.2-0.4-2.3
							c0.4-1.2,0.9-2.1,1.5-3c0.5-0.9,1.2-1.6,1.7-2.3c0.9-1.4,1.5-2.7,0.1-4.1c0.6-1.9,1.6-1.9,2.1-2.8l0,0.5
							c1-3.6,1.2-4.6,2.1-7.1c0-1.4-1.5-2-0.4-4.2c0.4,0.9,0.6,0,0.8-0.9c-0.1,0.6,0.1,0.8,0.9-0.2c-0.1-0.2-0.2-0.5-0.2-0.7
							c0.1,0,0.1,0,0.2,0c0.2-1.5-0.1-1.3-0.4-0.6c-0.1-0.1-0.2,0-0.5,0.1c1.2-1.2,1.1-4.1,2.2-3.9c0.5-2.1,0.6-3.8,0.8-5.8
							c0.2-1.9,0.2-3.6,0.5-5.5c0.7-0.3,1,0.7,0.9,1.8c0.2-0.9,0.3-1.8,0.4-2.6c0.8,0.2,0.1,1.6,0,2.4c2.1-2.8,0.3-6.6,2.2-10
							l-0.5-0.9l0.1-0.2c-0.3-0.1-0.6-1-0.7-1.5c0.8-0.4,1.6,0.3,1.9-1.5c0.9-1.3,0.4-4.1,0.3-6c-0.3,1-0.6,0.6-0.8,0.1
							c0.1-0.9,0.9-1.3,0.7-2l1,0.1c-1,0.2-0.6-2.5-1-2.9c0.8-0.4,0.4,1.5,0.9,1.8c0.4-3.6,0.2-1.8,0.7-5.4c-0.5-2-1,0.2-1.7-0.8
							c0.1-1.7-0.4-3.4,0.5-5.2l-0.9,0.5c-0.2-3.2,0.1-5.1,1.3-7.1c-0.1-0.4-0.1-0.7-0.2-1l-2.7-0.5c0.4,5.9,2,8.9,3.2,10
							c0.3,0.3,0.6,0.5,0.9,0.6c0.3,0.1,0.5,0.2,0.8,0.2c0.5,0,0.9-0.3,1.2-0.8c0.7-0.7,1.2-1.8,1.6-2.8c0.4-1,0.7-1.9,0.7-1.9
							c0.5-1.1,0.8-2.1,1.2-3.1L467,69.1C465.4,76,466.7,81.1,465.8,90.2z"/>
					</g>
				</g>
			</g>
		</g>
	</g>
	<g>
		<g>
			<g>
				<g>
					<g>
						<path class="st0" d="M533.7,41.9l-0.6,0.6C533.3,42.5,533.5,42.4,533.7,41.9z"/>
						<path class="st0" d="M554.4,82.7c0,0.1,0,0.1,0,0.2C554.4,82.7,554.4,82.7,554.4,82.7z"/>
						<path class="st0" d="M514.6,66.2C514.6,66.2,514.6,66.2,514.6,66.2c0-0.1,0-0.2,0-0.2L514.6,66.2z"/>
						<path class="st0" d="M526.5,29.6c-2.2,4.7-3.7,7.6-5.1,10.6c-1.4,3-2.6,6.1-3.7,11.3c-1.4,4.8-2.3,10-3.1,14.8
							c0.8,2.5-1.3,6.2-0.8,9l-0.9,0.9c0.2,1,0.2,2.1-0.4,2.9l-0.2-0.1c0.3,1.4-0.4,2.8-0.2,3.5l-0.2-0.1l-0.3,1.7l-0.2-0.4
							c0,2.6-0.4,5.2-1,7.6l0.9-0.1c-0.8,2.5-0.7,4.3-0.5,6.1c0.2,1.8,0.4,3.5,0.2,6.1l-0.2,0c0.5,0.8,0.8,1.5,1.1,2.2
							c0.3,0.7,0.6,1.4,0.8,2.1c0.3,0.7,0.5,1.4,0.7,2.1c0.2,0.7,0.5,1.4,0.8,2.1c0.2,0.3,0.3,0.7,0.5,1.1c0.2,0.3,0.4,0.7,0.6,1
							c0.4,0.7,0.9,1.4,1.5,1.9c0.6,0.6,1.3,1.2,2.1,1.6c0.8,0.4,1.7,0.8,2.7,1c-0.5-0.1-0.5,0-0.3,0.2c0.1,0.2,0.4,0.4,0.3,0.5
							c0.9,0.3,1.8,0.7,2.7,0.9c0.9,0.2,1.7,0.3,2.5,0.4c1.5-0.1,2.5-0.4,2.5-1.3c2.4,0.1,1.9,0.6,2.3,1.2c0-0.4,0.5-0.7,1.2-1
							c0.4-0.1,0.8-0.3,1.2-0.4c0.4-0.1,0.8-0.3,1.3-0.4l-0.7,0.5c1.6-0.4,3.2-1,4.6-1.6c-0.5-0.3-0.9-0.7-1.4-1
							c2.4-0.5,1.2,1.5,3.3,0.2l-0.5-1.1c3-1.2,5.6-0.6,8.8-1.6c2.8-1.7,5.3-3.8,7.6-5.9c2.4-2.1,4.7-4.4,6.9-6.8
							c4.5-4.7,8.7-9.6,12.7-14.8l1.1-0.1c0.3,0.1,0.5-0.1,0.6-0.5c0.1-0.4,0.1-0.9,0-1.5c0-1.1-0.1-2.2,0.5-2.2l0-1.7
							c0.2-0.2,0.4-0.4,0.6-0.6c0.2-0.2,0.3-0.2,0.3,0.3c0.5-1.8,0.4-1.9,0.3-3.3c0.5-0.6,0.8-1.3,1.2-2c0.1-0.5,0.2-1,0.3-1.5
							c0.1-0.5,0.2-1,0.2-1.5c0-1,0-1.9-0.1-2.8c-0.2-0.9-0.3-1.7-0.6-2.5l-0.5-1.1c-0.1-0.4-0.3-0.8-0.5-1.1l-0.6-1
							c-0.2-0.3-0.5-0.6-0.8-0.9c-0.2-0.3-0.6-0.6-0.9-0.9c-0.3-0.3-0.6-0.6-1-0.8c-1.4-1-3.1-1.6-4.8-1.9c-2-0.7-4.8-0.7-7.9,0.5
							c-0.8,0.3-1.6,0.7-2.4,1.1c-0.8,0.5-1.6,1-2.4,1.4c-0.7,0.5-1.4,1-2.1,1.6l-0.5,0.4l-0.3,0.2l-0.2,0.2l-0.7,0.7
							c-3.7,3.5-6.4,7.7-8.1,10.9c-1.1,2.3-2.4,4.6-3.8,6.9c-1.4,2.3-2.8,4.8-4,7.5c-0.6,1.4-1,2.9-1.4,4.4
							c-0.1,0.8-0.3,1.6-0.4,2.4c-0.1,0.8-0.1,1.6-0.1,2.5c0,0.9,0.1,1.6,0.2,2.3c0.1,0.7,0.3,1.5,0.4,2.3c0.4,1.5,1,3.1,2,4.5
							c0,0.2,0.2,0.6,0.5,0.8c0.3,0.3,0.5,0.4,0.6,0.4c1,1.8,2.4,3.7,4.2,5.1c1.8,1.4,3.9,2.4,5.9,2.9c0,0,0.2,0.1,0.6,0.2
							c0.4,0.1,1,0.2,1.7,0.3c1.5,0.2,3.4,0.2,5.5,0c4.1-0.5,8.5-2,11.5-3.5c3-1.6,4.8-3.2,3.8-4.4c-0.5-0.6-1.7-1.2-3.8-1.6
							c-2.1-0.4-5.2-0.7-9-1.3l0.1-0.3c-2.1,0.1-3.7,0-5,0.1c-1.3,0.1-2.3,0.3-3.5,0.7c0.1-0.5,0-0.7-0.2-0.9
							c-0.1-0.2-0.4-0.3-0.6-0.3c-0.5-0.1-1-0.3-1-0.7l0.1-0.1c-1,0-1.3-1-1.3-1.9c-0.1-1,0-2-0.8-3c0.2,0.1,0.6,0,0.8,0.5
							c-0.3-0.7-0.5-1.7-0.6-2.4c0-0.7,0.1-1.2,0.6-1.2c-0.1-1.7,0.3-3.9,0.9-6c0.3-1.1,0.6-2.1,0.8-3.1c0.3-1,0.4-1.9,0.3-2.7
							l0.2,0.3c-0.2-1.9,0.8-1.9,1.3-3.7c0.2,0,0.3-0.1,0.3,0c0-2.1,2.9-4.3,3.5-5.6l0.6,0.4c0.3-0.5,0.7-0.9,1.1-1.3
							c0.4-0.4,0.8-0.9,1.2-1.3c-0.3,0.3-0.7,0.5-1,0.8c-1.1-1.7,2.8-1.1,3.6-3.4c0.3-0.2,0.5-0.6,0.7-1.1c0.1-0.5,0.3-1.2,0.6-1.9
							c0.5-1.4,1.7-2.9,2.8-2.7c0.6-0.7,0.3-0.2,0.1,0.3c-0.2,0.5-0.4,1,0.4,0.4c-0.2,1.2-0.7,0.9-0.6,1.8c0.3-0.2,0.6-0.3,0.8-0.2
							c0.2,0,0.4,0.2,0.6,0.3c0.3,0.3,0.6,0.6,1.4,0.6l-0.6,0.9c0.6-0.2,0.9,0,1,0.4c0.1,0.2,0.1,0.4,0.1,0.6c0,0.2,0,0.4-0.1,0.6
							c-0.1,0.4-0.2,0.8-0.2,1c0,0.3,0.1,0.5,0.4,0.6c0.3,0.7-0.4,1.1-0.9,1.3c-0.3,0.1-0.5,0.2-0.6,0.3c-0.1,0.2-0.1,0.4,0.2,0.9
							c-0.2,0.1-0.4,0.1-0.6,0.2L568,77c-0.3,0.5-0.1,0.8,0.1,1.1c0.2,0.3,0.3,0.6-0.2,1.1c-0.6-0.3-1.2,1.2-1.4,0.3
							c-0.5,0.5-1,1.1-1.2,1.8c-0.3,0.7-0.6,1.4-1,2.2c-0.7,1.5-1.7,3.1-3.7,4c0.4,1.5-1.7,2.5-1.5,3.7c-0.5-0.3-3.2,2.9-2.3,0.4
							c0.1-0.2,0.4-0.5,0.5-0.3l-0.3-0.7c-2.7,0.6-2.7,3.6-4.7,5c0.7-0.3,1.4-1,1.3-0.1l-1.8,1.4l0-0.8l-2.9,1.9l0.9,0.3
							c-1.6,0.8-2.9,0.1-3.7,2.1c-0.3,1,1.9-0.1,0.6,1.1c-2.1,1-5.2,2.2-7.5,3.3c0.7,0.6,0,1-0.5,1.5l-0.4-0.6
							c-0.9,1.1-1.3,0.8-1.7,0.5c-0.2-0.2-0.4-0.3-0.7-0.3c-0.3,0-0.6,0.1-1,0.5l0-0.6c0,0.6,0,1.2,0,1.7c-0.7,1-1.2,0.8-1.5,0.5
							c-0.2-0.1-0.4-0.2-0.6-0.2c-0.1,0-0.2,0.1-0.4,0.3c-0.1,0.1-0.3,0.3-0.5,0.6c0.8-0.2,0.7,1.6-0.5,1.4l0.2-0.8
							c-0.5,0.2-0.7,0.5-1.1,0.3c0.3-0.4,0.1-1-0.5-1c0.2-0.3,0.3-0.6,0.5-0.9c-0.2,0.3-0.4,0.4-0.6,0.6c-0.2,0.2-0.5,0.4-0.7,0.6
							c-0.2-0.3-0.4-0.4-0.7-0.5c-0.3-0.1-0.5-0.3-0.8-0.4c-0.3-0.1-0.5-0.3-0.6-0.4c-0.2-0.2-0.2-0.4-0.2-0.6c0,0-0.3-0.4-0.7-0.8
							c-0.2-0.2-0.4-0.4-0.6-0.5c-0.3-0.1-0.5-0.2-0.8-0.2c0.4,0,0.5-0.3,0.6-0.6c0.1-0.3,0.3-0.6,0.7-0.7c-0.5,0-1-0.4-1.4-0.8
							c-0.3-0.6-0.5-1.2-0.1-1.8l0.1,0.1c0.1-1.5-0.2-2.9-0.5-4.4c-0.2-1.5-0.4-3.1,0.4-4.8c-0.9,0.1-0.2-1.8-1.3-1.5
							c-0.5-4,3.7-6.5,0.5-8.8c0.2-1.9,1.3-2,1.7-3L525,80c0.4-3.5,0.6-4.5,1.2-7.1c-0.1-1.3-1.6-1.9-0.7-4.1
							c0.5,0.9,0.6-0.1,0.8-0.9c0,0.6,0.2,0.8,0.8-0.2c-0.2-0.2-0.2-0.5-0.3-0.7c0.1,0,0.1,0,0.2,0c0.1-1.5-0.2-1.3-0.4-0.6
							c-0.1-0.1-0.2,0-0.4,0.1c1.2-1.3,0.9-4.1,2-4c0.8-4.3,0.4-7.6,1-11.2c0.7-0.2,0.9,0.7,0.9,1.8c0.2-0.8,0.3-1.7,0.5-2.5
							c0.8,0.3,0,1.5,0,2.3c2.1-2.5,0.4-6.4,2.7-9.4l-0.4-0.9l0.2-0.2c-0.3-0.1-0.5-1-0.4-1.5c0.8-0.2,1.5,0.6,2.1-1.1
							c0.6-0.5,0.8-1.5,1-2.5c0.2-1,0.2-2.2,0.4-3.1c-0.5,0.9-0.7,0.4-0.8-0.1c0.3-0.8,1.2-1,1.2-1.7l0.9,0.3
							c-0.5,0-0.5-0.6-0.4-1.3c0.1-0.7,0.3-1.4,0.2-1.6c0.9-0.1,0,1.5,0.4,1.9c1.4-3.1,0.7-1.6,2.1-4.6c0.2-2-1-0.1-1.3-1.3
							c0.3-0.8,0.5-1.6,0.9-2.3c0.3-0.8,0.8-1.5,1.5-2.1l-1,0c1.2-2.9,2.5-4.4,4.6-5.2c2.7-5.2,6-7.6,7.7-9c0.9-0.8,1.1-1.3,1.2-1.8
							c0-0.5-0.3-0.9-0.7-1.2c-0.6-0.3-1.6-0.5-2.7-0.5c-1.1-0.1-2.2,0.1-3.3,0.3c-1,0.2-1.9,0.6-2.6,0.8c-0.7,0.2-1,0.4-1,0.4
							c-0.8,0.4-1.5,0.7-2.2,1.1c-0.7,0.4-1.3,0.8-1.9,1.2c-0.3,0.2-0.6,0.4-0.9,0.6c-0.3,0.2-0.5,0.4-0.7,0.7
							c-0.5,0.4-1,0.9-1.4,1.4c-0.8,0.9-1.6,1.9-2.2,2.8c-0.6,1-1.2,1.9-1.7,2.9C529.9,19.7,528.5,24,526.5,29.6z"/>
					</g>
				</g>
			</g>
		</g>
	</g>
	<g>
		<g>
			<g>
				<g>
					<g>
						<path class="st0" d="M605.9,64.1l-0.3-0.3C605.6,64,605.7,64.1,605.9,64.1z"/>
						<path class="st0" d="M600.1,110.2c0,0,0,0.1,0,0.1C600.2,110.2,600.1,110.2,600.1,110.2z"/>
						<path class="st0" d="M592.2,57.5C592.2,57.5,592.2,57.5,592.2,57.5c0-0.1,0-0.1,0-0.1L592.2,57.5z"/>
						<path class="st0" d="M606.2,52.6c-2.2,0.2-3.5,0.1-4.9,0.1c-1.3,0.1-2.7,0.3-4.3,1.5c-1.8,0.7-3.3,2-4.8,3.2
							c0,1.5-2,1.4-2.2,3c-0.3-0.1-0.5-0.2-0.8-0.3c0,0.5-0.2,1-0.8,0.9l-0.1-0.2c0,0.8-0.7,1-0.7,1.4l-0.1-0.2
							c-0.1,0.2-0.3,0.4-0.4,0.6l-0.1-0.3c-0.3,1.2-1,2-1.8,2.7l0.8,0.4c-1.1,0.6-1.3,1.6-1.5,2.4c-0.2,0.8-0.3,1.6-1.1,2.5
							l-0.2-0.1c0.4,0.8,0.5,1.5,0.4,2.1c-0.1,0.5-0.3,1-0.6,1.4c-0.2,0.5-0.4,1-0.4,1.6c0,0.6,0.2,1.1,0.9,1.7
							c-0.3-0.3-0.4,0.2-0.7,0.2c0.2,0.6,0.4,1.2,0.8,1.5c0.4,0.4,0.9,0.5,1.8,0.3c0.2,0.7-0.3,0.8-1,1.1c0.7-0.2,1.2,0.3,1.5,0.8
							l-0.4-0.1l0.9,1.4l1.2-0.9c-0.1,0.9-1.5,1-0.8,1.5l1.1-0.6c0.1,0.5-0.1,1.2-0.4,1.9c-0.3,0.7-0.6,1.4-0.7,2.1
							c1,2.1,2.8,3.4,4.3,4.6c1.5,1.2,2.7,2.6,2.3,4.2l-0.8,0.5c-1.1,0.6,2.1-0.3,1,0.3l0.7,0c-0.2,0.2-0.4,0.4-0.7,0.4
							c0.1,0.2,0.3,0.2,0.7,0.2c-0.2,0.2-0.5,0.3-0.7,0.5c-0.1,0.2,0,0.4,0,0.6c0.1,0.2,0.2,0.4,0.4,0.6c0.2,0.2,0.4,0.4,0.5,0.6
							c0.1,0.2,0.1,0.4,0,0.6c-0.2,0.1-0.3,0.2-0.5,0.4c-0.1,0.1-0.3,0.2-0.3,0.3c-0.1,0.1-0.1,0.2-0.1,0.4c0,0.1,0,0.2,0,0.4
							c0,0.1,0,0.1,0.1,0.2c0,0.1,0,0.1,0,0.2c0,0.2,0.1,0.3,0.1,0.5c0,0.4,0,0.8,0,1.2c0,0.3-0.1,0.6-0.2,0.8
							c-0.2,0.2-0.3,0.4-0.6,0.4c-0.6,0.2-1.2,0.1-1.9,0c-1.3-0.2-2.6-0.5-3.4,0.9c-0.1-0.2-0.2,0.3-0.2,0.4
							c-0.7,0.1-1.5,0.3-2.2,0.3c0,0-0.2,0-0.5,0.1c-0.3,0.1-0.7,0.1-1.1,0.3c-0.9,0.3-2,0.6-2.9,1.3c-0.9,0.6-1.5,1.6-1.4,3.1
							c0.1,0.7,0.4,1.6,1,2.6c0.7,1,1.6,2.2,3.2,3.4l0,0.3c1.7,0.5,2.9,0.5,3.8-1.2c0.5,1.7,1.4-0.1,1.9,0.4l0,0.2
							c0.4-0.8,0.9-0.6,1.6-0.5c0.6,0.1,1.3,0.2,1.6-0.5c0,0.1,0.1,0.6-0.1,0.7c0.7-0.4,1.5-1.2,2-0.3c0.4-0.3,0.9-0.5,1.4-0.7
							c0.5-0.3,1-0.6,1.5-0.9c0.9-0.7,1.7-1.6,1.7-2.6l0.1,0.3c-0.1-1.4,0.7-0.8,0.9-1.8c0.1,0.1,0.2,0.1,0.3,0.1
							c-0.1-0.7,0.3-1.1,0.7-1.6c0.4-0.4,0.9-0.8,0.9-1.2l0.6,0.3c0.3-0.5,0.5-1.1,0.8-1.6l-0.5,0.5c-0.8-0.6-0.4-0.7,0.2-0.9
							c0.5-0.2,1.2-0.7,0.8-1.5c0.2-0.3,0.1-0.6-0.2-1c-0.2-0.4-0.7-0.8-1.1-1.1c-0.8-0.7-1.5-1.2-1-1.7c-0.9-0.5,1.4,0.5,0.8-0.2
							c1,0,0.6,0.4,1.4,0.3c-0.5-0.8,1-1.3,0.3-2.2l0.8-0.1c-0.7-0.6-0.6-1.1-0.4-1.7c0.2-0.6,0.4-1.1-0.4-1.4
							c-0.5-0.5,0-0.9,0.4-1.3c0.4-0.3,0.6-0.8-0.3-1.1c0.3-0.3,0.5-0.6,0.8-0.9c-0.1-0.6-1.3,0.1-1.1-0.7c0.6-0.3,0.1-1,0.8-0.9
							c0.1-0.9-0.6-1.4-1.2-1.9c-0.6-0.5-1.2-1.1-0.9-2.2c-1.3,0.4-1.1-0.7-2-0.4c0.4-0.4-0.8-1.3,0.6-1.3c0.1,0,0.2,0.1,0,0.2
							l0.7-0.4c0.3-0.8-0.1-1-0.6-1.1c-0.5-0.1-1.1-0.1-1.3-0.5c-0.1,0.3,0.2,0.6-0.4,0.7l-0.4-0.7l0.6-0.2
							c-0.1-0.4-0.2-0.7-0.3-1.1l-0.5,0.6c0-0.7,1-1.6-0.2-1.4c-0.6,0.2-0.6,1-1.1,0.7c0-0.4,0.1-1,0.1-1.5c0-0.5,0.1-1,0-1.3
							c-0.7,0.5-0.8,0.3-1,0.2l0.7-0.4c-1.3-0.1,1.4-1,0.3-1.2l0.5-0.2l-1.5,0.5c-1.6,0.1,1.4-0.9-0.8-0.7c0.2,0.2-1.6,0.7-1.3,0.3
							l0.7-0.2c-0.2-0.1-0.5-0.1-0.4-0.2c0.4,0,1-0.3,0.9-0.4l0.9-0.1c-0.5,0-1,0-1.4,0c0.8-0.5-0.3-0.8,0.7-1c0,0,0.5-0.6-0.7-0.7
							c0.7,0.1,1-0.2,1.8,0c-0.4-0.1-0.7-0.3-0.9-0.4c-0.1-0.1-0.1-0.2,0.3-0.1l0.1,0c0.2,0,0.3,0,0.2-0.1c0,0-0.1-0.1-0.3-0.2
							c-0.2-0.2-0.4-0.4,0.2-0.3c-0.8-0.5-0.2-0.5-1.1-1.1c-0.2-0.7,0.5-0.6,1-0.7c0.4-0.1,0.6-0.2-0.5-1.7c0.2-0.5,1,0.2,1.3,0.2
							l0,0.2c0.5-0.8,0.7-1,1.3-1.3c0.1-0.5-0.8-1.9,0-1.9c0.2,0.7,0.3,0.4,0.5,0.3c-0.1,0.2,0,0.4,0.5,0.6
							c-0.1-0.2-0.1-0.3-0.1-0.5c0,0,0.1,0.1,0.1,0.1c0.2-0.4,0-0.5-0.2-0.5c0-0.1-0.1-0.2-0.3-0.3c0.8,0.5,1-0.7,1.6,0.3
							c0.9-0.8,1.2-2.3,2-3.1c0.3,0.5,0.3,1,0.2,1.4l0.6-0.5c0.3,0.8-0.2,0.6-0.3,0.8c0.7,0.4,0.9,0,1.2-0.5c0.3-0.5,0.6-1,1.3-0.6
							l0-0.7l0.1,0.1c-0.1-0.3,0-0.8,0.1-1c0.3,0.6,0.5,1.6,0.9,1.4c0.5,0.6,0.9-0.6,1.2-1c-0.3-0.1-0.3-0.5-0.2-0.7
							c0.2-0.1,0.5,0.6,0.6,0.3l0.2,1c-0.2-0.9,0.4-1.1,0.4-1.4c0.2,0.7-0.3,0.6-0.3,1.2c0.4-0.1,0.4-0.1,0.5-0.1
							c0.1,0,0.2-0.1,0.4-0.1c0.4-0.7,0-0.9,0.2-1.8c0.2-0.1,0.4-0.3,0.6-0.4c0.2-0.1,0.4,0,0.4,0.3c0.1-0.3,0.2-0.6,0.2-0.8
							c0.9-0.4,1.4,0.2,0.7,0.9c1,0,1.9,0.8,2.6,1.5c0.7,0.7,1.2,1.3,1.8,1.8c0.5,0.5,1,0.7,1.5,0.9c0.5,0.1,0.9,0.2,1.3,0.1
							c0.8-0.3,1.6-1,2-1.8c0.2-0.5,0.4-0.9,0.5-1.3c0.1-0.3,0.1-0.5,0.1-0.6c0.4-2,0.1-4.5-1.5-6.7c-0.3-0.5-0.8-1-1.2-1.4
							c-0.4-0.4-0.9-0.8-1.4-1.1c-0.9-0.5-2-1-2.8-1.2c-0.4-0.1-0.9-0.2-1.3-0.2c-0.4,0-0.8,0-1.1,0c-0.8,0-1.4,0.1-2.1,0.2
							c-0.7,0.1-1.2,0.3-1.9,0.5C607.4,52.3,606.8,52.5,606.2,52.6z"/>
					</g>
				</g>
			</g>
		</g>
	</g>
</g>
</svg>
